<svg width="22" height="22" viewBox="0 0 22 22" fill="none" xmlns="http://www.w3.org/2000/svg">
<g clip-path="url(#clip0_19_2509)">
<path d="M12.3749 1.37499C12.3749 2.13439 11.7593 2.74999 10.9999 2.74999C10.2405 2.74999 9.62494 2.13439 9.62494 1.37499C9.62494 0.615605 10.2405 0 10.9999 0C11.7593 0 12.3749 0.615605 12.3749 1.37499Z" fill="url(#paint0_linear_19_2509)"/>
<path fill-rule="evenodd" clip-rule="evenodd" d="M10.9999 16.4999C14.0375 16.4999 16.4999 14.0376 16.4999 11C16.4999 7.96243 14.0375 5.5 10.9999 5.5C7.96237 5.5 5.49994 7.96243 5.49994 11C5.49994 14.0376 7.96237 16.4999 10.9999 16.4999ZM10.9999 13.7499C12.5187 13.7499 13.7499 12.5188 13.7499 11C13.7499 9.4812 12.5187 8.24999 10.9999 8.24999C9.48114 8.24999 8.24993 9.4812 8.24993 11C8.24993 12.5188 9.48114 13.7499 10.9999 13.7499Z" fill="url(#paint1_linear_19_2509)"/>
<path d="M17.8749 5.49998C18.6343 5.49998 19.2499 4.88437 19.2499 4.12499C19.2499 3.3656 18.6343 2.75 17.8749 2.75C17.1155 2.75 16.4999 3.3656 16.4999 4.12499C16.4999 4.88437 17.1155 5.49998 17.8749 5.49998Z" fill="url(#paint2_linear_19_2509)"/>
<path d="M5.49998 4.12499C5.49998 4.88437 4.88437 5.49998 4.12499 5.49998C3.3656 5.49998 2.75 4.88437 2.75 4.12499C2.75 3.3656 3.3656 2.75 4.12499 2.75C4.88437 2.75 5.49998 3.3656 5.49998 4.12499Z" fill="url(#paint3_linear_19_2509)"/>
<path d="M10.9999 19.25C11.7593 19.25 12.3749 19.8656 12.3749 20.625C12.3749 21.3844 11.7593 22 10.9999 22C10.2405 22 9.62494 21.3844 9.62494 20.625C9.62494 19.8656 10.2405 19.25 10.9999 19.25Z" fill="url(#paint4_linear_19_2509)"/>
<path d="M19.2499 17.875C19.2499 17.1157 18.6343 16.5 17.8749 16.5C17.1155 16.5 16.4999 17.1157 16.4999 17.875C16.4999 18.6344 17.1155 19.25 17.8749 19.25C18.6343 19.25 19.2499 18.6344 19.2499 17.875Z" fill="url(#paint5_linear_19_2509)"/>
<path d="M4.12499 16.5C4.88437 16.5 5.49998 17.1157 5.49998 17.875C5.49998 18.6344 4.88437 19.25 4.12499 19.25C3.3656 19.25 2.75 18.6344 2.75 17.875C2.75 17.1157 3.3656 16.5 4.12499 16.5Z" fill="url(#paint6_linear_19_2509)"/>
<path d="M2.74999 11C2.74999 11.7594 2.13439 12.3749 1.37499 12.3749C0.615605 12.3749 0 11.7594 0 11C0 10.2406 0.615605 9.625 1.37499 9.625C2.13439 9.625 2.74999 10.2406 2.74999 11Z" fill="url(#paint7_linear_19_2509)"/>
<path d="M20.6249 12.3749C21.3843 12.3749 21.9999 11.7594 21.9999 11C21.9999 10.2406 21.3843 9.625 20.6249 9.625C19.8654 9.625 19.2499 10.2406 19.2499 11C19.2499 11.7594 19.8654 12.3749 20.6249 12.3749Z" fill="url(#paint8_linear_19_2509)"/>
</g>
<defs>
<linearGradient id="paint0_linear_19_2509" x1="-2.11801" y1="-0.743758" x2="-2.11801" y2="22.5559" gradientUnits="userSpaceOnUse">
<stop stop-color="white"/>
<stop offset="1" stop-color="white" stop-opacity="0.72"/>
</linearGradient>
<linearGradient id="paint1_linear_19_2509" x1="-2.11803" y1="-0.743726" x2="-2.11803" y2="22.556" gradientUnits="userSpaceOnUse">
<stop stop-color="white"/>
<stop offset="1" stop-color="white" stop-opacity="0.72"/>
</linearGradient>
<linearGradient id="paint2_linear_19_2509" x1="-2.11803" y1="-0.743748" x2="-2.11803" y2="22.556" gradientUnits="userSpaceOnUse">
<stop stop-color="white"/>
<stop offset="1" stop-color="white" stop-opacity="0.72"/>
</linearGradient>
<linearGradient id="paint3_linear_19_2509" x1="-2.118" y1="-0.743748" x2="-2.118" y2="22.556" gradientUnits="userSpaceOnUse">
<stop stop-color="white"/>
<stop offset="1" stop-color="white" stop-opacity="0.72"/>
</linearGradient>
<linearGradient id="paint4_linear_19_2509" x1="-2.11801" y1="-0.743649" x2="-2.11801" y2="22.556" gradientUnits="userSpaceOnUse">
<stop stop-color="white"/>
<stop offset="1" stop-color="white" stop-opacity="0.72"/>
</linearGradient>
<linearGradient id="paint5_linear_19_2509" x1="-2.11803" y1="-0.743654" x2="-2.11803" y2="22.5561" gradientUnits="userSpaceOnUse">
<stop stop-color="white"/>
<stop offset="1" stop-color="white" stop-opacity="0.72"/>
</linearGradient>
<linearGradient id="paint6_linear_19_2509" x1="-2.118" y1="-0.743654" x2="-2.118" y2="22.5561" gradientUnits="userSpaceOnUse">
<stop stop-color="white"/>
<stop offset="1" stop-color="white" stop-opacity="0.72"/>
</linearGradient>
<linearGradient id="paint7_linear_19_2509" x1="-2.11801" y1="-0.743701" x2="-2.11801" y2="22.556" gradientUnits="userSpaceOnUse">
<stop stop-color="white"/>
<stop offset="1" stop-color="white" stop-opacity="0.72"/>
</linearGradient>
<linearGradient id="paint8_linear_19_2509" x1="-2.11802" y1="-0.743701" x2="-2.11802" y2="22.556" gradientUnits="userSpaceOnUse">
<stop stop-color="white"/>
<stop offset="1" stop-color="white" stop-opacity="0.72"/>
</linearGradient>
<clipPath id="clip0_19_2509">
<rect width="22" height="22" fill="white"/>
</clipPath>
</defs>
</svg>
