<svg width="22" height="24" viewBox="0 0 22 24" fill="none" xmlns="http://www.w3.org/2000/svg">
<g clip-path="url(#clip0_19_2486)">
<g filter="url(#filter0_i_19_2486)">
<path d="M10.9952 23.0079C11.7123 23.0079 12.2999 22.4806 12.3995 21.7343C13.3855 15.0875 14.2918 14.1621 20.6858 13.4358C21.4228 13.3463 21.9905 12.7293 21.9905 12.0129C21.9905 11.2865 21.4328 10.6895 20.6958 10.5801C14.3416 9.69452 13.5548 8.91841 12.3995 2.28161C12.27 1.54531 11.7023 1.01794 10.9952 1.01794C10.2682 1.01794 9.69055 1.54531 9.57104 2.29157C8.60497 8.92836 7.69866 9.85372 1.31465 10.5801C0.557729 10.6796 0 11.2766 0 12.0129C0 12.7293 0.53781 13.3264 1.29473 13.4358C7.65882 14.3412 8.43566 15.1074 9.57104 21.7442C9.72043 22.4905 10.2981 23.0079 10.9952 23.0079Z" fill="#7B61FF"/>
</g>
</g>
<defs>
<filter id="filter0_i_19_2486" x="0" y="-0.515858" width="21.9905" height="23.5238" filterUnits="userSpaceOnUse" color-interpolation-filters="sRGB">
<feFlood flood-opacity="0" result="BackgroundImageFix"/>
<feBlend mode="normal" in="SourceGraphic" in2="BackgroundImageFix" result="shape"/>
<feColorMatrix in="SourceAlpha" type="matrix" values="0 0 0 0 0 0 0 0 0 0 0 0 0 0 0 0 0 0 127 0" result="hardAlpha"/>
<feOffset dy="-1.5338"/>
<feGaussianBlur stdDeviation="0.824623"/>
<feComposite in2="hardAlpha" operator="arithmetic" k2="-1" k3="1"/>
<feColorMatrix type="matrix" values="0 0 0 0 0 0 0 0 0 0 0 0 0 0 0 0 0 0 0.26 0"/>
<feBlend mode="normal" in2="shape" result="effect1_innerShadow_19_2486"/>
</filter>
<clipPath id="clip0_19_2486">
<rect width="21.9905" height="23.09" fill="white"/>
</clipPath>
</defs>
</svg>
