<svg width="22" height="22" viewBox="0 0 22 22" fill="none" xmlns="http://www.w3.org/2000/svg">
<g clip-path="url(#clip0_19_3472)">
<path d="M15.9859 0.271484H5.5097C2.61678 0.271484 0.271606 2.61666 0.271606 5.50958V15.9858C0.271606 18.8787 2.61678 21.2239 5.5097 21.2239H15.9859C18.8788 21.2239 21.224 18.8787 21.224 15.9858V5.50958C21.224 2.61666 18.8788 0.271484 15.9859 0.271484Z" fill="url(#paint0_linear_19_3472)"/>
<path fill-rule="evenodd" clip-rule="evenodd" d="M15.1128 4.854C14.6306 4.854 14.2398 5.24487 14.2398 5.72702V15.7667C14.2398 16.2489 14.6306 16.6397 15.1128 16.6397C15.595 16.6397 15.9858 16.2489 15.9858 15.7667V5.72702C15.9858 5.24487 15.595 4.854 15.1128 4.854ZM5.50972 5.72703C5.50972 5.24487 5.90059 4.854 6.38275 4.854C6.86489 4.854 7.25576 5.24487 7.25576 5.72703V6.60004C7.25641 7.5638 8.03762 8.34488 9.00153 8.34488C9.96583 8.34488 10.7475 7.56315 10.7475 6.59884V5.72703C10.7475 5.24487 11.1384 4.854 11.6206 4.854C12.1027 4.854 12.4936 5.24487 12.4936 5.72703V6.60004C12.493 8.5281 10.9297 10.0909 9.00153 10.0909C7.07292 10.0909 5.50946 8.52746 5.50946 6.59884L5.50972 5.72703ZM6.38248 16.6403C5.90034 16.6403 5.50947 16.2494 5.50947 15.7672V14.8955C5.50946 12.9669 7.07292 11.4034 9.00153 11.4034C10.9301 11.4034 12.4936 12.9669 12.4936 14.8955L12.4934 15.7672C12.4934 16.2493 12.1025 16.6402 11.6203 16.6402C11.1382 16.6402 10.7473 16.2493 10.7473 15.7672V14.8942C10.7467 13.9305 9.96539 13.1495 9.00153 13.1495C8.03765 13.1495 7.25619 13.9305 7.25551 14.8942V15.7672C7.25551 16.2494 6.86464 16.6403 6.38248 16.6403Z" fill="white"/>
</g>
<defs>
<linearGradient id="paint0_linear_19_3472" x1="21.224" y1="21.9502" x2="-5.51068" y2="6.56625" gradientUnits="userSpaceOnUse">
<stop offset="0.427132" stop-color="#0E0D10"/>
<stop offset="1" stop-color="#201F22"/>
</linearGradient>
<clipPath id="clip0_19_3472">
<rect width="22" height="22" fill="white"/>
</clipPath>
</defs>
</svg>
