<svg width="48" height="48" viewBox="0 0 48 48" fill="none" xmlns="http://www.w3.org/2000/svg">
<g clip-path="url(#clip0_19_1842)">
<mask id="mask0_19_1842" style="mask-type:luminance" maskUnits="userSpaceOnUse" x="0" y="0" width="48" height="48">
<path d="M47.8781 0H0.318054V47.56H47.8781V0Z" fill="white"/>
</mask>
<g mask="url(#mask0_19_1842)">
<path fill-rule="evenodd" clip-rule="evenodd" d="M21.7293 5.80794C20.2134 6.0491 18.5421 6.65205 17.4099 7.3663C14.8797 8.9624 13.118 11.3595 12.3806 14.2093C12.1712 15.0188 11.9636 16.8977 12.0567 17.1404C12.1167 17.297 12.3784 17.3031 16.9536 17.255C19.6122 17.2271 21.806 17.1856 21.8288 17.1627C21.8517 17.1399 21.7153 16.5398 21.5258 15.8293C21.3362 15.1187 21.1791 14.3542 21.1766 14.1303C21.1705 13.5942 21.4407 13.3806 22.2132 13.3105L22.7719 13.2598L22.3644 11.9944C22.1402 11.2984 21.8543 10.3551 21.729 9.89849C21.5091 9.0974 21.5062 9.04835 21.6454 8.50511C22.1209 6.65141 24.6245 6.39854 25.5071 8.11507C25.8004 8.68554 25.7078 9.42259 25.0913 11.4242C24.8005 12.3686 24.5625 13.1732 24.5625 13.2124C24.5625 13.2514 24.7956 13.2833 25.0805 13.2833C25.5293 13.2833 25.6349 13.3197 25.8701 13.5548C26.2371 13.9219 26.2221 14.3043 25.7781 15.8843C25.5842 16.574 25.4569 17.1735 25.495 17.2166C25.5332 17.2596 27.7691 17.264 30.4637 17.2263L35.3632 17.1577L35.3037 16.4049C35.0647 13.3783 33.8675 10.6092 31.9684 8.69033C30.6547 7.36311 29.1572 6.51179 27.2563 6.01177C26.2721 5.75287 26.0456 5.72854 24.3767 5.7028C23.13 5.68357 22.3048 5.71635 21.7293 5.80794ZM10.0251 18.5191C9.49814 18.8197 7.03016 20.1464 5.33414 21.0409C1.57997 23.0208 0.784642 23.5304 0.449493 24.1701C0.360691 24.3395 0.318054 24.7342 0.318054 25.3864V26.3518L8.00085 26.4188C12.2263 26.4557 22.7386 26.4557 31.3613 26.4188L47.039 26.3517L47.0988 26.0323C47.2165 25.4062 47.0818 24.544 46.7935 24.0779C46.3875 23.4214 45.8877 23.1072 41.8866 20.9933C41.3757 20.7234 40.8323 20.429 40.679 20.3391C40.3305 20.1345 39.7053 19.7989 38.1087 18.959L36.8549 18.2994L23.6258 18.3033L10.3967 18.3072L10.0251 18.5191ZM11.5578 20.4961C11.1397 20.6455 10.5958 20.9988 10.3693 21.2681C10.1394 21.5416 9.8858 22.2182 9.88635 22.5569C9.88729 23.202 10.0539 23.5595 10.5764 24.0369C12.1556 25.4802 15.0352 24.7356 15.3241 22.8092C15.4535 21.9454 14.875 21.0211 13.9533 20.6192C13.3134 20.3402 12.16 20.281 11.5578 20.4961ZM22.5898 20.4836C21.1913 20.9972 20.5155 22.3437 21.0983 23.4548C21.3461 23.9271 21.6019 24.1583 22.2402 24.487C22.6944 24.7206 22.8492 24.7501 23.6336 24.752C24.4601 24.7538 24.5525 24.7342 25.0908 24.4429C26.8794 23.4748 26.6451 21.1804 24.6922 20.5394C24.0056 20.314 23.1159 20.2903 22.5898 20.4836ZM33.5264 20.5282C32.6568 20.8774 31.9084 21.7933 31.9029 22.5152C31.8968 23.3161 32.4914 24.1646 33.3139 24.5289C34.0216 24.8423 35.2742 24.8452 35.9627 24.5351C36.5357 24.2768 37.1241 23.6745 37.2879 23.1782C37.4638 22.6451 37.355 21.8883 37.0429 21.4744C36.7186 21.0443 36.6078 20.9537 36.0345 20.6495C35.3951 20.3101 34.212 20.253 33.5264 20.5282ZM0.968287 27.4869C0.968287 27.6726 2.29922 28.7811 3.11731 29.2769L3.98723 29.804L23.4942 29.8342L43.0014 29.8643L43.5123 29.5981C44.5484 29.0579 45.4992 28.347 46.106 27.6582L46.3315 27.4027H23.6497C10.1529 27.4027 0.968287 27.4368 0.968287 27.4869ZM7.20087 31.2097C7.98459 31.6083 10.6401 32.7672 13.5847 33.9955C14.5145 34.3834 14.5518 34.4104 14.8235 34.8918C15.1389 35.4507 15.5165 35.8048 16.063 36.0539C16.4123 36.2131 16.8675 36.2233 23.6419 36.2253L30.8494 36.2273L31.3991 35.9526C31.9308 35.6869 32.0936 35.5061 32.6904 34.5181C32.7415 34.4336 33.3685 34.1215 34.0838 33.8248C38.3465 32.056 40.9112 30.9192 40.9112 30.7987C40.9112 30.7701 33.1259 30.7489 23.6104 30.7515L6.3095 30.7562L7.20087 31.2097Z" fill="#DDDDDD"/>
</g>
</g>
<defs>
<clipPath id="clip0_19_1842">
<rect width="47.9846" height="47.56" fill="white"/>
</clipPath>
</defs>
</svg>
