<svg width="104" height="104" viewBox="0 0 104 104" fill="none" xmlns="http://www.w3.org/2000/svg">
<mask id="mask0_19_1915" style="mask-type:luminance" maskUnits="userSpaceOnUse" x="13" y="13" width="78" height="78">
<path d="M78.008 15.1099L28.0385 13.365C21.1391 13.124 15.3508 18.5217 15.1098 25.4211L13.3649 75.3906C13.1239 82.29 18.5217 88.0783 25.421 88.3193L75.3906 90.0642C82.2899 90.3052 88.0783 84.9075 88.3192 78.0081L90.0642 28.0386C90.3051 21.1392 84.9074 15.3509 78.008 15.1099Z" fill="white"/>
</mask>
<g mask="url(#mask0_19_1915)">
<path fill-rule="evenodd" clip-rule="evenodd" d="M38.0398 59.6031C35.9407 57.3521 32.4142 57.2289 30.1632 59.328L9.53597 78.5633L5.27349 73.9923L25.9007 54.7571C30.6762 50.304 38.1575 50.5651 42.6107 55.3406L78.6242 93.9603L74.0532 98.2228L38.0398 59.6031Z" fill="#DDDDDD"/>
</g>
<path d="M77.899 18.233L27.9294 16.4881C22.7549 16.3074 18.4136 20.3557 18.2329 25.5302L16.488 75.4997C16.3073 80.6742 20.3556 85.0155 25.5301 85.1962L75.4996 86.9412C80.6741 87.1219 85.0154 83.0736 85.1961 77.8991L86.9411 27.9295C87.1218 22.755 83.0735 18.4137 77.899 18.233Z" stroke="#DDDDDD" stroke-width="6.25" stroke-linecap="square"/>
<path d="M60.8657 58.288C61.8841 58.3235 62.7448 57.6037 62.9232 56.5487C64.6531 47.1577 65.9862 45.8884 75.103 45.174C76.1541 45.0833 76.9909 44.2353 77.0265 43.2178C77.0625 42.1862 76.3 41.3106 75.2588 41.1186C66.2785 39.5458 65.1995 38.4045 63.888 28.9214C63.7406 27.8692 62.9606 27.0921 61.9563 27.057C60.9237 27.021 60.0772 27.7413 59.8705 28.7953C58.1693 38.1731 56.8362 39.4425 47.7336 40.1574C46.6537 40.2612 45.832 41.0814 45.7955 42.1272C45.76 43.1447 46.4942 44.0192 47.5637 44.2123C56.5571 45.8138 57.6224 46.9405 58.9057 56.4226C59.0808 57.4899 59.8756 58.2534 60.8657 58.288Z" fill="#DDDDDD"/>
</svg>
