<svg width="20" height="20" viewBox="0 0 20 20" fill="none" xmlns="http://www.w3.org/2000/svg">
<g clip-path="url(#clip0_19_2582)">
<path d="M11.3382 1.64157C11.3382 2.31102 10.7955 2.8537 10.1261 2.8537C9.45661 2.8537 8.91394 2.31102 8.91394 1.64157C8.91394 0.972132 9.45661 0.429443 10.1261 0.429443C10.7955 0.429443 11.3382 0.972132 11.3382 1.64157Z" fill="white"/>
<path fill-rule="evenodd" clip-rule="evenodd" d="M10.1261 14.9751C12.8038 14.9751 14.9746 12.8043 14.9746 10.1266C14.9746 7.44883 12.8038 5.27808 10.1261 5.27808C7.44831 5.27808 5.27759 7.44883 5.27759 10.1266C5.27759 12.8043 7.44831 14.9751 10.1261 14.9751ZM10.1261 12.5508C11.4649 12.5508 12.5503 11.4655 12.5503 10.1266C12.5503 8.78774 11.4649 7.70235 10.1261 7.70235C8.78722 7.70235 7.70182 8.78774 7.70182 10.1266C7.70182 11.4655 8.78722 12.5508 10.1261 12.5508Z" fill="white"/>
<path d="M16.1867 5.27802C16.8561 5.27802 17.3988 4.73533 17.3988 4.06589C17.3988 3.39645 16.8561 2.85376 16.1867 2.85376C15.5172 2.85376 14.9745 3.39645 14.9745 4.06589C14.9745 4.73533 15.5172 5.27802 16.1867 5.27802Z" fill="white"/>
<path d="M5.27757 4.06589C5.27757 4.73533 4.73489 5.27802 4.06545 5.27802C3.39602 5.27802 2.85333 4.73533 2.85333 4.06589C2.85333 3.39645 3.39602 2.85376 4.06545 2.85376C4.73489 2.85376 5.27757 3.39645 5.27757 4.06589Z" fill="white"/>
<path d="M10.1261 17.3994C10.7955 17.3994 11.3382 17.9421 11.3382 18.6115C11.3382 19.281 10.7955 19.8237 10.1261 19.8237C9.45661 19.8237 8.91394 19.281 8.91394 18.6115C8.91394 17.9421 9.45661 17.3994 10.1261 17.3994Z" fill="white"/>
<path d="M17.3988 16.1872C17.3988 15.5178 16.8561 14.9751 16.1867 14.9751C15.5172 14.9751 14.9745 15.5178 14.9745 16.1872C14.9745 16.8567 15.5172 17.3993 16.1867 17.3993C16.8561 17.3993 17.3988 16.8567 17.3988 16.1872Z" fill="white"/>
<path d="M4.06545 14.9751C4.73489 14.9751 5.27757 15.5178 5.27757 16.1872C5.27757 16.8567 4.73489 17.3993 4.06545 17.3993C3.39602 17.3993 2.85333 16.8567 2.85333 16.1872C2.85333 15.5178 3.39602 14.9751 4.06545 14.9751Z" fill="white"/>
<path d="M2.85334 10.1264C2.85334 10.7959 2.31065 11.3385 1.64121 11.3385C0.971778 11.3385 0.429092 10.7959 0.429092 10.1264C0.429092 9.45697 0.971778 8.91431 1.64121 8.91431C2.31065 8.91431 2.85334 9.45697 2.85334 10.1264Z" fill="white"/>
<path d="M18.6109 11.3385C19.2804 11.3385 19.823 10.7959 19.823 10.1264C19.823 9.45697 19.2804 8.91431 18.6109 8.91431C17.9415 8.91431 17.3988 9.45697 17.3988 10.1264C17.3988 10.7959 17.9415 11.3385 18.6109 11.3385Z" fill="white"/>
</g>
<defs>
<clipPath id="clip0_19_2582">
<rect width="20" height="20" fill="white"/>
</clipPath>
</defs>
</svg>
