<svg width="44" height="44" viewBox="0 0 44 44" fill="none" xmlns="http://www.w3.org/2000/svg">
<mask id="mask0_19_3315" style="mask-type:luminance" maskUnits="userSpaceOnUse" x="7" y="12" width="30" height="20">
<path d="M36.6667 12.2646H7.33334V31.748H36.6667V12.2646Z" fill="white"/>
</mask>
<g mask="url(#mask0_19_3315)">
<path d="M10.5017 25.1177C10.5017 26.2397 10.7475 27.0975 11.0689 27.6178C11.2401 27.9141 11.4867 28.1596 11.7836 28.3295C12.0804 28.4997 12.417 28.588 12.7591 28.5858C13.5854 28.5858 14.3413 28.3818 15.7979 26.3662C16.9649 24.7514 18.3399 22.4898 19.2661 21.0618L20.8331 18.6545C21.9215 16.9825 23.1792 15.1239 24.6257 13.8601C25.8038 12.8359 27.076 12.2646 28.3562 12.2646C30.5054 12.2646 32.5527 13.5102 34.1196 15.8461C35.8343 18.4044 36.6698 21.6269 36.6698 24.9523C36.6698 26.9292 36.28 28.3818 35.6171 29.5294C34.9774 30.6393 33.7247 31.7481 31.6245 31.7481V28.5858C33.4228 28.5858 33.8686 26.9334 33.8686 25.0422C33.8686 22.3472 33.2402 19.3563 31.856 17.2192C30.8737 15.7033 29.6006 14.7771 28.2 14.7771C26.6853 14.7771 25.4663 15.9196 24.0962 17.9567C23.3679 19.0389 22.6202 20.358 21.7807 21.8463L20.8566 23.4783C18.9999 26.7701 18.5297 27.5199 17.6014 28.7572C15.9775 30.9321 14.5881 31.7481 12.7591 31.7481C10.5894 31.7481 9.21742 30.8086 8.37281 29.3927C7.67405 28.2391 7.33334 26.7252 7.33334 25.0004L10.5017 25.1177Z" fill="#0081FB"/>
<path d="M9.8309 16.0695C11.2835 13.8305 13.3798 12.2646 15.7841 12.2646C17.1765 12.2646 18.5607 12.6727 20.0063 13.857C21.5873 15.1474 23.2703 17.2722 25.3748 20.7742L26.1287 22.0309C27.9485 25.0625 28.9848 26.6212 29.5898 27.3577C30.3692 28.3022 30.9159 28.5818 31.6239 28.5818C33.4222 28.5818 33.8679 26.9292 33.8679 25.0381L36.663 24.9503C36.663 26.9272 36.2733 28.3798 35.6103 29.5274C34.9769 30.6393 33.7242 31.7481 31.6239 31.7481C30.3182 31.7481 29.1614 31.4645 27.8823 30.2578C26.8989 29.3316 25.7492 27.6862 24.8648 26.2071L22.234 21.8126C20.9141 19.6071 19.7032 17.9628 19.0023 17.2222C18.2476 16.4174 17.2795 15.4504 15.7331 15.4504C14.4814 15.4504 13.4185 16.3286 12.529 17.6721L9.8309 16.0695Z" fill="url(#paint0_linear_19_3315)"/>
<path d="M15.7337 15.4504C14.482 15.4504 13.4191 16.3286 12.5296 17.6721C11.2719 19.5704 10.5017 22.3981 10.5017 25.1177C10.5017 26.2397 10.7475 27.0975 11.0689 27.6178L8.36771 29.3927C7.67405 28.2391 7.33334 26.7252 7.33334 25.0004C7.33334 21.8635 8.1943 18.5942 9.83152 16.0695C11.2841 13.8305 13.3804 12.2646 15.7847 12.2646L15.7337 15.4504Z" fill="url(#paint1_linear_19_3315)"/>
</g>
<defs>
<linearGradient id="paint0_linear_19_3315" x1="13.6919" y1="21.5015" x2="33.8894" y2="22.5215" gradientUnits="userSpaceOnUse">
<stop stop-color="#0064E1"/>
<stop offset="0.4" stop-color="#0064E1"/>
<stop offset="0.83" stop-color="#0073EE"/>
<stop offset="1" stop-color="#0082FB"/>
</linearGradient>
<linearGradient id="paint1_linear_19_3315" x1="11.5585" y1="26.4438" x2="11.5585" y2="18.9971" gradientUnits="userSpaceOnUse">
<stop stop-color="#0082FB"/>
<stop offset="1" stop-color="#0064E0"/>
</linearGradient>
</defs>
</svg>
