<svg width="44" height="44" viewBox="0 0 44 44" fill="none" xmlns="http://www.w3.org/2000/svg">
<mask id="mask0_19_3268" style="mask-type:luminance" maskUnits="userSpaceOnUse" x="7" y="9" width="30" height="26">
<path d="M36.6667 9.93652H7.33334V34.0656H36.6667V9.93652Z" fill="white"/>
</mask>
<g mask="url(#mask0_19_3268)">
<path d="M33.5854 16.0032C33.6032 16.2599 33.6032 16.5166 33.6032 16.7756C33.6032 24.6684 27.5944 33.7712 16.6075 33.7712V33.7665C13.3619 33.7712 10.1838 32.8415 7.45151 31.0885C7.92344 31.1453 8.39775 31.1738 8.87324 31.1749C11.5629 31.1772 14.1757 30.2749 16.2917 28.613C13.7357 28.5646 11.4943 26.8979 10.7113 24.4649C11.6067 24.6376 12.5293 24.6022 13.4081 24.362C10.6214 23.799 8.61657 21.3506 8.61657 18.5073V18.4315C9.44689 18.8939 10.3766 19.1506 11.3275 19.179C8.7029 17.4249 7.89387 13.9333 9.47883 11.2034C12.5115 14.9352 16.986 17.2038 21.7894 17.4439C21.3079 15.3692 21.9656 13.1953 23.5175 11.7369C25.9232 9.47537 29.707 9.59129 31.9686 11.9959C33.3062 11.7321 34.5884 11.2413 35.7617 10.5458C35.3159 11.9285 34.3825 13.103 33.1359 13.8494C34.3198 13.7098 35.4767 13.3928 36.566 12.909C35.7641 14.1107 34.754 15.1575 33.5854 16.0032Z" fill="white"/>
</g>
</svg>
