<svg width="44" height="44" viewBox="0 0 44 44" fill="none" xmlns="http://www.w3.org/2000/svg">
<mask id="mask0_19_3324" style="mask-type:luminance" maskUnits="userSpaceOnUse" x="7" y="12" width="30" height="20">
<path d="M36.6667 12.2651H7.33334V31.7485H36.6667V12.2651Z" fill="white"/>
</mask>
<g mask="url(#mask0_19_3324)">
<path d="M10.5017 25.1181C10.5017 26.2403 10.7475 27.0981 11.0689 27.6184C11.2401 27.9145 11.4867 28.1601 11.7836 28.3301C12.0804 28.5002 12.417 28.5886 12.7591 28.5864C13.5854 28.5864 14.3413 28.3823 15.7979 26.3668C16.9649 24.752 18.3399 22.4904 19.2661 21.0622L20.8331 18.6549C21.9215 16.983 23.1792 15.1244 24.6257 13.8605C25.8038 12.8364 27.076 12.2651 28.3562 12.2651C30.5054 12.2651 32.5527 13.5106 34.1196 15.8466C35.8343 18.405 36.6698 21.6274 36.6698 24.9529C36.6698 26.9298 36.28 28.3823 35.6171 29.53C34.9774 30.6397 33.7247 31.7485 31.6245 31.7485V28.5864C33.4228 28.5864 33.8686 26.9338 33.8686 25.0426C33.8686 22.3476 33.2402 19.3567 31.856 17.2196C30.8737 15.7038 29.6006 14.7776 28.2 14.7776C26.6853 14.7776 25.4663 15.9201 24.0962 17.9572C23.3679 19.0395 22.6202 20.3584 21.7807 21.8467L20.8566 23.4789C18.9999 26.7707 18.5297 27.5203 17.6014 28.7578C15.9775 30.9325 14.5881 31.7485 12.7591 31.7485C10.5894 31.7485 9.21742 30.8091 8.37281 29.3932C7.67405 28.2395 7.33334 26.7257 7.33334 25.0008L10.5017 25.1181Z" fill="white"/>
<path d="M9.8309 16.07C11.2835 13.831 13.3798 12.2651 15.7841 12.2651C17.1765 12.2651 18.5607 12.6732 20.0063 13.8575C21.5873 15.1479 23.2703 17.2727 25.3748 20.7746L26.1287 22.0313C27.9485 25.0631 28.9848 26.6218 29.5898 27.3582C30.3692 28.3028 30.9159 28.5824 31.6239 28.5824C33.4222 28.5824 33.8679 26.9298 33.8679 25.0385L36.663 24.9509C36.663 26.9278 36.2733 28.3803 35.6103 29.528C34.9769 30.6397 33.7242 31.7485 31.6239 31.7485C30.3182 31.7485 29.1614 31.4651 27.8823 30.2582C26.8989 29.332 25.7492 27.6866 24.8648 26.2076L22.234 21.8131C20.9141 19.6076 19.7032 17.9633 19.0023 17.2227C18.2476 16.4179 17.2795 15.4508 15.7331 15.4508C14.4814 15.4508 13.4185 16.3291 12.529 17.6726L9.8309 16.07Z" fill="white"/>
<path d="M15.7337 15.4508C14.482 15.4508 13.4191 16.3291 12.5296 17.6726C11.2719 19.571 10.5017 22.3985 10.5017 25.1181C10.5017 26.2403 10.7475 27.0981 11.0689 27.6184L8.36771 29.3932C7.67405 28.2395 7.33334 26.7257 7.33334 25.0008C7.33334 21.8641 8.1943 18.5947 9.83152 16.07C11.2841 13.831 13.3804 12.2651 15.7847 12.2651L15.7337 15.4508Z" fill="white"/>
</g>
</svg>
