<svg width="15" height="15" viewBox="0 0 15 15" fill="none" xmlns="http://www.w3.org/2000/svg">
<path fill-rule="evenodd" clip-rule="evenodd" d="M14.0457 0.9543C12.7732 -0.3181 10.7102 -0.3181 9.4378 0.9543L6.5218 3.8703L7.4184 4.7668L10.3343 1.8508C11.1116 1.0735 12.3719 1.0735 13.1491 1.8508C13.9265 2.6281 13.9265 3.8883 13.1491 4.6656L10.2331 7.5815L11.1298 8.4781L14.0457 5.5621C15.3181 4.2897 15.3181 2.2267 14.0457 0.9543ZM0.9543 14.0454C-0.3181 12.773 -0.3181 10.71 0.9543 9.4376L3.8704 6.5216L4.7669 7.4181L1.8509 10.3341C1.0736 11.1114 1.0736 12.3715 1.8509 13.1489C2.6281 13.9262 3.8884 13.9262 4.6657 13.1489L7.5818 10.2328L8.4783 11.1294L5.5622 14.0454C4.2898 15.3178 2.2268 15.3178 0.9543 14.0454ZM14.9225 10.7848H11.7414V9.517H14.9225V10.7848ZM10.7852 11.7412V14.9222H9.5172V11.7412H10.7852ZM4.2153 0.0770999V3.2582H5.4832V0.0770999H4.2153ZM3.2586 4.2148H0.0775004V5.4827H3.2586V4.2148Z" fill="white"/>
</svg>
