<svg width="17" height="10" viewBox="0 0 17 10" fill="none" xmlns="http://www.w3.org/2000/svg">
<path fill-rule="evenodd" clip-rule="evenodd" d="M8.0905 8.53562C5.28614 8.53562 2.82017 7.0795 1.41038 4.8775C2.82017 2.6755 5.28614 1.21938 8.0905 1.21938C10.895 1.21938 13.3608 2.6755 14.7707 4.8775C13.3608 7.0795 10.895 8.53562 8.0905 8.53562ZM8.0905 0C11.6 0 14.6477 1.97675 16.181 4.8775C14.6477 7.77825 11.6 9.755 8.0905 9.755C4.58114 9.755 1.53339 7.77825 0 4.8775C1.53339 1.97675 4.58114 0 8.0905 0ZM8.0909 7.31625C9.43777 7.31625 10.5296 6.22437 10.5296 4.8775C10.5296 3.53063 9.43777 2.43875 8.0909 2.43875C6.74402 2.43875 5.65215 3.53063 5.65215 4.8775C5.65215 6.22437 6.74402 7.31625 8.0909 7.31625Z" fill="white"/>
</svg>
