<svg width="9" height="5" viewBox="0 0 9 5" fill="none" xmlns="http://www.w3.org/2000/svg">
<path d="M8.45952 1.58477C7.04566 0.733687 5.30963 0.630067 3.93122 1.17467C3.23889 1.45028 2.65501 1.9155 2.12534 2.40719C1.86258 2.66074 1.63841 2.94737 1.41945 3.23848L1.06912 3.67275C0.912716 3.81174 0.978404 4.01453 0.331952 4.01234C-0.176868 3.61551 0.0462666 3.43241 0.0629492 3.19427C0.125508 2.96718 0.206824 2.74676 0.317347 2.53948C0.541519 2.12937 0.845989 1.76557 1.17964 1.43925C1.84069 0.77117 2.71652 0.345618 3.61634 0.138357C5.4264 -0.282775 7.32614 0.283902 8.54085 1.47894L8.45952 1.58477Z" fill="black"/>
</svg>
