<svg width="23" height="37" viewBox="0 0 23 37" fill="none" xmlns="http://www.w3.org/2000/svg">
<path fill-rule="evenodd" clip-rule="evenodd" d="M7.95923 0.135703C7.27657 0.323692 6.38826 0.868424 5.86888 1.41757C4.86727 2.47663 4.44722 3.8515 4.44722 6.07077V7.40707L4.18933 7.45863C3.71123 7.5543 2.91757 7.88879 2.44299 8.19462C1.3365 8.90772 0.595664 9.90427 0.211193 11.1964C0.0624826 11.6962 0.0432463 12.3468 0.0123323 17.9269C-0.0278814 25.1762 -0.0167558 25.2991 0.804588 26.6786C1.50228 27.8504 2.67688 28.7208 3.90295 28.9744L4.42705 29.0828L4.47295 30.7735C4.522 32.5772 4.61822 33.1039 5.07475 34.0681C5.38882 34.7315 6.26405 35.6687 6.90993 36.0332C7.86364 36.5712 8.54061 36.691 10.6226 36.6893C12.6822 36.6876 13.401 36.5844 14.2129 36.1748C15.0613 35.7469 15.4778 35.3893 15.9609 34.6741C16.699 33.5816 16.8271 33.0668 16.8888 30.9451L16.941 29.1471L17.6918 28.8954C18.8934 28.4926 19.6667 27.9186 20.3297 26.9374C21.0113 25.9286 21.2604 24.8509 21.2604 22.9094V21.7502L21.5274 21.6916C22.0121 21.585 22.3482 21.0694 22.5887 20.0634C22.9087 18.725 22.8652 17.4391 22.4576 16.1889C22.2493 15.5502 21.9911 15.2459 21.5242 15.0889L21.2139 14.9847L21.1599 13.135C21.1302 12.1176 21.0623 11.1599 21.0089 11.0066C20.5453 9.67378 19.5938 8.5224 18.4737 7.93924C18.2949 7.84607 17.8768 7.67702 17.5448 7.56351L16.941 7.3571L16.9679 6.34869C17.0343 3.86628 16.5716 2.42045 15.327 1.2216C14.7463 0.662302 14.1725 0.340593 13.3932 0.137656C12.6928 -0.0448128 8.61984 -0.0462989 7.95923 0.135703ZM4.53954 10.3038C3.80681 10.5267 3.32353 11.0437 3.15991 11.7795C3.10696 12.0173 3.09193 13.2959 3.12297 14.9146L3.17524 17.6483H3.75339C4.46412 17.6483 4.55996 17.7429 4.522 18.4071L4.49363 18.9023L3.82019 18.9296L3.14675 18.9569V21.865C3.14675 23.8472 3.1814 24.8737 3.25558 25.0889C3.4164 25.555 3.67305 25.8633 4.10712 26.1121C4.4876 26.3301 4.53788 26.334 7.30358 26.3618L10.1135 26.39V25.5987C10.1135 24.7266 10.1849 24.615 10.7432 24.615C11.1899 24.615 11.3211 24.8556 11.3211 25.6736V26.3925L14.0382 26.3631C16.6383 26.3349 16.7718 26.3246 17.1412 26.1272C18.1013 25.6137 18.195 25.2214 18.195 21.7186V18.9487H17.5448H16.8946V18.3449V17.7411H17.5448H18.195L18.1944 14.8848C18.1942 13.1093 18.1555 11.8877 18.0925 11.6568C17.9431 11.1099 17.5816 10.6901 17.0448 10.4401C16.5795 10.2235 16.5141 10.2188 13.9452 10.218L11.3211 10.217L11.3197 10.8905C11.3189 11.2609 11.2876 11.6099 11.25 11.6661C11.122 11.858 10.7679 11.9865 10.5312 11.9271C10.1549 11.8327 10.0207 11.5486 10.0207 10.8466V10.217L7.39649 10.225C5.95326 10.2294 4.66752 10.2649 4.53954 10.3038ZM10.2993 13.1895C10.129 13.3598 10.1135 13.4991 10.1135 14.8616C10.1135 15.679 10.0911 16.3478 10.0636 16.3478C10.0362 16.3478 9.59317 15.9705 9.07893 15.5093C7.77102 14.3364 7.55841 14.1843 7.32876 14.2571C7.22277 14.2907 7.07155 14.4168 6.99261 14.5373C6.79362 14.8409 6.89061 14.987 7.86011 15.8449C9.6682 17.4448 9.74171 17.523 9.74532 17.8524C9.75118 18.3887 10.4101 18.9249 10.9095 18.7995C11.0951 18.7529 11.2542 18.8434 11.7634 19.2854C12.1077 19.5841 12.4102 19.8503 12.4358 19.8767C12.764 20.2174 14.1045 21.3489 14.237 21.3971C14.5092 21.4961 14.851 21.223 14.851 20.9065C14.851 20.6843 14.6667 20.4692 13.7584 19.6314C13.1577 19.0771 12.468 18.4511 12.2258 18.2404C11.9837 18.0296 11.7856 17.8036 11.7856 17.7382C11.7856 17.6729 11.6771 17.4771 11.5444 17.3032C11.3051 16.9894 11.3031 16.9727 11.289 15.1729C11.2748 13.3867 11.2713 13.3563 11.0553 13.1813C10.7741 12.9535 10.5327 12.9561 10.2993 13.1895Z" fill="#DDDDDD"/>
</svg>
