<svg width="45" height="45" viewBox="0 0 45 45" fill="none" xmlns="http://www.w3.org/2000/svg">
<path fill-rule="evenodd" clip-rule="evenodd" d="M18.3077 0.343605C18.0233 0.628043 17.8936 0.887449 17.6468 1.66576L17.3399 2.63422L17.0039 2.57739C16.8191 2.54619 16.2357 2.4932 15.7074 2.45973L14.7469 2.39879L14.5073 1.87389C14.2204 1.2451 13.6205 0.595322 13.1055 0.355793C12.6185 0.129199 12.1027 0.126105 11.9015 0.348387C11.6813 0.591855 11.579 1.25992 11.6621 1.91345C11.7013 2.22179 11.763 2.77303 11.7991 3.13847L11.8648 3.80289L11.5593 4.02047C11.2085 4.27024 10.9692 4.7625 10.8068 5.56783C10.7445 5.87722 10.6348 6.24472 10.563 6.38447C10.3817 6.73792 9.75636 7.07906 8.89575 7.29412C8.01816 7.51342 7.80864 7.67722 7.80864 8.1438C7.80864 8.79245 8.08536 9.37612 8.66089 9.94119C9.41064 10.6772 10.267 11.087 11.1488 11.1315C11.9423 11.1716 12.3206 11.0653 13.1465 10.5702C13.9388 10.0952 14.4379 10.0734 14.8601 10.4955L15.1471 10.7825L15.07 11.5502C15.0277 11.9724 14.9902 12.687 14.9868 13.1381C14.9833 13.5894 14.9731 13.9584 14.9641 13.9584C14.9142 13.9584 12.2662 14.7768 11.1836 15.1269C9.58266 15.6445 5.56819 16.9257 4.94925 17.1164C3.86758 17.4497 3.39889 17.9499 3.40442 18.765C3.40772 19.2447 3.72178 19.8308 4.07466 20.016C4.70175 20.345 5.02678 20.2658 10.4897 18.4538C13.3205 17.5148 15.6761 16.7415 15.7243 16.7353C15.7725 16.7291 15.9872 17.2092 16.2013 17.8022C16.4155 18.3952 16.7419 19.1954 16.9265 19.5804L17.2624 20.2806L16.9939 21.5492C16.5266 23.7573 16.4336 24.8813 16.4336 28.3201C16.4336 31.0601 16.4525 31.4751 16.5865 31.6662C16.9258 32.1506 17.8624 32.2879 18.5518 31.9542C19.2502 31.6161 19.2686 31.5013 19.2347 27.6928L19.2054 24.4116L19.5529 23.8022C19.7441 23.467 19.9375 23.1362 19.9827 23.0669C20.048 22.9668 20.2262 23.0187 20.8508 23.3197C22.7358 24.2278 25.9808 24.3506 28.467 23.6078C28.8204 23.5022 29.1215 23.4289 29.1359 23.4449C29.1803 23.4943 29.2688 25.2576 29.3364 27.4449L29.401 29.5319L29.7701 29.8479C30.4265 30.4098 31.358 30.3609 31.9069 29.7359C32.1819 29.4226 32.1836 29.4136 32.1836 28.2429C32.1836 26.7181 31.9275 21.8579 31.8088 21.1303C31.7584 20.8209 31.5689 20.2714 31.3879 19.909C31.2068 19.5467 31.0586 19.2193 31.0586 19.1814C31.0586 19.1436 31.2679 18.7788 31.5235 18.3709C31.7792 17.9629 32.1364 17.2041 32.3171 16.6848C32.9072 14.9895 33.0979 12.6945 32.7151 11.8959C32.2551 10.9365 31.0526 10.9032 30.3653 11.8309C30.198 12.0567 30.1618 12.2823 30.1097 13.4246C30.0459 14.8218 29.8685 15.6044 29.4148 16.4897C29.0746 17.1534 28.9442 17.2974 28.7951 17.1736C28.5566 16.9757 27.6393 16.6569 26.8399 16.4941L26.043 16.3318L25.2247 14.8404C24.7745 14.0202 24.4054 13.294 24.4043 13.2267C24.4032 13.1594 24.6082 12.7797 24.86 12.383C26.6602 9.54471 27.0063 8.92277 27.159 8.25103C27.37 7.32356 27.7678 4.134 27.84 2.79159C27.891 1.84276 27.8769 1.6531 27.7395 1.44348C27.2214 0.652699 25.9826 0.624949 25.4365 1.39192C25.1657 1.77226 24.9669 2.80509 24.412 6.71709L24.249 7.86647L23.5253 8.92024C22.4175 10.5334 22.595 10.4077 22.1048 9.92653C21.713 9.54197 21.6836 9.47927 21.6836 9.027C21.6836 8.75974 21.5572 8.04077 21.4027 7.42942C21.1793 6.546 21.1215 6.1158 21.121 5.33344C21.1194 2.83689 20.3712 0.67051 19.3211 0.121982C18.9207 -0.0871782 18.6875 -0.0361783 18.3077 0.343605ZM13.8286 5.81525C13.5459 5.99619 13.2461 6.41627 13.2461 6.63124C13.2461 6.83953 13.5767 6.81656 13.9997 6.57874C14.4278 6.33819 14.478 6.3303 14.858 6.44447C15.7928 6.72527 16.0273 6.66394 15.7335 6.21545C15.3463 5.62453 14.4278 5.4315 13.8286 5.81525ZM13.4804 11.2723C12.6252 11.7418 12.0794 11.8962 11.2841 11.8937C10.5232 11.8914 9.81564 11.6675 9.21311 11.2385L8.90342 11.018L8.96642 11.4804C9.06045 12.17 9.56916 12.8574 10.2218 13.1768C10.8983 13.5077 11.8917 13.521 12.7118 13.21C13.7458 12.8181 14.5711 11.8066 14.3977 11.1437C14.3304 10.8866 14.1325 10.9144 13.4804 11.2723ZM41.3241 22.0313C39.5248 22.3414 37.6199 22.7777 35.418 23.384C34.593 23.6111 33.7183 23.8452 33.4743 23.9041L33.0305 24.0112L33.0806 24.9614C33.2441 28.0585 33.2789 29.1902 33.2186 29.4563C33.0611 30.1515 32.6419 30.6437 31.8732 31.0359C30.6898 31.6395 29.0949 31.0937 28.4889 29.8777C28.2558 29.4099 28.2461 29.3256 28.2461 27.7682C28.2461 26.6283 28.2147 26.1459 28.1405 26.1459C28.0445 26.1459 24.4888 27.5552 21.4492 28.798L20.2305 29.2963L20.1826 30.5102C20.1288 31.8742 20.0417 32.1267 19.459 32.6094C18.6919 33.2451 17.4343 33.3387 16.452 32.8332C15.8323 32.5144 15.6025 32.2275 15.4601 31.5953L15.353 31.1197L14.0418 31.6832C11.9805 32.569 7.62328 34.7621 6.02736 35.717C3.57589 37.1838 2.35743 38.0682 1.42181 39.06C-0.485811 41.0823 0.104062 42.5463 2.98048 42.9282C3.85961 43.0447 6.39234 43.0434 7.66798 42.9256C12.0797 42.518 17.9169 41.222 22.293 39.6782C28.6127 37.4486 33.646 34.866 37.9961 31.6208C39.2814 30.6618 41.2418 28.7023 42.183 27.4356C43.6406 25.4739 44.7411 23.362 44.7446 22.52C44.748 21.6565 44.0644 21.5589 41.3241 22.0313ZM41.1945 30.0913C40.6414 30.6734 40.3628 31.0305 40.4445 31.0532C42.1466 31.5256 42.9068 31.8989 43.9153 32.7573C44.3948 33.1655 44.6811 33.3476 44.7827 33.3088C44.8658 33.2769 44.9336 33.2004 44.9336 33.1385C44.9336 32.8151 44.4943 31.8052 44.0893 31.1983C43.6187 30.4925 42.3471 29.1382 42.1718 29.1557C42.1183 29.161 41.6781 29.5821 41.1945 30.0913ZM2.0835 30.2548C1.587 30.5697 0.968811 31.2501 0.631779 31.8525C0.365623 32.3282 -0.00768853 33.3609 0.0615 33.43C0.0991843 33.4677 1.38843 32.6149 2.36559 31.9059C3.11445 31.3625 3.51264 31.4786 3.96486 32.3727C4.36592 33.1656 4.51584 33.2463 5.31461 33.0991C6.02166 32.9688 6.88592 32.9585 7.33986 33.0749C8.19748 33.2948 8.12925 33.3158 8.49872 32.7173C8.68575 32.4143 8.99325 32.0307 9.18195 31.865C9.47089 31.6113 9.57692 31.572 9.85236 31.6167C10.0323 31.6459 10.3309 31.7703 10.5158 31.893L10.8522 32.1163L11.2997 31.8915C11.7105 31.6853 11.7382 31.6502 11.6384 31.4635C11.442 31.0966 10.5805 30.2474 10.2725 30.1172C9.48598 29.7848 8.60222 30.145 7.94372 31.0667L7.75061 31.3369L7.35581 31.1789C6.85845 30.9799 5.89061 30.9742 5.32314 31.1668L4.89358 31.3126L4.46316 30.834C3.67014 29.9519 2.86875 29.7569 2.0835 30.2548ZM38.6344 32.4653C38.444 32.5332 38.0011 32.8009 37.65 33.0601C36.7858 33.6982 34.6203 35.1074 33.7965 35.5678C33.4274 35.7741 33.1245 35.9657 33.1233 35.9936C33.1187 36.1013 34.3098 36.7288 34.6294 36.7871C35.112 36.8754 35.4998 36.6805 36.411 35.8923C37.8076 34.6841 38.6118 34.2804 39.6368 34.2732C40.8755 34.2643 42.3536 35.0609 44.361 36.8193C44.9147 37.3043 44.9336 37.3126 44.9336 37.0741C44.9336 36.6572 44.5663 35.7094 44.19 35.1551C43.557 34.2229 42.5361 33.2904 41.6773 32.8594C40.684 32.3608 39.3946 32.1939 38.6344 32.4653ZM2.44997 34.0186C1.50618 34.3037 0.301594 35.8141 0.0617786 37.0132L0 37.3219L0.443061 36.9836C1.22718 36.3851 2.19309 35.8719 2.62755 35.8229C2.85439 35.7973 3.20295 35.8301 3.40211 35.8959C3.73631 36.0061 3.79519 35.9969 4.16916 35.7752C5.01264 35.2753 4.99948 35.3049 4.57425 34.8591C3.79481 34.0419 3.17916 33.7983 2.44997 34.0186ZM38.1027 36.409C37.2775 36.6762 36.3623 37.2654 35.4801 38.0976C35.1241 38.4336 34.804 38.7084 34.7689 38.7084C34.7338 38.7084 34.4015 38.422 34.0303 38.0719C33.6591 37.7218 33.0661 37.2297 32.7125 36.9783C32.0784 36.5275 32.066 36.5233 31.8218 36.6783C31.6856 36.7647 31.098 37.0776 30.5159 37.3735L29.4576 37.9116L30.0518 37.9644C30.9714 38.0462 31.8259 38.5095 33.0065 39.5664C33.7233 40.2081 34.4732 40.675 34.7889 40.6764C35.1341 40.6778 35.6469 40.3578 36.4493 39.6403C37.8732 38.3669 38.5116 38.0477 39.6464 38.0418C40.4725 38.0375 41.0773 38.2756 41.7754 38.8803C42.1427 39.1986 42.2957 39.2709 42.6017 39.2709C43.1383 39.2709 43.3037 39.1475 43.4807 38.6139C43.6303 38.1641 43.629 38.1296 43.4606 37.8635C43.2103 37.4681 41.9614 36.6854 41.1418 36.4103C40.1986 36.0937 39.0784 36.0932 38.1027 36.409ZM27.3694 38.7416L26.4458 39.1277L26.7928 39.1998C27.0929 39.2621 27.1861 39.2354 27.482 39.0021C27.6702 38.8536 27.9719 38.6426 28.1524 38.5331C28.622 38.2483 28.4224 38.3015 27.3694 38.7416ZM28.7618 39.7777C27.714 40.0365 26.7322 40.6439 25.5933 41.738L24.956 42.35L24.3745 41.8143C24.0547 41.5199 23.5885 41.1076 23.3387 40.8983L22.8843 40.5176L22.073 40.7806C21.6268 40.9252 20.9453 41.1389 20.5586 41.2554L19.8555 41.4672L20.3377 41.5297C21.2414 41.6463 21.9207 42.0504 23.4845 43.4017C24.739 44.4856 25.2143 44.4684 26.5283 43.2912C29.1659 40.9275 30.7418 40.9297 33.2502 43.3002C34.0741 44.0789 34.2002 44.1462 34.8366 44.1462C35.4137 44.1462 35.4869 44.1016 36.5802 43.0914C38.6009 41.2242 40.2005 41.0386 41.9751 42.4662C42.7916 43.1232 42.9698 43.1994 43.47 43.1082C43.9701 43.0164 44.2774 42.6633 44.2774 42.179C44.2774 41.5507 43.9474 41.2752 41.9691 40.2492C40.9895 39.7411 40.1609 39.5886 39.1326 39.7269C37.7813 39.9088 36.9215 40.3586 35.5864 41.5824C35.2013 41.9352 34.8503 42.224 34.8064 42.224C34.7628 42.224 34.4319 41.9579 34.0714 41.6326C33.2343 40.8778 32.808 40.571 32.0996 40.2134C31.0489 39.683 29.8033 39.5204 28.7618 39.7777ZM17.793 42.047C17.3805 42.1713 16.2427 42.4439 15.2645 42.6522C14.2863 42.8604 13.4708 43.0464 13.4524 43.0649C13.4339 43.0833 13.701 43.331 14.0459 43.6156C14.7618 44.2062 15.1889 44.3352 15.6952 44.1136C15.8692 44.0377 16.4755 43.5663 17.0424 43.0666C17.6093 42.5673 18.1894 42.0984 18.3315 42.0247C18.4736 41.9514 18.5899 41.8713 18.5899 41.8464C18.5899 41.822 18.5793 41.8066 18.5664 41.8117C18.5536 41.8169 18.2055 41.9232 17.793 42.047ZM2.18362 43.5714C2.18362 43.7386 2.64928 44.0634 2.96192 44.1144C3.33769 44.1753 3.77736 44.0939 3.77736 43.9636C3.77736 43.9164 3.53484 43.8526 3.23831 43.8217C2.94178 43.7909 2.58328 43.7056 2.44143 43.6319C2.29959 43.5586 2.18362 43.5312 2.18362 43.5714ZM6.23848 43.9666C5.97881 44.0574 6.55069 44.1616 6.92466 44.0917C7.44478 43.994 7.41186 43.8509 6.87666 43.883C6.61228 43.8984 6.32514 43.9366 6.23848 43.9666Z" fill="#DDDDDD"/>
</svg>
