<svg width="41" height="25" viewBox="0 0 41 25" fill="none" xmlns="http://www.w3.org/2000/svg">
<path fill-rule="evenodd" clip-rule="evenodd" d="M22.5665 0.271157C22.172 0.527829 21.7338 0.887828 19.822 2.52591C19.3741 2.90966 19.0396 3.25483 19.0787 3.29297C19.1177 3.33116 19.7365 3.61697 20.4539 3.92824C21.8654 4.54063 22.2552 4.82691 22.3476 5.3193C22.4731 5.9883 21.8525 6.75 21.1819 6.75C20.8173 6.75 20.054 6.46127 18.4523 5.71757L17.1926 5.13257L16.8871 5.2971C16.719 5.38766 16.4932 5.55574 16.3852 5.67068L16.1888 5.87966L16.4036 6.01324C16.5217 6.08666 17.2512 6.43513 18.0247 6.78741C18.7981 7.13983 19.5047 7.5123 19.595 7.61507C19.8368 7.89069 19.8185 8.71166 19.5633 9.03613C19.3156 9.35091 18.9103 9.56254 18.5547 9.56254C18.4028 9.56254 17.7364 9.32554 17.0736 9.03583C16.0184 8.57469 14.4586 7.90097 14.3208 7.84689C14.2497 7.81894 13.384 8.55866 13.384 8.64724C13.384 8.68916 13.5001 8.76686 13.6418 8.81991C14.6192 9.18591 16.4899 10.079 16.6612 10.2613C16.9758 10.5961 17.0108 11.1328 16.7437 11.5227C16.4172 11.9989 16.0816 12.2106 15.6625 12.2049C15.3147 12.2001 13.901 11.6381 12.1848 10.8225C11.4161 10.4573 11.4431 10.4531 10.6184 11.0673C9.67622 11.769 9.04399 11.9697 7.10278 12.183C4.9129 12.4236 3.91849 12.6407 3.02393 13.0736C1.55869 13.7824 0.537014 15.0234 0.126014 16.5938C-0.0889577 17.4149 -0.0183634 19.2873 0.257825 20.0925C0.876387 21.8952 2.34113 23.1989 4.71216 24.0567L5.46216 24.3282L21.8215 24.3561C34.3796 24.3776 38.3092 24.3576 38.7332 24.2701C39.6845 24.0741 40.4602 23.301 40.6505 22.3597C40.7071 22.0809 40.7491 19.8225 40.7547 16.7938C40.7632 11.9502 40.7551 11.7 40.5974 11.7592C40.363 11.8468 36.8872 13.7362 33.7278 15.4932C30.6013 17.2319 27.0048 19.0587 25.1497 19.8504C22.3506 21.0451 20.8901 21.3212 19.554 20.9085C18.5096 20.5859 17.9074 20.0846 17.412 19.125C17.1379 18.5941 17.0524 17.3296 17.2326 16.4714C17.4545 15.4143 18.1738 13.8853 18.9092 12.9078C19.2791 12.4161 20.2512 11.3438 20.3272 11.3438C20.3498 11.3438 20.3684 11.9871 20.3684 12.7734C20.3684 14.0598 20.3887 14.2407 20.5707 14.5782C21.0409 15.4494 21.8337 15.8754 22.9934 15.8798C23.4059 15.8814 24.0809 15.8079 24.4934 15.7164C25.3776 15.5202 27.8162 14.7878 28.6184 14.4774C28.9278 14.3577 29.7082 14.0654 30.3528 13.8281C30.9973 13.5906 32.7059 12.9171 34.1497 12.3312C35.5934 11.7453 37.2176 11.0906 37.759 10.8762C38.3004 10.6618 39.2027 10.2692 39.7642 10.0037L40.7847 9.52097L40.7298 7.87774C40.6994 6.97389 40.6137 5.96019 40.5387 5.625C40.0754 3.54874 39.0159 1.65489 38.0403 1.15774C37.096 0.676628 36.0988 0.994971 35.6466 1.92189C35.4038 2.41954 35.3131 2.81666 35.0805 4.40066C34.9983 4.96007 34.8368 5.60683 34.7093 5.8878C34.1539 7.11094 32.9574 7.68471 30.9622 7.68471C28.8304 7.68471 27.3529 6.927 26.6354 5.46574C26.4221 5.03139 26.3684 4.79477 26.3684 4.29047V3.6591L26.8522 3.23589C27.4606 2.70369 27.7701 2.09974 27.7004 1.58066C27.6262 1.02789 27.2409 0.510214 26.6992 0.2358C26.2554 0.0108855 26.1591 0 24.6086 0H22.9833L22.5665 0.271157Z" fill="#DDDDDD"/>
</svg>
