<svg width="11" height="11" viewBox="0 0 11 11" fill="none" xmlns="http://www.w3.org/2000/svg">
<path d="M0.271232 10.5665C-0.0645056 10.2308 -0.0926476 9.70873 0.209724 9.31273C2.86018 5.7392 2.86956 4.88167 0.215977 1.54806C-0.0874386 1.16107 -0.0645056 0.606471 0.271232 0.271056C0.61114 -0.0690194 1.15124 -0.0874118 1.54745 0.206401C4.93715 2.76669 5.66911 2.77169 9.3174 0.205347C9.72299 -0.078768 10.2349 -0.0598855 10.5665 0.271181C10.9064 0.611569 10.9304 1.12892 10.6374 1.53425C7.98173 5.09378 7.97339 5.95139 10.6218 9.2803C10.9293 9.68131 10.9116 10.2219 10.5665 10.5666C10.2308 10.9021 9.70005 10.9298 9.29445 10.6266C5.8912 8.07102 5.16863 8.06601 1.52973 10.6417C1.11058 10.9211 0.597586 10.8929 0.271232 10.5665Z" fill="black"/>
</svg>
