<svg width="39" height="39" viewBox="0 0 39 39" fill="none" xmlns="http://www.w3.org/2000/svg">
<path fill-rule="evenodd" clip-rule="evenodd" d="M16.0928 0.135394C15.2032 0.271293 12.9267 0.827142 12.467 1.02065C12.2213 1.12414 12.3374 1.14482 13.5383 1.21208C15.8972 1.34427 16.8497 1.68891 17.9508 2.8084C18.6805 3.55042 19.0719 4.25363 19.4049 5.42059C19.7034 6.46729 19.6851 8.01736 19.3588 9.32161C19.231 9.83233 19.1336 10.2519 19.1423 10.254C19.151 10.2562 19.6179 10.4145 20.18 10.6059C20.7419 10.7972 21.2436 10.9629 21.2946 10.974C21.3457 10.985 22.1399 9.48922 23.0595 7.64996C25.6282 2.51285 26.1825 1.35327 26.1042 1.28249C25.9863 1.17577 24.33 0.655416 23.4464 0.447596C22.9951 0.341333 22.1398 0.194194 21.5457 0.120438C20.1997 -0.0464846 17.2298 -0.0384036 16.0928 0.135394ZM28.5153 2.52418C28.4695 2.58457 28.0655 3.40719 27.6176 4.35236C27.1696 5.29753 26.1175 7.41828 25.2797 9.06517C24.4418 10.7121 23.7563 12.0943 23.7563 12.1369C23.7563 12.1794 24.1011 12.3539 24.5226 12.5247C25.3556 12.8622 26.4058 13.4022 27.1615 13.8816C27.7178 14.2345 27.6308 14.2856 28.3604 13.1769C28.9879 12.2232 30.851 10.3744 31.8377 9.72642C32.7009 9.15944 33.6685 8.65373 34.3922 8.39143C34.6477 8.29882 34.8934 8.19113 34.9382 8.15223C35.1166 7.99728 33.2514 5.87092 31.9073 4.69678C31.252 4.12441 30.0161 3.24527 29.1674 2.74784C28.7512 2.50401 28.5763 2.44401 28.5153 2.52418ZM8.05772 3.53063C5.67518 5.24699 3.97053 7.1178 2.53223 9.59461C1.93437 10.6241 1.18382 12.2294 1.18382 12.4783C1.18382 12.5817 1.30488 12.5709 1.81084 12.4224C2.15574 12.3212 3.73367 11.9078 5.31746 11.5038C9.83387 10.3518 12.935 9.83288 15.3035 9.83288H16.4273L16.5627 9.50909C16.8182 8.89739 16.9219 8.20535 16.9245 7.09262C16.927 6.06405 16.9072 5.93483 16.6675 5.42059C16.3654 4.77212 15.9651 4.32318 15.4425 4.04644C15.1022 3.86627 14.8369 3.84155 12.2831 3.75263L9.49522 3.65569L9.1713 3.30871L8.8473 2.96178L8.05772 3.53063ZM35.495 10.7496C34.6069 11.1017 33.4772 11.7169 32.8907 12.1681C31.8792 12.946 30.6731 14.3162 30.0656 15.3777L29.8427 15.7671L30.0274 15.9995C32.3334 18.9017 33.5914 21.6548 35.3707 27.6929C35.5954 28.4554 35.8186 29.0514 35.8731 29.0346C36.0753 28.9725 37.237 26.4559 37.6858 25.1081C38.3865 23.0025 38.5542 21.9208 38.5631 19.4471C38.5708 17.3114 38.5109 16.7306 38.0973 14.9419C37.6841 13.1567 36.6246 10.5649 36.2847 10.5084C36.2145 10.4967 35.8591 10.6053 35.495 10.7496ZM14.235 12.4012C14.0817 12.4192 13.5592 12.479 13.0738 12.5342C11.7474 12.6851 8.36733 13.3183 6.89662 13.6913C4.00761 14.424 0.450754 15.4583 0.299411 15.6096C0.223145 15.6859 0.0689573 17.2744 0.0143483 18.5471C-0.068542 20.4767 0.221956 23.492 0.519291 23.7894C0.744819 24.0149 4.53412 22.4403 6.15349 21.4481C8.9583 19.7297 12.4705 16.3301 14.546 13.3248C14.8602 12.8696 15.1174 12.462 15.1174 12.4191C15.1174 12.3427 14.7935 12.3361 14.235 12.4012ZM17.8761 12.8286C17.8071 12.9436 17.5885 13.3093 17.3901 13.6414C16.297 15.4708 14.9331 17.1695 12.982 19.1315C10.7369 21.3892 9.5179 22.3688 7.27009 23.7216C5.85667 24.5723 4.93957 25.0091 2.87907 25.813C2.0489 26.1369 1.3696 26.4407 1.3696 26.4882C1.3696 26.5357 1.57937 27.0094 1.83573 27.5409C2.76956 29.477 4.2232 31.4587 5.88559 33.0618C7.02397 34.1595 8.91567 35.5711 9.01839 35.3993C9.04081 35.362 9.21182 34.8088 9.39832 34.1702C10.3338 30.9688 11.1614 29.2461 13.7723 25.0661C15.5889 22.1575 16.5422 20.4918 18.3432 17.0784C19.5338 14.8221 20.2264 13.4467 20.2264 13.3391C20.2264 13.2444 18.3514 12.6196 18.0674 12.6196C18.031 12.6196 17.9449 12.7136 17.8761 12.8286ZM22.4475 14.6384C22.3265 14.9568 20.8027 17.9983 19.9254 19.6724C18.9102 21.6099 17.6658 23.7515 15.9272 26.5532C13.3204 30.7539 12.3969 32.8249 11.6932 36.0474L11.5166 36.8562L12.1326 37.0887C15.2631 38.2704 19.0102 38.6343 22.3164 38.0778C23.4601 37.8852 25.7849 37.286 25.9242 37.1477C25.9671 37.1052 25.8323 36.6164 25.6245 36.0616C24.1725 32.1832 23.849 27.6443 24.6888 22.9305C25.0552 20.8737 25.8124 18.2433 26.4858 16.6878L26.6348 16.3436L26.1013 16.0354C25.4468 15.6575 22.7806 14.3845 22.6434 14.3845C22.5888 14.3845 22.5006 14.4988 22.4475 14.6384ZM28.4569 18.8665C28.1277 19.762 27.6619 21.4726 27.4387 22.6054C26.9981 24.8417 26.9607 25.2722 26.9665 28.0394C26.9718 30.5331 26.987 30.7624 27.2264 31.9873C27.4914 33.3425 27.9598 34.8798 28.3297 35.6076L28.5456 36.0322L29.3488 35.5534C30.5639 34.829 31.689 33.9526 32.7304 32.9192C33.8297 31.8285 34.0716 31.5021 33.874 31.3771C33.8013 31.3312 33.7107 31.2826 33.6724 31.2689C33.6341 31.2553 33.398 30.4709 33.1476 29.5257C32.0195 25.2677 30.5749 21.5214 29.1626 19.1916C28.9226 18.7957 28.6983 18.4717 28.6641 18.4717C28.6299 18.4717 28.5367 18.6493 28.4569 18.8665Z" fill="#DDDDDD"/>
</svg>
