<svg width="6" height="7" viewBox="0 0 6 7" fill="none" xmlns="http://www.w3.org/2000/svg">
<path d="M2.76246 0.00016384C3.88948 -0.0130676 5.0363 0.776271 5.52364 1.94491C5.7817 2.52693 5.83467 3.21925 5.6692 3.88291C5.4884 4.53562 5.09803 5.09782 4.60182 5.53001C4.08789 5.94228 3.45062 6.23109 2.76027 6.27082C2.07659 6.2973 1.34662 6.0503 0.876904 5.58287C-0.084641 4.7186 -0.32289 3.12667 0.501962 2.28221C0.237334 3.367 0.837179 4.30404 1.53628 4.75604C2.23758 5.20146 3.09768 5.0361 3.73287 4.49151C4.39006 3.95569 4.71203 3.14877 4.52237 2.27554C4.33052 1.40686 3.7263 0.538158 2.76246 0.00016384Z" fill="black"/>
</svg>
