<svg width="30" height="30" viewBox="0 0 30 30" fill="none" xmlns="http://www.w3.org/2000/svg">
<path fill-rule="evenodd" clip-rule="evenodd" d="M29.3333 14.6667C29.3333 22.7669 22.7669 29.3333 14.6667 29.3333C6.56649 29.3333 0 22.7669 0 14.6667C0 6.56649 6.56649 0 14.6667 0C22.7669 0 29.3333 6.56649 29.3333 14.6667ZM24.3745 15.2621C24.4273 15.0682 24.4523 14.8676 24.4493 14.6667C24.4343 14.2538 24.3001 13.854 24.0629 13.5157C23.8258 13.1775 23.4958 12.9149 23.1128 12.76C22.7299 12.6049 22.3104 12.564 21.9047 12.6423C21.499 12.7202 21.1246 12.914 20.8267 13.2C20.4123 12.9184 19.9782 12.6669 19.5276 12.4476C18.6256 12.0082 17.6647 11.7011 16.6749 11.5361C16.1806 11.4536 15.6809 11.4066 15.18 11.396L16.1333 6.82L19.272 7.48C19.349 8.19647 19.9353 8.75087 20.6551 8.7879C21.3745 8.82493 22.0147 8.3336 22.1646 7.62887C22.315 6.92413 21.9307 6.21463 21.2586 5.95503C20.5865 5.69543 19.8253 5.96237 19.4627 6.58533L15.8693 5.86667C15.8107 5.85383 15.7498 5.85273 15.6908 5.86337C15.6314 5.87437 15.5749 5.89673 15.5243 5.92937C15.4741 5.962 15.4304 6.00453 15.3967 6.05403C15.3626 6.1039 15.3388 6.15963 15.3267 6.21867L14.2413 11.308C13.7342 11.3157 13.2282 11.3601 12.7277 11.4411C12.2272 11.5221 11.733 11.6391 11.2493 11.7916C10.7657 11.9442 10.2938 12.1319 9.8373 12.3526C9.38091 12.5737 8.94111 12.8275 8.52133 13.112C8.29521 12.8993 8.02555 12.7384 7.731 12.6401C7.43648 12.542 7.12411 12.509 6.8156 12.5437C6.50712 12.5781 6.20983 12.6792 5.94435 12.8401C5.67886 13.0009 5.45155 13.2176 5.27817 13.475C5.10464 13.7326 4.98918 14.0246 4.93981 14.3312C4.89042 14.6379 4.90829 14.9514 4.99217 15.2504C5.07619 15.5492 5.22414 15.8263 5.42579 16.0622C5.62742 16.2983 5.87794 16.4877 6.16 16.6173C6.15597 16.6709 6.15267 16.7248 6.15083 16.7787C6.14642 16.8861 6.14642 16.9939 6.15083 17.1013C6.15267 17.1552 6.15597 17.2091 6.16 17.2627C6.16 20.548 9.988 23.2173 14.7107 23.2173C19.4333 23.2173 23.2613 20.548 23.2613 17.2627C23.2654 17.2091 23.2687 17.1552 23.2705 17.1013C23.2749 16.9939 23.2749 16.8861 23.2705 16.7787C23.2687 16.7248 23.2654 16.6709 23.2613 16.6173C23.4414 16.5279 23.6078 16.4135 23.756 16.2774C23.9041 16.1414 24.0324 15.9852 24.1369 15.8136C24.2418 15.642 24.3217 15.4561 24.3745 15.2621ZM10.2124 17.1703C10.076 17.0342 9.9682 16.8725 9.89413 16.6947C9.82043 16.5165 9.78267 16.3258 9.78267 16.1333C9.78267 15.5401 10.1402 15.0055 10.688 14.7781C11.2361 14.5512 11.8668 14.6769 12.2863 15.0964C12.7057 15.5159 12.8315 16.1465 12.6045 16.6947C12.3772 17.2425 11.8426 17.6 11.2493 17.6C11.0566 17.6 10.866 17.5622 10.688 17.4885C10.5101 17.4145 10.3484 17.3067 10.2124 17.1703ZM18.414 19.9371C18.4125 20.042 18.3696 20.1421 18.2945 20.2154L18.304 20.1667C18.0462 20.361 17.7723 20.5326 17.4852 20.68C16.9097 20.975 16.2879 21.1688 15.6468 21.2531C15.3267 21.2949 15.0036 21.3092 14.6813 21.296C14.359 21.3092 14.036 21.2949 13.7159 21.2531C13.3958 21.2109 13.0801 21.1416 12.7721 21.0456C12.4641 20.9495 12.1645 20.8274 11.8774 20.68C11.5903 20.5326 11.3164 20.361 11.0587 20.1667C10.9963 20.0908 10.9644 19.9943 10.9692 19.8961C10.974 19.7978 11.0154 19.705 11.0847 19.6354C11.1544 19.5661 11.2471 19.5246 11.3454 19.5199C11.4437 19.5151 11.5401 19.547 11.616 19.6093C11.8345 19.7696 12.0663 19.9111 12.3086 20.0321C12.551 20.1531 12.8029 20.2536 13.0625 20.332C13.3217 20.4109 13.5872 20.4673 13.856 20.5007C14.1247 20.5344 14.3961 20.5454 14.6667 20.5333C14.9376 20.548 15.2093 20.5399 15.4792 20.5088C15.7487 20.4776 16.0153 20.4237 16.2756 20.3478C16.5361 20.2717 16.7899 20.1736 17.0339 20.0548C17.2779 19.936 17.5114 19.7969 17.732 19.6387C17.8167 19.5752 17.9179 19.5345 18.0231 19.536C18.128 19.5375 18.2281 19.5804 18.3014 19.6555C18.3748 19.7307 18.4155 19.8319 18.414 19.9371ZM18.605 17.6048C18.4213 17.681 18.2241 17.7195 18.0253 17.7173L18.04 17.6587C17.4467 17.6587 16.9121 17.3012 16.6848 16.7534C16.4578 16.2052 16.5836 15.5745 17.0031 15.1551C17.4225 14.7356 18.0532 14.6098 18.6014 14.8368C19.1492 15.0641 19.5067 15.5987 19.5067 16.192C19.5147 16.3907 19.4821 16.5889 19.411 16.7746C19.3398 16.9605 19.232 17.1299 19.0934 17.2726C18.9548 17.4152 18.7887 17.5281 18.605 17.6048Z" fill="white"/>
</svg>
