<svg width="13" height="28" viewBox="0 0 13 28" fill="none" xmlns="http://www.w3.org/2000/svg">
<path d="M11.4488 5.77982C11.0703 2.32256 6.76931 -0.0323022 3.98123 1.89475C2.60283 2.74807 1.57789 4.25847 1.4632 5.85031C1.35059 7.44892 2.17533 9.06943 2.99382 10.7011C3.78103 12.3172 4.66313 14.2906 4.22417 16.372C3.7654 18.3939 2.47979 19.8602 1.61543 21.3837C1.18272 22.1488 0.838646 22.9602 0.766702 23.7959C0.695801 24.6139 0.923088 25.4959 1.44338 26.1396C1.94594 26.7989 2.83743 27.1561 3.64236 26.7791C4.41394 26.4703 5.12815 25.5885 4.78929 24.6756C5.26266 25.5444 4.62768 26.6357 3.77478 27.0568C3.34625 27.295 2.8197 27.392 2.30776 27.2796C1.81562 27.1605 1.35893 26.8871 1.00859 26.5211C0.316265 25.7736 -0.0121689 24.7638 0.000343323 23.7562C0.0232821 22.7464 0.365272 21.8026 0.775039 20.945C1.59562 19.2274 2.79051 17.7832 3.0689 16.1428C3.3598 14.5265 2.62784 12.9059 1.77807 11.303C0.99086 9.68908 -0.014267 7.89205 0.110852 5.75115C0.282892 3.66311 1.53409 1.77349 3.32018 0.772531C5.08228 -0.310068 7.47728 -0.226341 9.17266 0.845204C10.8753 1.88599 12.1151 3.72702 12.1641 5.73123L11.4488 5.77982Z" fill="black"/>
</svg>
