<svg width="17" height="13" viewBox="0 0 17 13" fill="none" xmlns="http://www.w3.org/2000/svg">
<path fill-rule="evenodd" clip-rule="evenodd" d="M15.5556 3.54188L14.2504 5.17331C14.2414 5.11535 14.2315 5.05766 14.2209 5.00006C14.0526 4.08962 13.6786 3.22436 13.1216 2.47268C12.3415 1.41995 11.2437 0.645861 9.99027 0.264531C8.73675 -0.116799 7.39386 -0.0851189 6.15969 0.354801C5.27841 0.668991 4.48596 1.17938 3.83913 1.84187C3.58029 2.10692 3.34485 2.39636 3.13623 2.70731L4.05864 3.32669C4.65561 2.43641 5.52312 1.76159 6.53283 1.40159C7.54254 1.04168 8.64126 1.01576 9.66681 1.32779C10.6924 1.63973 11.5905 2.27306 12.2287 3.13436C12.7673 3.8612 13.0968 4.71782 13.1865 5.61188L10.742 3.98216L10.1257 4.90664L13.4591 7.12892L13.8828 7.41143L14.201 7.01372L16.4232 4.23596L15.5556 3.54188ZM2.22219 5.20877L0 7.98653L0.86769 8.68061L2.17296 7.049C2.18196 7.10687 2.19177 7.16465 2.20239 7.22225C2.37078 8.1326 2.74473 8.99786 3.30174 9.74954C4.08186 10.8023 5.17959 11.5764 6.43311 11.9577C7.68663 12.339 9.02952 12.3073 10.2637 11.8674C11.1449 11.5532 11.9374 11.0428 12.5842 10.3804C12.8432 10.1151 13.0789 9.82541 13.2875 9.51428L12.3646 8.89544C11.7678 9.78581 10.9003 10.4607 9.89046 10.8206C8.88084 11.1805 7.78212 11.2065 6.75657 10.8944C5.73102 10.5825 4.83282 9.94916 4.19463 9.08795C3.65607 8.3612 3.32667 7.50458 3.23685 6.6107L5.68125 8.24024L6.29757 7.31576L2.96424 5.09357L2.54043 4.81097L2.22219 5.20877Z" fill="white"/>
</svg>
