<svg width="8" height="12" viewBox="0 0 8 12" fill="none" xmlns="http://www.w3.org/2000/svg">
<path d="M1.33333 9.33331C0.6 9.33331 0 9.93331 0 10.6667C0 11.4 0.6 12 1.33333 12C2.06666 12 2.66666 11.4 2.66666 10.6667C2.66666 9.93331 2.06666 9.33331 1.33333 9.33331ZM5.99999 2.66667C6.7333 2.66667 7.3333 2.06667 7.3333 1.33333C7.3333 0.6 6.7333 0 5.99999 0C5.26668 0 4.66668 0.6 4.66668 1.33333C4.66668 2.06667 5.26668 2.66667 5.99999 2.66667ZM1.33333 4.66667C0.6 4.66667 0 5.26667 0 6C0 6.73331 0.6 7.33331 1.33333 7.33331C2.06666 7.33331 2.66666 6.73331 2.66666 6C2.66666 5.26667 2.06666 4.66667 1.33333 4.66667ZM5.99999 4.66667C5.26668 4.66667 4.66668 5.26667 4.66668 6C4.66668 6.73331 5.26668 7.33331 5.99999 7.33331C6.7333 7.33331 7.3333 6.73331 7.3333 6C7.3333 5.26667 6.7333 4.66667 5.99999 4.66667ZM5.99999 9.33331C5.26668 9.33331 4.66668 9.93331 4.66668 10.6667C4.66668 11.4 5.26668 12 5.99999 12C6.7333 12 7.3333 11.4 7.3333 10.6667C7.3333 9.93331 6.7333 9.33331 5.99999 9.33331ZM1.33333 0C0.6 0 0 0.6 0 1.33333C0 2.06667 0.6 2.66667 1.33333 2.66667C2.06666 2.66667 2.66666 2.06667 2.66666 1.33333C2.66666 0.6 2.06666 0 1.33333 0Z" fill="white"/>
</svg>
