<svg width="18" height="10" viewBox="0 0 18 10" fill="none" xmlns="http://www.w3.org/2000/svg">
<path d="M17.8532 5.10874C15.9065 3.22142 13.4542 1.90724 10.8652 1.29207C8.31801 0.685759 5.43922 0.597551 3.27569 1.88962C2.75749 2.21149 2.27889 2.63492 1.95045 3.10015C1.62827 3.58082 1.42078 4.1474 1.33945 4.72514C1.15177 5.88042 1.5386 7.12181 2.43112 7.65096C3.28715 8.22641 4.63011 8.05229 5.36936 7.33128C5.74159 6.97626 6.00224 6.46473 6.10964 5.90909C6.23163 5.30716 6.01476 4.87946 6.19827 4.0129C7.13354 4.28629 7.21279 5.26754 7.2034 6.01492C7.18151 6.81089 6.87913 7.62229 6.29524 8.23965C5.11495 9.46562 3.16307 9.6949 1.70751 8.79529C0.22797 7.84063 -0.195339 5.99949 0.0778389 4.51786C0.223812 3.75714 0.528257 3.02956 0.99954 2.40115C1.49168 1.77722 2.08288 1.32074 2.73559 0.952577C4.05038 0.242627 5.50802 0 6.91458 0C8.33052 0.00886265 9.71309 0.240332 11.0477 0.639464C13.7055 1.45962 16.1203 2.98546 17.9554 5.01615L17.8532 5.10874Z" fill="black"/>
</svg>
