<svg width="32" height="40" viewBox="0 0 32 40" fill="none" xmlns="http://www.w3.org/2000/svg">
<path fill-rule="evenodd" clip-rule="evenodd" d="M6.98434 0.135952C6.29584 0.322681 5.64497 0.620795 5.15061 0.976038C3.54176 2.13177 2.14037 4.07007 1.33106 6.25882C1.00003 7.15398 0.994672 7.19148 0.989529 8.62154C0.985029 9.90279 1.00903 10.1399 1.19267 10.6266C1.63834 11.8071 2.63559 12.9206 3.75047 13.4828C4.13734 13.678 4.54817 13.8622 4.66329 13.8923C4.9515 13.9677 5.0625 14.3205 5.0625 15.1612V15.8762L5.88326 16.6785C7.55379 18.3114 8.87014 19.5517 9.2442 19.8452L9.62884 20.1469L9.68884 19.3764C9.72184 18.9526 9.7494 18.2262 9.75017 17.7622C9.7509 17.2981 9.79359 16.5517 9.84493 16.1033L9.93831 15.2883L9.2814 14.1596C8.92011 13.5389 8.51353 12.8047 8.37776 12.5279L8.13111 12.0248L8.55103 11.331C9.46131 9.82707 10.1234 8.36427 10.3641 7.32498C10.6594 6.04951 10.7243 5.90277 10.9923 5.90277C11.1106 5.90277 11.4761 6.06104 11.8046 6.25432C12.7252 6.79621 13.4421 7.86224 13.7349 9.12485L13.8796 9.74851L13.5134 10.2397C12.1855 12.0207 11.5456 15.099 11.4816 20.0122C11.4511 22.3628 11.4769 23.0016 11.6714 24.6966C11.7726 25.5791 12.325 26.2307 13.1935 26.4922C13.7511 26.6599 17.1954 26.6735 17.7408 26.5101C17.9454 26.4487 18.3194 26.2129 18.5718 25.9859C19.2966 25.3343 19.3881 24.8722 19.4692 21.4524C19.5375 18.5743 19.4001 16.6585 18.9388 14.052C18.6883 12.6367 18.0477 11.0261 17.4004 10.1843L17.0523 9.73154L17.3389 8.84109C17.4966 8.35132 17.7319 7.76924 17.8618 7.54762C18.2299 6.91951 19.0068 6.24168 19.6231 6.01115C19.9202 5.89998 20.1808 5.80904 20.2023 5.80904C20.2605 5.80904 20.4211 6.40548 20.6284 7.3921C20.8116 8.26295 21.2552 9.22059 22.5172 11.4695L22.8791 12.1144L22.6077 12.5476C22.4584 12.7859 22.0414 13.5082 21.6812 14.1528L21.0259 15.3247L21.0983 16.1684C21.1382 16.6325 21.2006 17.6872 21.2371 18.5122C21.2736 19.3372 21.3184 20.0286 21.3367 20.0486C21.4011 20.1195 22.038 19.5727 23.3631 18.3089C24.1001 17.606 24.9668 16.7977 25.2891 16.5127L25.875 15.9945V15.1582C25.875 14.3481 25.8839 14.3135 26.1588 14.0567C26.3148 13.9108 26.5675 13.7641 26.7203 13.7305C27.0946 13.6484 28.2786 12.8567 28.7 12.407C29.1513 11.9252 29.4949 11.3585 29.7941 10.6018C30.0187 10.034 30.0394 9.86877 30.036 8.66838C30.0326 7.4986 30.0045 7.27171 29.7772 6.58124C29.3951 5.42007 29.0391 4.68357 28.3722 3.67398C27.3321 2.09971 26.0744 0.980324 24.6301 0.343681C24.0142 0.0721812 23.8666 0.0451813 22.9939 0.0443413C22.035 0.0434027 22.0348 0.0434967 21.7283 0.350152C21.4374 0.641238 21.4221 0.691296 21.4268 1.33454C21.4324 2.10854 21.8148 3.5626 22.4292 5.14612C22.8393 6.20324 23.1751 7.39012 23.0988 7.51351C23.0229 7.63629 22.7466 7.60257 22.5182 7.44245C22.2811 7.27638 21.5881 5.95818 21.142 4.82465C20.8522 4.08824 20.8405 4.07409 20.4978 4.04529C18.6639 3.89127 16.5847 5.61879 15.7494 7.99077C15.6546 8.26029 15.5481 8.48088 15.513 8.48088C15.4778 8.48088 15.3502 8.21795 15.2295 7.89657C14.3577 5.57774 12.6666 4.16838 10.5636 4.00818L10.2052 3.98088L9.89867 4.73088C9.51767 5.66285 8.74706 7.20682 8.55334 7.42621C8.37429 7.62888 8.12434 7.63715 7.96534 7.44562C7.8114 7.2601 7.90106 6.89868 8.48726 5.34027C9.04667 3.85312 9.43303 2.56827 9.57253 1.73088C9.70573 0.931124 9.56143 0.482452 9.0759 0.186481C8.70411 -0.040319 7.7217 -0.0639418 6.98434 0.135952ZM1.71279 16.2812C1.36753 16.348 1.09997 16.7705 1.15264 17.1657C1.21676 17.6467 1.94109 19.208 2.58497 20.2527C3.21261 21.2714 4.51367 22.6371 5.39061 23.1978C6.65914 24.0089 8.28411 24.5541 9.44353 24.5578L9.84017 24.559L9.79714 24.1606C9.77353 23.9415 9.72964 23.5235 9.69956 23.2317L9.64487 22.7013L9.01817 22.5921C6.45664 22.1461 4.77553 20.7195 3.34384 17.777C2.60987 16.2685 2.46523 16.1359 1.71279 16.2812ZM28.5394 16.3447C28.3761 16.4179 28.186 16.6112 28.1016 16.79C28.0196 16.9637 27.8007 17.4398 27.6152 17.848C26.6123 20.0536 24.8523 21.7712 23.0156 22.3365C22.7578 22.4158 22.2677 22.5302 21.9265 22.5907L21.3062 22.7005L21.2468 23.2686C21.2142 23.581 21.1875 24.0053 21.1875 24.2117V24.5868L21.9141 24.5305C24.0802 24.3627 26.3839 22.9837 27.9748 20.9028C28.7134 19.9365 29.7388 17.8552 29.7909 17.2161C29.825 16.7968 29.8 16.7025 29.606 16.5214C29.3158 16.2505 28.9024 16.182 28.5394 16.3447ZM0.246643 21.4678C0.102557 21.6391 0 21.8756 0 22.0368C0 22.5088 0.724372 23.534 1.90303 24.7297C2.82767 25.6679 3.40179 26.1209 4.27247 26.5995C5.76981 27.4226 7.12264 27.7465 9.0627 27.7465C9.75823 27.7465 10.3008 27.7833 10.2729 27.8285C10.1724 27.9911 9.21784 28.3821 8.44311 28.5778C7.46276 28.8256 6.76873 28.8283 5.63417 28.5888C4.55126 28.3602 4.29617 28.357 4.03573 28.5678C3.75759 28.793 3.67234 29.4422 3.87947 29.7582C4.089 30.0781 4.4439 30.2451 5.4117 30.4792C6.56897 30.759 7.91961 30.7464 9.04684 30.4453L9.89061 30.2199L9.96579 29.7097C10.1032 28.7778 10.3124 27.9865 10.5505 27.498L10.7859 27.015L10.432 26.5026L10.0781 25.9902L8.95311 25.9427C6.08987 25.8217 3.97761 24.6367 1.96084 22.02C1.3689 21.252 1.34117 21.2302 0.922972 21.2029C0.540257 21.1778 0.4662 21.2068 0.246643 21.4678ZM29.6162 21.2985C29.5339 21.3644 29.1303 21.8403 28.7193 22.3559C26.7906 24.7756 24.8836 25.7698 21.8437 25.9401L20.8593 25.9953L20.5012 26.5421C20.1131 27.1347 20.1057 27.3704 20.4681 27.5987C20.9744 27.9175 22.9721 27.8471 24.5625 27.4544C26.8849 26.8808 29.0098 25.2636 30.6897 22.7907C31.0858 22.2077 31.1203 21.8605 30.8172 21.5081C30.5676 21.2181 29.8684 21.096 29.6162 21.2985ZM20.6662 28.1291C20.7055 28.2539 20.8128 28.7497 20.9047 29.2309C20.9966 29.7121 21.1125 30.1465 21.1622 30.1962C21.2118 30.2459 21.6492 30.3683 22.1341 30.4684C23.6583 30.7829 25.3876 30.6793 26.6361 30.1987C27.2739 29.9533 27.5026 29.0677 27.0391 28.6382C26.7131 28.336 26.5058 28.3197 25.7343 28.5353C25.2462 28.6718 24.79 28.7182 23.9531 28.7163C22.9108 28.7139 22.7592 28.6895 21.8906 28.3847C21.375 28.2037 20.8725 28.0212 20.7739 27.979C20.6173 27.912 20.6038 27.9307 20.6662 28.1291ZM12.3563 28.2856C11.4806 29.2216 11.1647 31.6111 11.6776 33.4184C11.8093 33.8825 11.9252 34.3405 11.9351 34.4362C11.9489 34.5697 11.6643 34.7671 10.7189 35.28C9.36861 36.0126 9.09373 36.2164 9.09373 36.4848C9.09373 36.9308 9.41211 37.9892 9.65803 38.3603C10.1593 39.1175 10.7997 39.3412 12.7992 39.459C13.5799 39.5053 14.2166 39.5863 14.2923 39.6489C14.5318 39.8478 19.117 39.5255 20.0896 39.2413C21.1116 38.9431 21.7754 38.0065 21.7896 36.8435L21.7968 36.2373L21.3435 35.9388C21.0941 35.7745 20.4488 35.4145 19.9097 35.1387C19.0799 34.7142 18.9367 34.6083 18.9776 34.4496C19.0042 34.3465 19.1304 33.8825 19.2581 33.4184C19.6803 31.8839 19.5397 30.0191 18.9127 28.8378C18.7458 28.5232 18.4968 28.2037 18.3593 28.1273C18.136 28.0035 18.0544 28.0059 17.5958 28.1505C16.8945 28.3716 14.0081 28.387 13.3936 28.173C12.8157 27.9718 12.6312 27.9918 12.3563 28.2856ZM14.2568 29.7748C14.013 30.0847 14.0143 30.1304 14.2734 30.3797C14.6048 30.6985 15.4684 31.0592 16.0076 31.1039C16.8106 31.1706 17.0101 30.8261 16.5031 30.2487C16.293 30.0095 16.0578 29.8825 15.5421 29.7295C14.6628 29.4689 14.4926 29.4749 14.2568 29.7748ZM14.2926 32.3829C14.1661 32.5095 14.0625 32.6708 14.0625 32.7415C14.0625 32.9598 14.467 33.2647 15.0988 33.5229C16.0279 33.9025 16.5913 33.8431 16.7198 33.3519C16.7969 33.057 16.2794 32.6182 15.5541 32.3637C14.7894 32.0953 14.577 32.0985 14.2926 32.3829Z" fill="#DDDDDD"/>
</svg>
