<svg width="6" height="6" viewBox="0 0 6 6" fill="none" xmlns="http://www.w3.org/2000/svg">
<path d="M4.41082 5.11169C5.31731 4.1636 5.21367 2.61128 4.47703 1.83522C4.10876 1.44495 3.57064 1.23548 3.04128 1.21119C2.50765 1.1869 2.00696 1.35675 1.63431 1.62346L1.55924 1.67862L1.46446 1.71615C1.45122 1.72053 1.39606 1.75807 1.36739 1.83074C1.33434 1.90133 1.3432 1.96306 1.34091 1.98735C1.33653 2.01154 1.36082 2.09975 1.44903 2.17034C1.49095 2.20787 1.54162 2.24311 1.59678 2.26511C1.66069 2.30046 1.70928 2.40629 1.98277 2.63557C2.05326 2.9906 1.86808 3.17129 1.69385 3.23083C1.51076 3.27723 1.31891 3.28599 1.13143 3.25731C0.760872 3.19559 0.368414 2.97288 0.15446 2.56061C-0.0573053 2.14823 -0.0330124 1.69186 0.116923 1.3214C0.269152 0.951045 0.566833 0.604881 1.00798 0.448273L0.838133 0.538776C1.53724 0.0183822 2.4282 -0.0896382 3.20008 0.064676C3.97864 0.216801 4.70642 0.648985 5.15852 1.30378C6.06928 2.63338 5.62605 4.4348 4.49684 5.21971L4.41082 5.11169Z" fill="black"/>
</svg>
