<svg width="40" height="41" viewBox="0 0 40 41" fill="none" xmlns="http://www.w3.org/2000/svg">
<path fill-rule="evenodd" clip-rule="evenodd" d="M30.7031 0.224322C30.3456 0.391667 29.8416 0.853311 28.58 2.16868C27.6702 3.11737 26.8945 3.92398 26.8563 3.9611C26.8181 3.99821 27.0562 4.28831 27.3856 4.60563C27.7149 4.92298 28.807 5.99218 29.8125 6.98163C31.6066 8.74713 35.1386 12.1143 35.4602 12.3657C35.607 12.4805 35.7846 12.3297 37.226 10.8654C39.0862 8.97568 39.3095 8.62395 39.3031 7.59418C39.2962 6.46348 39.2307 6.37545 36.0675 3.25378C33.9636 1.1774 33.1137 0.399449 32.7656 0.231261C32.1325 -0.0745507 31.3471 -0.0772719 30.7031 0.224322ZM22.4449 8.46898C20.301 10.64 19.0518 11.923 15.8527 15.24C15.0585 16.0636 13.2432 17.9186 11.8188 19.3624C9.48343 21.7293 4.16679 27.1909 2.32753 29.1124C1.755 29.7105 1.5969 29.9383 1.54697 30.2374C1.51256 30.4436 1.36273 31.2662 1.21414 32.0655C0.396472 36.4628 0 38.7767 0 39.1513C0 39.9523 0.465172 40.5814 1.20459 40.7803C1.63397 40.896 1.62467 40.8986 6.09373 39.4418C7.9242 38.8453 9.6117 38.3092 9.84373 38.2505C10.4936 38.0863 10.9637 37.7686 11.6664 37.0187C12.5979 36.0246 14.9167 33.6448 18.091 30.4249C20.2527 28.2321 26.2365 22.0812 26.7643 21.5093C26.8166 21.4526 28.4203 19.8139 30.3281 17.8675C32.2359 15.9212 33.809 14.277 33.8239 14.2136C33.8463 14.1188 33.1721 13.464 31.911 12.3558C31.7134 12.1821 31.7056 12.1885 30.0364 13.8968C25.4756 18.5646 24.4005 19.6678 23.0197 21.0967C19.7577 24.4725 17.8326 26.4373 14.7345 29.5528L11.4996 32.8057L11.2493 32.6275C10.6619 32.2092 10.6427 32.2554 11.9632 30.9112C12.6312 30.2312 14.2959 28.5358 15.6624 27.1436C17.029 25.7514 19.2873 23.4522 20.6811 22.0342C22.0747 20.6163 23.8656 18.7811 24.6606 17.9561C25.4557 17.1311 27.0947 15.4566 28.3027 14.2352L30.4993 12.0142L30.5403 11.5164L30.5813 11.0186L29.7047 10.1552C29.2226 9.68042 28.7437 9.22815 28.6406 9.15037C28.3348 8.91971 27.8245 8.96912 27.4125 9.26943C27.2114 9.41587 25.8671 10.7554 24.4251 12.246C22.9833 13.7365 19.9236 16.8756 17.6257 19.2217C15.328 21.5678 12.1658 24.8072 10.5988 26.4206L7.74943 29.3538L7.38926 29.002C7.19109 28.8085 7.04006 28.6202 7.05356 28.5834C7.07503 28.5251 9.0087 26.5359 15.3261 20.0737C16.2037 19.1759 18.8635 16.4759 21.2367 14.0737C23.6099 11.6716 25.8669 9.37451 26.2523 8.96934L26.9531 8.23254L26.1562 7.48254C25.7179 7.07012 25.208 6.61254 25.0231 6.46584L24.6869 6.19901L22.4449 8.46898ZM3.37376 31.5513C3.25826 31.6905 2.91017 33.343 2.52497 35.5808L2.33134 36.7055L2.64223 36.9698C3.37676 37.5946 3.63381 37.842 3.72634 38.0135C3.82179 38.1904 3.85976 38.1849 4.9809 37.835C6.93964 37.2236 8.55159 36.6764 8.63173 36.5957C8.67373 36.5533 8.66417 36.1905 8.61034 35.7894C8.53573 35.2325 8.53967 35.0277 8.62714 34.9222C8.76664 34.7541 8.76326 34.7541 8.29684 34.9221C7.2504 35.2992 6.375 34.8734 6.375 33.9874C6.375 33.3908 6.1785 33.1905 5.59367 33.1905C4.8369 33.1905 4.4142 32.8367 4.40923 32.199C4.40709 31.9234 4.34576 31.7601 4.18929 31.613C3.9375 31.3765 3.54356 31.3467 3.37376 31.5513Z" fill="#DDDDDD"/>
</svg>
