<svg width="44" height="44" viewBox="0 0 44 44" fill="none" xmlns="http://www.w3.org/2000/svg">
<path fill-rule="evenodd" clip-rule="evenodd" d="M1.40623 0.0953611C0.35775 0.513488 0.000188606 2.06664 3.48869e-08 6.20375C-0.000184251 10.8652 0.72975 15.973 1.72826 18.298L2.0652 19.0825L1.74609 19.7785C1.46062 20.401 0.773344 22.4108 0.619877 23.0716C0.566533 23.3014 0.5895 23.3295 0.866439 23.3725C1.03436 23.3987 2.07883 23.551 3.18742 23.7108C7.06668 24.2705 9.81712 24.9141 10.1952 25.3507C10.4755 25.6744 10.4679 26.0932 10.176 26.3849C9.88856 26.6725 9.48853 26.6834 8.47368 26.4316C7.04418 26.0769 4.62836 25.6023 3.46865 25.4484C2.82412 25.3629 2.0145 25.2529 1.66942 25.204C1.32442 25.1551 0.850594 25.1151 0.6165 25.1151C0.231844 25.1151 0.184221 25.1398 0.12066 25.3729C0.0430329 25.6575 0.0188444 28.7295 0.0936601 28.7988C0.119439 28.8227 0.456939 28.7875 0.843656 28.7207C2.47736 28.4384 5.83633 28.1295 7.62476 28.0969L9.20268 28.0682L9.42948 28.3313C9.8685 28.8407 9.63853 29.4605 8.95303 29.6153C8.74676 29.6619 8.07176 29.7263 7.45303 29.7584C6.14795 29.8263 2.91215 30.1335 1.99145 30.277C1.6437 30.3312 1.17995 30.3998 0.960845 30.4294C0.677345 30.4677 0.562783 30.527 0.563816 30.6351C0.567845 31.0523 1.64615 33.0625 2.44723 34.1463C2.47903 34.1893 2.98548 33.952 3.5727 33.619C5.0847 32.7619 6.29533 32.1674 7.99698 31.4467C9.61492 30.7613 9.86345 30.7317 10.2175 31.1818C10.6895 31.7817 10.385 32.1453 8.83526 32.8322C7.22739 33.545 3.65615 35.4268 3.65615 35.5614C3.65615 35.5759 4.1097 35.985 4.66398 36.4705C8.85986 40.1455 13.3122 42.4462 17.953 43.3376C20.7896 43.8823 23.7792 43.764 26.8263 42.9866C30.6985 41.9983 35.0578 39.5627 38.5268 36.449C39.0448 35.9841 39.4687 35.5865 39.4687 35.5654C39.4687 35.3986 34.9962 33.0365 33.8126 32.5781C33.1461 32.32 32.8124 32.0066 32.8124 31.6387C32.8124 31.2808 33.1592 30.9037 33.4872 30.905C34.2698 30.9082 37.6701 32.442 39.9144 33.8045C40.5671 34.2007 40.6176 34.2162 40.7796 34.0695C41.2121 33.6782 42.8295 30.6801 42.6804 30.5469C42.5094 30.3949 38.9729 29.9656 36.5624 29.8044C34.0463 29.6361 34.0138 29.6315 33.7789 29.4108C33.4897 29.1391 33.4818 28.5706 33.7633 28.2892C33.9607 28.0918 34.0027 28.0892 36.1773 28.1443C38.4936 28.2031 41.7131 28.5272 42.8526 28.8164C43.0948 28.8778 43.0965 28.8744 43.1539 28.192C43.2148 27.4708 43.1411 25.7048 43.0335 25.3035C42.9619 25.0362 43.0622 25.0385 41.2031 25.2613C39.6221 25.4509 37.7787 25.7679 35.4607 26.2487C33.6016 26.6343 33.4511 26.6523 33.2107 26.518C32.8114 26.2948 32.682 25.9468 32.8493 25.5464C32.9751 25.2454 33.0488 25.2002 33.7664 24.9847C35.4063 24.4921 38.8185 23.7928 40.4531 23.6141C42.0551 23.4391 42.5569 23.3705 42.6084 23.3191C42.6769 23.2503 41.9741 21.079 41.5356 20.0047L41.1731 19.1175L41.4962 18.296C41.7859 17.559 42.1815 16.1452 42.4605 14.8495C42.5882 14.2564 42.8998 12.1243 43.0296 10.9588C43.1895 9.52107 43.2581 4.69359 43.1372 3.39339C42.8762 0.588767 42.4335 -0.0864175 40.9185 0.0107996C40.1017 0.0632053 39.6769 0.276861 37.453 1.75511C34.7697 3.53859 32.6212 5.25704 30.4686 7.34148C29.8757 7.91559 29.2635 8.49867 29.1081 8.63701L28.8258 8.88854L27.1458 8.47184C22.7653 7.38537 19.4721 7.43598 15.4624 8.65162L14.4648 8.95407L13.2558 7.79345C12.0809 6.66567 9.84365 4.72634 8.91948 4.03462C8.66859 3.84687 8.06718 3.39704 7.58315 3.03499C5.92723 1.79664 3.66695 0.366021 2.98745 0.1263C2.54936 -0.0282946 1.75518 -0.0437618 1.40623 0.0953611ZM3.03142 4.35575C2.94395 4.58375 3.06918 7.74901 3.237 9.55257C3.48206 12.1861 4.02892 15.4588 4.2237 15.4588C4.26986 15.4588 4.60865 15.1951 4.97653 14.8729C5.99148 13.984 7.11579 13.0615 7.66192 12.6698C7.98648 12.437 8.15276 12.2507 8.15409 12.1185C8.15773 11.761 6.68786 8.97622 5.77406 7.60934C4.61456 5.87495 3.5292 4.45822 3.21892 4.27398C3.1365 4.22504 3.0705 4.25384 3.03142 4.35575ZM39.8775 4.42857C39.0243 5.14809 36.8419 8.41175 35.7075 10.6643C35.3013 11.4708 34.9688 12.1558 34.9687 12.1865C34.9687 12.2172 35.2525 12.4492 35.5995 12.7021C35.9464 12.955 36.7338 13.5838 37.3491 14.0995C39.163 15.6197 38.9763 15.4907 39.0807 15.2956C39.2127 15.049 39.6409 12.5575 39.8501 10.8204C40.0446 9.20289 40.2508 5.63551 40.2019 4.73366L40.1719 4.18025L39.8775 4.42857ZM12.2145 18.5973C11.6571 18.7791 11.072 19.2058 10.4741 19.8664C9.1125 21.3711 9.00939 22.7147 10.2655 22.5863C10.5151 22.5607 10.8066 22.2804 11.2963 21.5947C11.7791 20.9188 12.371 20.365 12.8041 20.1841C13.3315 19.9637 14.0641 20.0158 14.6376 20.3144C15.0283 20.5178 15.24 20.7207 15.5865 21.2233C16.0915 21.9561 16.1642 22.0179 16.5233 22.0199C17.0898 22.023 17.3326 21.3434 17.0089 20.6611C16.7532 20.1225 15.7391 19.2392 14.9361 18.8558C14.2865 18.5455 14.1123 18.5035 13.4061 18.4872C12.9336 18.4762 12.4486 18.521 12.2145 18.5973ZM28.6869 18.6335C27.6725 19.0311 26.5507 19.9424 26.2213 20.6366C25.9876 21.1291 26.0148 21.6073 26.2926 21.8849C26.6805 22.273 26.9027 22.1722 27.4974 21.3388C28.3753 20.1084 29.4405 19.7455 30.5501 20.2984C30.8809 20.4632 31.1976 20.7333 31.5122 21.1187C32.6743 22.5428 32.7163 22.5838 33.0112 22.5838C33.3976 22.5838 33.6267 22.444 33.805 22.0992C33.9523 21.8143 33.9474 21.7908 33.595 21.0951C33.1056 20.1289 32.2312 19.21 31.4212 18.811C30.8763 18.5425 30.6999 18.5035 29.9555 18.4869C29.3328 18.4729 28.9977 18.5117 28.6869 18.6335ZM19.3811 23.7156C18.6084 23.9009 18.1874 24.4207 18.1874 25.1893C18.1874 25.5681 18.2385 25.7239 18.4421 25.9659C18.7176 26.2933 19.2418 26.5614 19.812 26.6664C20.3148 26.759 20.3994 26.9847 20.2719 27.8932C19.9426 30.2397 18.0617 31.6387 15.861 31.1738C15.4839 31.0941 14.7021 30.8374 14.1235 30.6032C12.939 30.1239 12.5676 30.0793 12.2848 30.3828C11.6901 31.0211 12.4757 31.794 14.3788 32.4427L15.4218 32.7982L15.6575 33.48C16.3036 35.3492 17.535 36.6113 19.4061 37.3224C20.1655 37.6109 20.2647 37.6252 21.5155 37.6263C22.6998 37.6273 22.8976 37.603 23.5401 37.3768C25.4876 36.6912 26.8343 35.4004 27.5297 33.5526L27.8296 32.7557L28.5182 32.5632C29.5138 32.2847 30.6573 31.6843 30.914 31.3052C31.1935 30.8923 31.18 30.687 30.8516 30.3586C30.6215 30.1285 30.529 30.0947 30.2657 30.145C30.0937 30.1778 29.7871 30.2878 29.5843 30.3893C28.9593 30.7022 28.0374 31.0225 27.3388 31.1697C25.149 31.6306 23.2547 30.2361 22.8713 27.8807C22.719 26.945 22.8017 26.7808 23.4975 26.6371C24.5367 26.4224 25.1108 25.7859 24.9903 24.982C24.9201 24.5138 24.472 23.9274 24.0498 23.7509C23.7045 23.6067 19.9536 23.5783 19.3811 23.7156ZM21.2508 30.385C20.4603 31.6028 19.2136 32.4906 17.9604 32.7283C17.4535 32.8245 17.3436 32.8777 17.3436 33.0267C17.3436 33.3462 18.1003 34.5121 18.4332 34.7056C18.5166 34.7541 18.6861 34.6811 18.9138 34.4989C19.4474 34.0719 20.0229 33.8602 20.953 33.7492C22.2553 33.5936 23.2468 33.7955 24.1405 34.3982L24.703 34.7775L25.038 34.4061C25.2222 34.2018 25.5088 33.7798 25.6748 33.4683L25.9767 32.902L25.7148 32.8441C23.9504 32.4542 23.0192 31.8546 21.9748 30.4359L21.5725 29.8895L21.2508 30.385ZM4.70812 39.7937C3.40068 40.987 3.08156 42.4128 3.91068 43.3565C4.40653 43.9209 4.30445 43.9123 9.89053 43.8733C13.1808 43.8502 13.6803 43.8292 13.3593 43.7259C11.8676 43.2463 7.95039 41.0646 5.89698 39.5697L5.37215 39.1876L4.70812 39.7937ZM36.8475 39.8937C36.3082 40.2752 35.5066 40.8053 35.0662 41.0715C34.0698 41.6739 30.6897 43.3972 30.0131 43.6483L29.5107 43.8343L32.8725 43.8956C36.8907 43.9693 38.5027 43.9093 38.8941 43.6711C39.6221 43.2283 39.9028 42.3622 39.6542 41.3264C39.5557 40.9151 39.4225 40.7167 38.8275 40.0938C38.4373 39.6854 38.0528 39.3173 37.9731 39.2755C37.87 39.2218 37.5442 39.4007 36.8475 39.8937Z" fill="#DDDDDD"/>
</svg>
