<svg width="12" height="12" viewBox="0 0 12 12" fill="none" xmlns="http://www.w3.org/2000/svg">
<path fill-rule="evenodd" clip-rule="evenodd" d="M8.00344 4.49553C8.00344 6.43287 6.43291 8.0034 4.49556 8.0034C2.55818 8.0034 0.987654 6.43287 0.987654 4.49553C0.987654 2.55818 2.55818 0.987654 4.49556 0.987654C6.43291 0.987654 8.00344 2.55818 8.00344 4.49553ZM7.30607 8.00442C6.5363 8.62175 5.55907 8.99105 4.49556 8.99105C2.01272 8.99105 0 6.97833 0 4.49553C0 2.01272 2.01272 0 4.49556 0C6.97837 0 8.99109 2.01272 8.99109 4.49553C8.99109 5.55903 8.62179 6.53626 8.00443 7.30603L11.2132 10.5147L10.5148 11.2131L7.30607 8.00442Z" fill="white"/>
</svg>
