<svg width="28" height="13" viewBox="0 0 28 13" fill="none" xmlns="http://www.w3.org/2000/svg">
<path d="M21.5516 11.4459C25.0096 11.0667 27.365 6.76714 25.4375 3.98017C24.584 2.60212 23.0733 1.57687 21.481 1.46222C19.8821 1.34977 18.2612 2.17438 16.6291 2.99239C15.0125 3.77953 13.0388 4.66148 10.9568 4.2227C8.93444 3.76409 7.46793 2.47866 5.94397 1.61434C5.17866 1.18219 4.36705 0.838227 3.53125 0.76547C2.71297 0.694913 1.83087 0.922005 1.18692 1.44236C0.527435 1.94507 0.170219 2.83586 0.54735 3.64064C0.856083 4.41235 1.73818 5.12672 2.65124 4.78712C1.78228 5.26122 0.690718 4.62622 0.269482 3.77293C0.0312328 3.34739 -0.0657349 2.81822 0.0466652 2.30667C0.165842 1.81499 0.439228 1.35858 0.805307 1.008C1.553 0.315665 2.56303 -0.0128474 3.57097 0.000384054C4.581 0.0224364 5.52493 0.36199 6.38283 0.774302C8.10083 1.59451 9.54534 2.78954 11.1862 3.06735C12.8027 3.3584 14.4238 2.62639 16.0271 1.7775C17.6414 0.990362 19.4388 -0.0150473 21.5803 0.110625C23.6687 0.282612 25.5588 1.53276 26.56 3.31871C27.643 5.08042 27.5591 7.4749 26.4873 9.17048C25.4463 10.8726 23.6048 12.1117 21.6001 12.1603L21.5516 11.4459Z" fill="black"/>
</svg>
