<svg width="12" height="12" viewBox="0 0 12 12" fill="none" xmlns="http://www.w3.org/2000/svg">
<path fill-rule="evenodd" clip-rule="evenodd" d="M1.41127 4.58661C1.41127 2.83292 2.83292 1.41127 4.58663 1.41127C6.34032 1.41127 7.76197 2.83292 7.76197 4.58661C7.76197 6.34032 6.34032 7.76197 4.58663 7.76197C2.83292 7.76197 1.41127 6.34032 1.41127 4.58661ZM4.58663 0C2.0535 0 0 2.0535 0 4.58661C0 7.11974 2.0535 9.17324 4.58663 9.17324C5.59857 9.17324 6.53399 8.84552 7.2925 8.29043L10.0856 11.0835L11.0835 10.0855L8.29043 7.29251C8.84552 6.53399 9.17324 5.59857 9.17324 4.58661C9.17324 2.0535 7.11974 0 4.58663 0Z" fill="#EEEEEE"/>
</svg>
