<svg width="28" height="13" viewBox="0 0 28 13" fill="none" xmlns="http://www.w3.org/2000/svg">
<path d="M5.73442 12.1605C3.73042 12.1119 1.88802 10.8728 0.845354 9.17061C-0.226505 7.47503 -0.30991 5.08056 0.772375 3.31885C1.77333 1.5329 3.66368 0.282747 5.75214 0.11077C7.89377 -0.0149128 9.69132 0.990497 11.3054 1.77765C12.909 2.62652 14.5293 3.35853 16.1465 3.06749C17.7876 2.78968 19.2317 1.59463 20.95 0.774415C21.8071 0.364304 22.7517 0.0225714 23.7621 0.000519013C24.7693 -0.0149124 25.7817 0.313599 26.5272 1.00814C26.8932 1.35871 27.1664 1.81513 27.2863 2.30682C27.3958 2.81835 27.3009 3.34752 27.0631 3.77307C26.6398 4.62636 25.5502 5.26135 24.6817 4.78736C25.594 5.12685 26.4761 4.41246 26.7848 3.64075C27.1622 2.83597 26.8046 1.94521 26.1456 1.44249C25.5012 0.924351 24.6191 0.695058 23.8017 0.765605C22.9655 0.838372 22.1543 1.18233 21.389 1.61448C19.8646 2.4788 18.3955 3.76423 16.3758 4.22285C14.2936 4.66161 12.3199 3.77968 10.7037 2.99254C9.07093 2.17453 7.45064 1.34988 5.85119 1.46233C4.25905 1.57699 2.74822 2.60227 1.89532 3.98031C-0.0325661 6.76727 2.32282 11.0668 5.78133 11.446L5.73442 12.1605Z" fill="black"/>
</svg>
