<svg width="40" height="40" viewBox="0 0 40 40" fill="none" xmlns="http://www.w3.org/2000/svg">
<path fill-rule="evenodd" clip-rule="evenodd" d="M11.1737 0.0313014C11.0715 0.0513446 10.758 0.113597 10.477 0.169523C9.29547 0.40452 8.00923 1.41988 7.49138 2.52659C7.14393 3.26899 6.95085 4.19611 6.94877 5.13105C6.94766 5.65663 6.9041 5.93838 6.8012 6.08535C6.63266 6.32591 5.82954 6.74783 5.08938 6.98462C3.43659 7.51342 2.42314 8.10274 1.58001 9.02524C1.0309 9.62607 0.433905 10.6672 0.219142 11.3987C0.00735107 12.1198 -0.0650123 13.611 0.0646651 14.5818C0.231312 15.8285 1.08097 18.0963 1.91412 19.5179C2.2974 20.1717 2.3047 20.2382 2.48811 24.7285C2.6276 28.1441 2.79232 28.9224 3.64246 30.1851C4.73846 31.8129 6.23605 32.7034 8.08864 32.829C8.83083 32.8793 8.96896 32.9209 9.60937 33.2858C10.6786 33.8951 11.2527 34.3805 11.9742 35.2853C12.6045 36.0756 14.0324 37.4068 14.251 37.4076C14.3086 37.4079 14.4066 37.4693 14.4689 37.5443C14.7232 37.8508 16.4764 38.7422 17.547 39.1095C19.898 39.9163 22.371 39.4288 25.1021 37.6207C26.0238 37.0108 26.8771 36.2159 28.1616 34.7709C28.7311 34.1304 29.2757 33.7067 30.3608 33.0603C30.5945 32.9212 30.9207 32.8468 31.4755 32.8063C32.5935 32.7246 32.9952 32.6203 33.8634 32.1865C35.195 31.5211 36.2203 30.3312 36.7335 28.8554C36.9854 28.1311 37.1194 26.5526 37.3108 22.052C37.3771 20.4948 37.4287 19.9896 37.5339 19.8691C38.0169 19.316 39.1744 16.6229 39.4364 15.4427C39.5307 15.0183 39.5846 14.2846 39.5901 13.3494C39.5969 12.1077 39.5702 11.8201 39.3931 11.2593C39.036 10.1275 38.4576 9.29981 37.3907 8.39477C36.6645 7.77874 36.5444 7.71594 35.1395 7.21774C33.9114 6.78227 33.0564 6.3682 32.7999 6.08467C32.6624 5.93282 32.6312 5.72453 32.6239 4.91053C32.6174 4.18193 32.5624 3.74952 32.4156 3.27073C31.9699 1.81841 30.8313 0.672045 29.4039 0.238527C28.8441 0.0684577 28.6066 0.048542 27.6743 0.0933418C26.4041 0.154278 26.1218 0.227274 25.3822 0.686058L24.8287 1.0293L22.6457 1.10612C20.0515 1.19733 14.9299 1.04034 14.5642 0.858378C14.4365 0.794852 14.123 0.635738 13.8676 0.504736C13.1871 0.156019 11.7886 -0.0898492 11.1737 0.0313014ZM11.0367 3.96511C10.6325 4.36937 10.7137 4.99491 11.1956 5.18753C12.8198 5.83676 13.7416 6.53836 14.5794 7.76286L15.083 8.4991L15.4266 8.38093C16.3171 8.07476 16.358 7.94019 15.8328 7.04305C15.1462 5.87056 13.6372 4.55821 12.3609 4.02362C11.6696 3.7341 11.2847 3.71707 11.0367 3.96511ZM27.2039 4.0643C25.4203 4.90811 23.8691 6.46468 23.4437 7.83751C23.3889 8.01467 23.4442 8.06194 23.9109 8.23659C24.2021 8.34555 24.4959 8.41337 24.5639 8.38725C24.6318 8.36114 24.8351 8.10894 25.0156 7.82677C25.7886 6.61853 26.8572 5.73876 28.0501 5.32864C28.6974 5.10608 28.9084 4.85083 28.8242 4.39158C28.7007 3.71746 28.1655 3.60943 27.2039 4.0643ZM18.5573 9.26079C17.8682 9.65885 16.991 10.1702 16.6078 10.3973L15.9112 10.8102V13.0177V15.2251L17.7225 16.2337C18.7188 16.7885 19.6217 17.2644 19.7289 17.2913C19.9425 17.3449 21.5423 16.5325 23.0051 15.6277L23.8533 15.1031V12.9906V10.8783L23.0869 10.4262C22.6654 10.1775 22.1743 9.88318 21.9955 9.77189C21.5476 9.49332 20.4293 8.85219 20.09 8.67949C19.813 8.5386 19.7973 8.54454 18.5573 9.26079ZM5.35712 10.7839C4.53837 11.0764 4.0961 11.5008 3.8273 12.2518C3.56746 12.9779 3.68543 14.384 4.08319 15.3001C4.99065 17.3904 6.32781 19.1141 7.4346 19.6206C8.60789 20.1575 9.26583 20.2127 13.7867 20.1536L15.5635 20.1304L15.6797 19.8501C15.7435 19.6959 15.9614 19.3332 16.1639 19.0441C16.5232 18.5312 16.5278 18.515 16.3513 18.3723C15.5319 17.7097 12.3368 15.0555 10.477 13.4927C7.86969 11.3016 7.71338 11.185 6.97832 10.8828C6.37529 10.6348 5.86168 10.6035 5.35712 10.7839ZM33.003 10.7812C32.0266 11.1028 31.9611 11.1524 27.5225 14.9296C26.9094 15.4513 25.7112 16.4361 24.8596 17.118C24.0082 17.7998 23.2842 18.4022 23.2507 18.4564C23.2172 18.5107 23.3038 18.69 23.4433 18.855C23.5827 19.0201 23.7912 19.3678 23.9066 19.6279L24.1165 20.1008L25.4479 20.1617C29.7746 20.3596 31.6645 20.1252 32.8446 19.2442C33.6972 18.6076 34.8471 17.0289 35.4065 15.7268C36.2355 13.797 36.2392 12.5298 35.419 11.4545C34.9766 10.8745 33.7542 10.5339 33.003 10.7812ZM14.9096 22.2717C13.6192 22.4218 10.8434 23.3559 9.4689 24.1026C7.29778 25.2819 6.30598 26.3773 6.41181 27.4787C6.50208 28.4179 7.36755 29.0457 8.57277 29.0464C9.08527 29.0467 9.44486 28.9708 10.2702 28.6882C10.8462 28.491 11.401 28.254 11.5032 28.1615C11.6054 28.069 11.7565 27.7608 11.8392 27.4765C12.0584 26.7223 12.5543 25.603 12.942 24.9871C13.128 24.6916 13.8056 23.9378 14.4477 23.3119C15.0899 22.686 15.5983 22.1795 15.5775 22.1862C15.5566 22.1929 15.2561 22.2314 14.9096 22.2717ZM24.132 22.2692C24.132 22.319 24.1684 22.3598 24.2129 22.3598C24.3638 22.3598 25.9785 23.9449 26.4174 24.5239C26.9466 25.2223 27.5873 26.5391 27.8274 27.4223C27.9864 28.0069 28.0407 28.0931 28.365 28.2768C28.5634 28.3891 29.1103 28.6086 29.5804 28.7645C31.2126 29.3057 32.4553 29.079 33.0677 28.1286C33.3094 27.7533 33.3373 27.6408 33.2954 27.209C33.2319 26.5532 32.8914 25.9968 32.2037 25.4244C30.6164 24.1035 28.3364 23.0697 25.7865 22.5144C24.3059 22.1921 24.132 22.1664 24.132 22.2692ZM14.7538 26.3488C14.3363 26.9351 13.6445 28.9302 13.7817 29.1522C13.8098 29.1976 16.5082 29.2337 19.8656 29.2337H25.8991L25.8434 28.8389C25.7641 28.277 25.4766 27.4273 25.1283 26.7256L24.8287 26.1218L19.8891 26.0978L14.9496 26.0738L14.7538 26.3488ZM14.4714 32.2808C14.4714 32.4735 15.0519 33.232 15.5545 33.6961C16.6892 34.7439 18.4236 35.6819 19.6624 35.9178C20.0212 35.9861 20.1704 35.9534 20.9165 35.6425C22.4473 35.0044 23.5312 34.3162 24.3503 33.4617C24.7345 33.061 25.1538 32.4553 25.1538 32.3009C25.1538 32.2377 23.3808 32.2062 19.8126 32.2062C16.8749 32.2062 14.4714 32.2398 14.4714 32.2808Z" fill="#DDDDDD"/>
</svg>
