<svg width="7" height="6" viewBox="0 0 7 6" fill="none" xmlns="http://www.w3.org/2000/svg">
<path d="M0.000178814 3.00068C-0.0133758 1.87398 0.776977 0.727469 1.9458 0.240232C2.52761 -0.0177229 3.21993 -0.070693 3.88411 0.0946735C4.53682 0.275471 5.09881 0.665743 5.53152 1.16184C5.94337 1.67556 6.23218 2.31284 6.2718 3.00287C6.29891 3.68644 6.0518 4.41631 5.58469 4.88592C4.71928 5.84726 3.12714 6.0853 2.28258 5.26076C3.36799 5.52529 4.30535 4.92555 4.75682 4.22665C5.20308 3.52546 5.03729 2.66557 4.49302 2.03059C3.95709 1.3735 3.14902 1.05163 2.27631 1.24119C1.40465 1.43085 0.536108 2.03497 0.000178814 3.00068Z" fill="black"/>
</svg>
