<svg width="43" height="44" viewBox="0 0 43 44" fill="none" xmlns="http://www.w3.org/2000/svg">
<path fill-rule="evenodd" clip-rule="evenodd" d="M35.2459 0.136948C34.6133 0.468448 34.5416 0.669539 34.4892 2.2571L34.4424 3.68042L33.172 3.72731C31.7506 3.77968 31.5326 3.85845 31.2688 4.4141C30.9561 5.07324 31.1691 5.78492 31.7931 6.16524C32.0557 6.3254 32.2666 6.35162 33.2939 6.35192L34.4892 6.35231V7.71637C34.4892 9.19584 34.5527 9.44865 35.0157 9.81277C35.3509 10.0765 36.0865 10.0797 36.5078 9.81924C36.9945 9.51842 37.1142 9.08342 37.1142 7.61604V6.35231L38.2627 6.35021C39.1977 6.34854 39.4859 6.31421 39.8136 6.16554C40.7252 5.75184 40.7715 4.46595 39.8945 3.9239C39.6139 3.75037 39.4317 3.72731 38.3454 3.72731H37.1142V2.44442C37.1142 1.34285 37.0871 1.10538 36.9222 0.764699C36.5923 0.0834157 35.8668 -0.188273 35.2459 0.136948ZM1.85487 0.622289C1.67393 0.768821 1.63118 0.90701 1.60099 1.4426L1.56471 2.08667L1.10955 2.05451C0.722838 2.02713 0.618588 2.05817 0.415616 2.26112C0.128838 2.54792 0.108305 2.90887 0.364243 3.16481C0.505338 3.3059 0.676711 3.35231 1.05677 3.35231H1.5618L1.59855 4.00168C1.64055 4.74495 1.82562 5.03981 2.25012 5.03981C2.66824 5.03981 2.86907 4.73857 2.94321 4.00018L3.00827 3.35231H3.49988C3.85182 3.35231 4.03148 3.30568 4.13233 3.18821C4.62574 2.61371 4.21688 2.03979 3.31427 2.03979H3.0111L2.97154 1.41785C2.9391 0.909633 2.89238 0.764039 2.71577 0.620977C2.44033 0.397949 2.13133 0.398416 1.85487 0.622289ZM11.6611 1.70388C10.1652 1.99657 8.79098 2.6936 8.11354 3.50334C7.48568 4.25368 7.53651 5.23095 8.23371 5.81762C8.80491 6.29831 8.94351 6.28412 11.3799 5.49654C12.1533 5.24651 12.8137 5.04148 12.8473 5.04092C12.91 5.03981 13.8853 6.44184 14.7877 7.82998L15.2911 8.60445L14.9105 9.18937C14.2366 10.2247 13.9634 11.075 13.9544 12.1648L13.9486 12.8679L13.3947 13.1302C12.4572 13.5742 11.7082 14.4362 11.3095 15.5299C11.1636 15.9301 11.1156 16.3003 11.1083 17.0825L11.0986 18.1095L10.2549 18.2659C7.95582 18.6921 6.48085 19.267 5.80504 20.0002C5.49398 20.3377 5.42674 20.4776 5.42674 20.7875C5.42674 21.7655 7.05227 22.6456 9.75848 23.1329C10.3332 23.2364 10.8698 23.3188 10.951 23.316C11.0371 23.3131 11.2149 23.0689 11.3776 22.73C11.9494 21.5394 13.3672 20.4949 14.783 20.2214C15.8291 20.0194 17.2812 20.2951 18.1824 20.8669L18.6099 21.1381L19.0988 20.5937C19.4352 20.219 19.7837 19.9527 20.2162 19.7398C20.7765 19.464 20.9277 19.431 21.6097 19.4359C22.2761 19.4405 22.4539 19.4803 22.9899 19.7441C23.4078 19.9499 23.7651 20.2238 24.1043 20.5986L24.6034 21.1502L25.0981 20.8384C25.676 20.474 26.8467 20.1335 27.5219 20.1335C28.8414 20.1335 30.0748 20.6578 31.0206 21.6205C31.3748 21.9812 31.7612 22.4906 31.9077 22.7902C32.0506 23.0822 32.2177 23.321 32.279 23.321C32.6588 23.321 34.5231 22.9082 35.2866 22.655C37.542 21.9072 38.2598 20.7837 37.1037 19.8109C36.2737 19.1125 33.9392 18.3442 31.9295 18.108C31.6358 18.0735 31.3935 18.0405 31.3911 18.0347C31.3887 18.029 31.3527 17.4872 31.3112 16.8309C31.2428 15.7487 31.2067 15.5786 30.9235 15.0028C30.5083 14.159 29.8538 13.481 29.0922 13.1061L28.4818 12.8057L28.5228 12.338C28.6025 11.4286 28.1587 10.0772 27.4942 9.20595C27.2734 8.91654 27.2652 8.8661 27.3565 8.3519C27.4511 7.81824 27.4092 7.44148 27.1954 6.90512C27.0048 6.42701 26.2791 5.95854 23.9424 4.80512C20.5492 3.13031 18.3955 2.29824 16.2549 1.83504C15.1406 1.59392 12.5948 1.52126 11.6611 1.70388ZM4.0263 8.67984C3.47918 8.97324 3.36424 9.32012 3.36424 10.6772V11.8642L2.2158 11.8973C1.20752 11.9264 1.02424 11.9572 0.713555 12.1505C0.273961 12.4236 0.0829934 12.7806 0.0829934 13.3288C0.0829934 13.6679 0.140461 13.8174 0.371928 14.0811C0.743178 14.504 1.11359 14.6012 2.35641 14.6017L3.36424 14.6023L3.36441 15.8445C3.36454 17.2764 3.47738 17.6321 4.02051 17.9121C4.40554 18.1106 5.0196 18.0814 5.3766 17.8475C5.82698 17.5523 5.9346 17.1906 5.97257 15.8445L6.00762 14.6023H7.03268C8.1576 14.6023 8.51421 14.5044 8.89551 14.0912C9.20674 13.7539 9.22812 12.9664 8.93657 12.5759C8.50988 12.0044 8.3178 11.933 7.11698 11.8993L6.00771 11.8682L5.97227 10.6805C5.94527 9.77445 5.89757 9.41968 5.77101 9.1841C5.43501 8.55842 4.66671 8.33642 4.0263 8.67984ZM39.6342 15.0717C39.5507 15.1205 39.4123 15.2674 39.3267 15.398C39.1446 15.676 39.2157 15.8747 39.6692 16.354L39.9518 16.6526L39.6111 17.0506C39.2014 17.5294 39.1502 17.9762 39.4789 18.2063C39.8247 18.4486 40.0984 18.3852 40.4635 17.9785L40.7989 17.6047L41.2047 17.9785C41.6603 18.3985 41.9809 18.4546 42.2706 18.1648C42.5607 17.8747 42.5097 17.5016 42.13 17.1335C41.9496 16.9586 41.8017 16.7687 41.8017 16.7117C41.8017 16.6546 41.9496 16.4647 42.13 16.2898C42.5483 15.8843 42.5787 15.461 42.211 15.1716C41.8485 14.8865 41.6355 14.9306 41.2266 15.3757L40.861 15.7742L40.4913 15.3757C40.1216 14.9771 39.9192 14.9053 39.6342 15.0717ZM1.67674 20.9773C1.52496 21.1291 1.48924 21.2897 1.48924 21.821V22.4773H0.933588C0.444866 22.4773 0.354399 22.5071 0.183588 22.7243C-0.0716008 23.0487 -0.0617565 23.2786 0.219399 23.5596C0.408305 23.7486 0.542366 23.7898 0.969399 23.7898H1.48924V24.3812C1.48924 25.1219 1.60287 25.2857 2.1303 25.3057C2.64188 25.3251 2.70471 25.229 2.7066 24.4226L2.70801 23.7898H3.22782C3.65485 23.7898 3.78891 23.7486 3.97782 23.5596C4.25657 23.2809 4.27388 22.9182 4.02051 22.6648C3.87462 22.5189 3.70804 22.4773 3.27051 22.4773H2.70801V21.7795C2.70801 21.1647 2.68324 21.0643 2.4996 20.9357C2.21541 20.7366 1.90155 20.7525 1.67674 20.9773ZM20.6936 21.1142C20.231 21.3607 19.8932 21.7198 19.8093 22.0543C19.7799 22.1714 19.8647 22.4917 20.0101 22.8125C20.1485 23.118 20.3142 23.5367 20.3781 23.7429L20.4943 24.1179H21.5953H22.6963L22.9218 23.5181C23.0458 23.1882 23.2369 22.7735 23.3463 22.5963L23.5452 22.2745L23.2751 21.8927C23.1265 21.6826 22.8451 21.3821 22.6498 21.2248C22.3541 20.9866 22.1976 20.9341 21.7123 20.9104C21.2367 20.887 21.0498 20.9245 20.6936 21.1142ZM14.8377 21.6287C13.1476 22.0322 11.9238 23.8779 12.2545 25.5246C12.5015 26.7545 13.341 27.794 14.4225 28.2089C15.0903 28.4652 16.156 28.4824 16.8174 28.2474C18.1339 27.78 19.1142 26.4092 19.1142 25.0357C19.1142 24.0096 18.5052 22.804 17.6805 22.1975C16.9587 21.6666 15.7183 21.4185 14.8377 21.6287ZM26.7549 21.6234C24.241 22.2966 23.2894 25.4165 25.0239 27.2984C25.8897 28.2377 27.1651 28.646 28.3331 28.3577C29.7285 28.0133 30.6099 27.1132 30.9849 25.6497C31.2495 24.6166 30.8682 23.441 29.9802 22.553C29.3428 21.9157 28.6369 21.6071 27.7411 21.5741C27.3534 21.5597 26.9096 21.582 26.7549 21.6234ZM14.8805 23.5052C14.4472 23.741 14.1738 24.0865 14.0463 24.5599C13.9257 25.0078 13.9963 25.3958 14.2921 25.9104C14.8592 26.897 16.4322 26.8847 17.0157 25.889C17.3028 25.3992 17.3452 24.6416 17.1109 24.1885C16.7181 23.429 15.6325 23.0963 14.8805 23.5052ZM26.7858 23.5111C26.3153 23.7596 26.0307 24.1907 25.9785 24.734C25.9136 25.4102 26.0172 25.7752 26.3802 26.149C27.464 27.2649 29.3474 26.4081 29.2188 24.8576C29.1174 23.6341 27.8651 22.941 26.7858 23.5111ZM32.5238 24.5336C32.4704 24.6334 32.4267 25.0185 32.4267 25.3894C32.4267 26.0494 32.4426 26.0942 33.1665 27.4815C34.4667 29.9736 35.5204 32.0979 35.5242 32.2349C35.5263 32.3081 35.6002 32.2413 35.6883 32.0867C35.8176 31.8598 35.8478 31.5698 35.8445 30.5867C35.84 29.2718 35.7332 28.7788 35.1412 27.3406C34.3048 25.3086 32.9097 23.8126 32.5238 24.5336ZM9.85401 24.634C9.49427 24.8533 8.95915 25.6541 8.38212 26.8367C7.57757 28.4856 7.22451 30.0842 7.39671 31.2986C7.54954 32.3762 7.59741 32.3815 8.10141 31.3778C8.34582 30.8911 8.70227 30.1976 8.89341 29.8367C10.5415 26.7251 10.928 25.8962 10.8607 25.6179C10.8233 25.4632 10.7877 25.1363 10.7816 24.8914C10.7707 24.4536 10.7652 24.446 10.4658 24.4464C10.2983 24.4466 10.0229 24.531 9.85401 24.634ZM20.478 25.5945C20.4579 25.659 20.4135 25.8804 20.3796 26.0867C20.3456 26.2929 20.1946 26.7208 20.0442 27.0376C19.8936 27.3544 19.7705 27.6619 19.7705 27.721C19.7705 27.9595 20.1603 28.5696 20.4822 28.835C21.4098 29.5996 22.7402 29.3111 23.2646 28.2317C23.4445 27.8615 23.4528 27.7841 23.3418 27.5142C23.2734 27.3478 23.0852 26.8229 22.9237 26.3479L22.6299 25.4839L21.5723 25.4807C20.8058 25.4782 20.5046 25.5095 20.478 25.5945ZM31.1128 28.2855C30.1829 29.2506 29.1511 29.7302 27.754 29.8467L26.9775 29.9115L27.0393 30.296C27.1751 31.1395 27.701 31.5798 28.726 31.7079C29.3445 31.7852 29.3045 31.7143 29.6531 33.3523C30.1513 35.6945 30.6813 38.2351 31.2043 40.79C31.5455 42.4563 31.7867 43.43 31.8717 43.484C31.945 43.5303 33.6129 43.5689 35.5782 43.5698C40.4401 43.5715 40.263 43.7536 38.532 40.5333C37.2092 38.0725 36.9622 37.6171 36.3154 36.446C35.8069 35.5253 33.4017 31.0241 32.2955 28.9226C31.9495 28.2652 31.6581 27.7322 31.6481 27.7381C31.638 27.744 31.3972 27.9904 31.1128 28.2855ZM11.0284 28.782C10.7497 29.3105 10.2966 30.1859 10.0215 30.7273C9.56413 31.6277 9.01285 32.6565 8.26332 34.0085C7.64412 35.1255 3.93985 41.954 3.75171 42.3252C3.49285 42.836 3.49954 43.0585 3.78188 43.3409L4.01198 43.571H7.63174C9.83382 43.571 11.3193 43.5346 11.4245 43.4785C11.5303 43.4219 11.6221 43.2312 11.6613 42.9865C11.7354 42.5236 12.1679 40.3524 12.4974 38.7898C12.6223 38.1968 12.9602 36.5937 13.2482 35.2273C13.5362 33.8609 13.8243 32.5348 13.8883 32.2805L14.0049 31.818L14.7357 31.6626C15.7965 31.4373 16.1127 31.1532 16.2504 30.3016L16.3116 29.9226L15.3927 29.8231C13.9629 29.6682 13.0475 29.2397 12.1158 28.2896C11.8657 28.0345 11.6327 27.8248 11.5981 27.8235C11.5634 27.8222 11.307 28.2535 11.0284 28.782ZM18.2112 29.0987L17.7352 29.4029L17.6854 30.201C17.5992 31.583 16.9781 32.4485 15.8197 32.8003C15.4268 32.9196 15.1664 33.0528 15.1376 33.1493C15.1118 33.2352 15.0069 33.7062 14.9044 34.196C14.8019 34.6859 14.4788 36.2046 14.1864 37.571C13.4292 41.1093 13.0249 43.2209 13.086 43.3199C13.1295 43.3902 30.1655 43.319 30.2468 43.2479C30.2714 43.2265 29.7342 40.5209 29.4267 39.1179C29.1469 37.8413 28.2823 33.7245 28.2172 33.3583C28.1659 33.0697 28.1157 33.0248 27.7378 32.9284C26.931 32.7226 26.1231 32.0447 25.8087 31.3097C25.7268 31.1183 25.6446 30.6242 25.6261 30.2117L25.5925 29.4617L25.1007 29.1425L24.6088 28.8233L24.3717 29.1425C23.4476 30.3857 22.1575 30.9455 20.9203 30.6399C20.2772 30.481 19.5465 29.9618 19.0865 29.337L18.6872 28.7946L18.2112 29.0987ZM22.8642 31.8627C21.9913 32.2682 21.5555 32.2967 20.7435 32.0013C19.8208 31.6657 19.6421 31.679 19.4432 32.0981C19.2403 32.5257 19.3402 32.7825 19.8371 33.1105C20.7022 33.6816 22.0363 33.7608 23.0412 33.3008C23.7725 32.966 23.9153 32.8181 23.8455 32.4674C23.7521 31.9981 23.6041 31.5707 23.5366 31.5753C23.502 31.5777 23.1994 31.7071 22.8642 31.8627Z" fill="#DDDDDD"/>
</svg>
