<svg width="10" height="18" viewBox="0 0 10 18" fill="none" xmlns="http://www.w3.org/2000/svg">
<path d="M4.23386 17.8493C6.12171 15.9024 7.43609 13.4505 8.05147 10.862C8.65789 8.31535 8.7461 5.438 7.45382 3.27502C7.13174 2.75687 6.70612 2.27841 6.24297 1.94987C5.76439 1.62796 5.19541 1.4207 4.61767 1.33912C3.46198 1.1517 2.22037 1.53755 1.69101 2.43052C1.11546 3.28602 1.28969 4.6288 2.0108 5.36745C2.36593 5.74006 2.87756 6.00024 3.4333 6.10828C4.03544 6.22954 4.46325 6.01347 5.33002 6.19648C5.05653 7.1313 4.07506 7.21075 3.32747 7.20189C2.5313 7.17989 1.71969 6.87772 1.10222 6.29352C-0.124056 5.11387 -0.353338 3.16257 0.546481 1.70735C1.50135 0.227873 3.34291 -0.19547 4.82495 0.0779376C5.58578 0.223462 6.31356 0.527712 6.94208 0.999559C7.56622 1.49125 8.02499 2.08216 8.39107 2.7348C9.10123 4.04891 9.34375 5.50635 9.34375 6.91307C9.33499 8.32859 9.10342 9.71106 8.70428 11.045C7.88381 13.7019 6.35766 16.1162 4.32645 17.9507L4.23386 17.8493Z" fill="black"/>
</svg>
