<svg width="5" height="9" viewBox="0 0 5 9" fill="none" xmlns="http://www.w3.org/2000/svg">
<path d="M1.47935 8.53803C0.283411 7.32322 -0.282766 5.42474 0.13847 3.61457C0.34596 2.71496 0.771368 1.83964 1.43972 1.17818C1.76816 0.845253 2.12997 0.541002 2.53973 0.3161C2.74722 0.205786 2.97035 0.124249 3.19452 0.0625235C3.43329 0.0447982 3.61576 -0.17562 4.01301 0.333722C4.01718 0.977567 3.81491 0.911357 3.67623 1.07015L3.24145 1.4207C2.95055 1.64122 2.66381 1.86393 2.4094 2.12627C1.91831 2.65542 1.45223 3.23754 1.17697 3.93206C0.632695 5.30796 0.735924 7.04316 1.58674 8.45868L1.47935 8.53803Z" fill="black"/>
</svg>
