<svg width="11" height="11" viewBox="0 0 11 11" fill="none" xmlns="http://www.w3.org/2000/svg">
<path d="M0.271233 10.5665C-0.0645056 10.2308 -0.092761 9.70873 0.210029 9.31273C2.86027 5.7392 2.86924 4.88167 0.215763 1.54806C-0.0873394 1.16107 -0.0642967 0.606471 0.271128 0.271056C0.611141 -0.0690194 1.15176 -0.0874118 1.54808 0.206401C4.93757 2.76669 5.66933 2.77169 9.31746 0.205347C9.72281 -0.078768 10.2355 -0.0598855 10.5666 0.271181C10.9069 0.611569 10.9305 1.12892 10.637 1.53425C7.98211 5.09378 7.97318 5.95139 10.622 9.2803C10.9298 9.68131 10.9114 10.2219 10.5667 10.5666C10.2313 10.9021 9.69996 10.9298 9.29433 10.6266C5.89085 8.07102 5.16842 8.06601 1.52962 10.6417C1.11026 10.9211 0.597587 10.8929 0.271233 10.5665Z" fill="black"/>
</svg>
