<svg width="7" height="6" viewBox="0 0 7 6" fill="none" xmlns="http://www.w3.org/2000/svg">
<path d="M6.27443 3.00068C5.73852 2.03716 4.8696 1.43304 3.99843 1.24119C3.1251 1.05163 2.31578 1.3735 1.78204 2.03059C1.23954 2.66557 1.07407 3.52546 1.51741 4.22665C1.96951 4.92555 2.90676 5.52529 3.99186 5.26076C3.1472 6.0853 1.55485 5.84945 0.690372 4.88592C0.222842 4.41631 -0.0264587 3.68863 0.00221443 3.00287C0.0419397 2.31054 0.328672 1.67337 0.74334 1.16184C1.17771 0.665743 1.74013 0.275471 2.39075 0.0946735C3.05232 -0.070693 3.74486 -0.0177229 4.32927 0.240232C5.49815 0.727469 6.28766 1.87398 6.27443 3.00068Z" fill="black"/>
</svg>
