<svg width="34" height="35" viewBox="0 0 34 35" fill="none" xmlns="http://www.w3.org/2000/svg">
<path fill-rule="evenodd" clip-rule="evenodd" d="M25.8648 0.0256326C25.951 0.0584643 26.0678 0.187094 26.1245 0.311467C26.2098 0.498756 26.2113 0.585529 26.1331 0.816653C26.0558 1.04509 25.9278 1.16882 25.427 1.49887C25.0905 1.72062 24.6567 1.94739 24.4629 2.00285L24.1106 2.10376L24.2687 2.26072C24.3557 2.34702 24.4299 2.50447 24.4336 2.6106C24.4458 2.96175 24.1441 3.1613 23.3967 3.29615C23.1603 3.33886 22.9535 3.38812 22.9371 3.40571C22.8671 3.48069 23.0276 3.69002 23.2274 3.78471C23.48 3.9044 23.5197 4.13498 23.3088 4.25755C23.2292 4.30384 23.1655 4.38451 23.1673 4.43694C23.1724 4.58283 22.8795 4.8356 22.5813 4.94266C22.434 4.99551 22.2716 5.09298 22.2204 5.1592C22.1414 5.26157 22.1528 5.29522 22.2962 5.38343C22.3891 5.4406 22.4665 5.52657 22.4681 5.57457C22.4698 5.62257 22.3292 5.8793 22.1555 6.14511C21.982 6.41085 21.8409 6.65784 21.8422 6.69398C21.8435 6.73011 21.9982 6.63929 22.1862 6.49221C23.1066 5.77152 24.488 5.06943 25.6117 4.75124C26.4668 4.50905 28.249 4.43292 29.1213 4.60125C30.7556 4.91659 32.5651 5.90751 33.2532 6.86393C33.5647 7.29693 33.3072 7.89853 32.8028 7.91614C32.5296 7.92568 32.3048 7.82979 31.4642 7.34527C30.7897 6.95657 30.467 6.92144 29.9998 7.18603C29.8313 7.28159 29.6165 7.36239 29.5226 7.36567C29.3747 7.37083 28.897 7.1127 28.2827 6.69577L28.1057 6.57557L28.2327 6.85215C28.5494 7.54123 28.3393 7.78809 27.5374 7.66914C26.8996 7.57448 26.8132 7.58282 26.8446 7.73625C26.867 7.84648 26.7926 7.8726 26.3185 7.9209C25.8277 7.97085 25.7669 7.99349 25.7714 8.12473C25.7756 8.24429 25.8472 8.28175 26.1478 8.32209C28.4804 8.63498 30.7148 10.2676 31.9527 12.5635C32.4601 13.5046 32.4858 13.8814 32.0589 14.1212C31.6035 14.3774 31.2238 14.1589 30.5691 13.2639C30.3298 12.9368 30.2737 12.8982 30.0969 12.9395C29.8051 13.0077 29.5543 12.821 29.4029 12.4227C29.331 12.2335 29.2142 12.019 29.1433 11.946C29.0187 11.8177 29.0065 11.8215 28.7746 12.0625L28.5348 12.3117L28.1421 12.1234C27.9262 12.0197 27.7168 11.9359 27.6768 11.937C27.6369 11.9382 27.4783 11.9089 27.3244 11.8719C27.1138 11.8213 27.0078 11.7383 26.8957 11.5363C26.8137 11.3887 26.6076 11.1641 26.4379 11.0373L26.129 10.8065L26.1905 11.2843C26.2629 11.8462 26.1989 11.9112 25.6945 11.7881C24.9951 11.6175 24.9806 11.6253 25.3878 11.951C26.879 13.1439 28.2734 15.2348 28.3119 16.3356C28.3257 16.733 28.0725 17.0222 27.6991 17.0352C27.3196 17.0484 26.8851 16.6169 26.5297 15.8735C26.3057 15.4052 26.2327 15.313 26.09 15.318C25.6746 15.3325 25.3095 14.9971 25.2952 14.5877C25.2918 14.492 25.2401 14.3512 25.1801 14.2749C25.0725 14.1382 25.0692 14.1383 24.9192 14.2837C24.8357 14.3649 24.7855 14.4743 24.8078 14.5268C24.8649 14.6613 24.8291 14.6519 24.3638 14.4104C24.0687 14.2572 23.9363 14.1404 23.9005 14.0016C23.7986 13.6075 23.7689 13.5518 23.663 13.5555C23.6034 13.5576 23.4902 13.6778 23.4114 13.8229C23.3326 13.9679 23.2497 14.0871 23.2273 14.0879C23.205 14.0887 22.9541 13.9658 22.6698 13.8149L22.153 13.5405L21.8163 13.699L21.4795 13.8574L21.5101 13.3925C21.5268 13.1368 21.6318 12.5919 21.7433 12.1816C22.0302 11.126 22.1906 10.3575 22.1816 10.0817C22.1773 9.95128 22.1016 9.6713 22.0131 9.45952C21.5325 8.30823 20.1716 7.71042 19.0751 8.16888C18.2251 8.52428 17.7859 9.06838 17.5566 10.0503C17.4282 10.6002 17.536 10.5694 16.1922 10.4408C15.3838 10.3635 15.247 10.3321 15.285 10.2324C15.487 9.70142 15.4087 9.11705 15.082 8.71839C14.8878 8.48133 14.7731 8.42889 14.3759 8.39558L14.2018 8.38097L14.4269 8.07755C14.5507 7.91067 14.6747 7.7297 14.7026 7.67553C14.7306 7.62129 14.9253 7.55485 15.1353 7.52795C15.6106 7.46702 15.9518 7.25465 16.1843 6.875C16.3903 6.53873 16.5172 5.78522 16.4599 5.23747C16.4388 5.03391 16.4437 4.86663 16.4709 4.86568C16.6595 4.85933 17.9932 6.58319 18.4608 7.43788C18.5972 7.68719 18.7359 7.89013 18.7689 7.88898C18.8019 7.88782 18.8613 7.66821 18.9009 7.40094C19.0054 6.69674 19.3715 5.48409 19.7094 4.72297C20.7389 2.40378 22.414 0.816922 24.4949 0.189556C25.0032 0.0362904 25.6802 -0.0446916 25.8648 0.0256326ZM10.3704 0.86863C11.6359 1.077 13.0075 1.9987 13.6737 3.08824L13.9115 3.47732L14.5237 3.45594C15.0161 3.43875 15.1707 3.46091 15.3148 3.56944C15.4885 3.70011 15.4961 3.74305 15.5608 4.95078C15.6223 6.10222 15.6167 6.21148 15.4878 6.38244C15.3599 6.55183 15.296 6.56937 14.7329 6.58904L14.1177 6.61052L13.8586 7.17375C13.3481 8.28345 12.37 9.1793 11.2085 9.60102C10.7081 9.78265 10.4688 9.82435 9.76049 9.85358C8.83151 9.89187 8.52297 9.83851 7.71613 9.49989C6.76975 9.10265 5.82415 8.22143 5.37931 7.32219L5.19957 6.9589L4.52314 6.98252C3.54749 7.01659 3.56642 7.04566 3.50996 5.42906C3.4535 3.81215 3.4362 3.84312 4.41456 3.80896L5.09348 3.78525L5.41994 3.25492C5.86131 2.5382 6.18965 2.16156 6.6958 1.79136C7.7097 1.04985 9.19923 0.675812 10.3704 0.86863ZM9.27939 2.93755C10.4364 3.33703 11.2669 4.2427 11.6019 5.46983C11.7969 6.18414 11.5926 7.30674 11.1889 7.73965C10.8779 8.07309 10.2863 7.98256 10.2729 7.59938C10.2704 7.5267 10.3631 7.33897 10.479 7.18218C10.9114 6.59735 10.929 5.86982 10.5292 5.10816C10.0951 4.28078 9.45481 3.77639 8.7239 3.68552C8.39255 3.64433 8.05749 3.40524 8.05049 3.20502C8.04359 3.00716 8.31534 2.78583 8.57142 2.78073C8.70345 2.77811 9.02198 2.84864 9.27939 2.93755ZM20.3329 8.96732C20.906 9.20445 21.2821 9.66369 21.296 10.1431C21.3034 10.3981 20.9706 11.9969 20.8928 12.0803C20.863 12.1123 18.9164 11.6154 18.4531 11.4575C18.2545 11.3899 18.126 11.1512 18.2261 11.036C18.2564 11.001 18.3262 10.7319 18.3812 10.4377C18.5049 9.77604 18.679 9.44684 19.053 9.16784C19.3949 8.91288 19.9799 8.82122 20.3329 8.96732ZM13.9523 9.3939C14.1339 9.42296 14.336 9.49742 14.4014 9.55928C14.509 9.66127 14.499 9.69218 14.2948 9.88942C13.7391 10.4262 12.256 11.1776 11.216 11.4495C9.83228 11.8113 8.0137 11.624 6.5853 10.9726C5.01857 10.2582 4.68439 9.79391 5.62245 9.63471C5.89441 9.58857 6.01103 9.61369 6.35939 9.79335C8.12377 10.7033 9.17565 10.9173 10.5921 10.6547C11.4443 10.4967 12.251 10.1501 12.9333 9.64861C13.3822 9.31857 13.4211 9.30888 13.9523 9.3939ZM4.95701 14.0695L5.05266 16.8087L4.80485 17.1723C4.46739 17.6672 4.18336 18.3817 4.01937 19.1482C3.944 19.5002 3.85843 19.7889 3.82903 19.7899C3.79969 19.791 3.49301 19.6996 3.14752 19.5868C2.80209 19.4742 2.10276 19.25 1.59349 19.0888C1.08433 18.9276 0.650418 18.7796 0.6294 18.76C0.608442 18.7404 0.626444 18.5145 0.669623 18.258C0.979296 16.414 1.53022 15.1153 2.53877 13.8516C3.06219 13.1958 4.72892 11.3349 4.79493 11.3326C4.83313 11.3313 4.90207 12.4962 4.95701 14.0695ZM15.647 11.2596C15.8716 11.2884 16.3585 11.3526 16.7291 11.4022L17.403 11.4925L17.5656 11.8426C17.6963 12.1242 17.7777 12.2061 17.9809 12.2608C18.1198 12.2981 18.7538 12.4677 19.3897 12.6377C20.0256 12.8076 20.5727 12.9687 20.6056 12.9956C20.6385 13.0227 20.5913 13.3105 20.5009 13.6353C20.0579 15.2266 19.157 15.926 17.9047 15.6511C16.9551 15.4427 15.9288 15.3034 15.4632 15.3196L14.9766 15.3366L14.9044 13.2702L14.8322 11.2038L15.0355 11.2054C15.1473 11.2064 15.4225 11.2307 15.647 11.2596ZM14.0418 14.4641L14.1327 17.6198L12.2884 17.7076C11.2742 17.756 9.4388 17.8079 8.21002 17.8231L5.97574 17.8507L5.86651 14.7226C5.80643 13.0022 5.76967 11.5941 5.7849 11.5936C5.80008 11.5931 5.96066 11.6683 6.1417 11.7608C6.55205 11.9706 7.2199 12.1953 7.85213 12.3365L8.3362 12.4446L8.04293 12.5103C7.58601 12.6126 7.15902 12.9166 6.96341 13.2788C6.79301 13.5942 6.78937 13.6424 6.83543 14.9613C6.88116 16.2709 6.88997 16.332 7.08405 16.6826C7.2944 17.0625 7.66428 17.3557 8.09842 17.4865C8.50765 17.6098 11.6975 17.4758 12.0983 17.3185C12.4526 17.1794 12.7658 16.8935 12.9367 16.5532C13.0848 16.2579 13.0645 13.7874 12.91 13.3014C12.7284 12.7303 12.1975 12.4116 11.4464 12.4228L11.0696 12.4285L11.3254 12.3466C12.3446 12.0204 12.8864 11.8156 13.351 11.581C13.6454 11.4323 13.9007 11.3102 13.9185 11.3096C13.9363 11.3089 13.9917 12.7285 14.0418 14.4641ZM11.6345 13.2899C12.0556 13.3275 12.1036 13.4731 12.1521 14.8606C12.1913 15.9849 12.1827 16.1123 12.058 16.246C11.8598 16.4585 11.4805 16.5058 9.6757 16.5426L8.06537 16.5755L7.91728 16.396C7.78556 16.2362 7.76449 16.0848 7.72594 15.0232C7.70213 14.3669 7.7014 13.7755 7.72432 13.709C7.82629 13.4128 8.10444 13.3593 9.78524 13.313C10.6704 13.2886 11.5026 13.2782 11.6345 13.2899ZM19.853 16.5274C19.9654 17.3279 20.2044 20.7057 20.4481 24.9361C20.5882 27.3697 20.7053 29.369 20.7084 29.379C20.7114 29.389 20.7793 29.395 20.8593 29.3922C21.079 29.3845 22.7189 29.8751 23.1649 30.0818C23.9319 30.4374 24.9331 31.1012 25.4457 31.594C26.3886 32.5004 26.9852 33.3602 27.0018 33.8363L27.0094 34.0542L20.843 34.2696L14.6766 34.4849L14.9596 34.0589C15.4507 33.32 15.541 32.9453 15.5222 31.7256L15.5058 30.6589L15.731 30.4696C16.0283 30.2198 16.8082 29.8746 17.4807 29.6953C17.7785 29.6158 18.0633 29.537 18.1135 29.5202C18.1738 29.4999 18.1997 29.3321 18.1898 29.0259C18.1814 28.7709 18.175 27.6479 18.1753 26.5303C18.176 23.371 18.1533 17.4473 18.1389 17.0266L18.1258 16.6478L18.586 16.6003C18.8735 16.5706 19.1876 16.4781 19.4233 16.3534L19.8006 16.1539L19.853 16.5274ZM11.5953 18.5549C14.2747 18.4976 14.5799 18.5034 14.7192 18.6146C14.8578 18.7251 14.8767 18.8247 14.9033 19.5872C14.9295 20.3382 14.9165 20.4544 14.7905 20.5894C14.6512 20.7388 14.5497 20.7456 10.1517 20.8992L5.65509 21.0562L5.49539 20.8671C5.35609 20.7022 5.33235 20.5775 5.31068 19.8944C5.28897 19.2118 5.3047 19.0865 5.43263 18.9211L5.57958 18.7313L7.10266 18.6748C7.94027 18.6438 9.962 18.5898 11.5953 18.5549ZM1.93857 20.1174C2.75216 20.3821 3.43909 20.6185 3.46506 20.6427C3.52646 20.6998 3.38896 21.4358 3.22471 21.9292C3.0479 22.4606 2.85844 22.6943 2.4269 22.9139C1.49383 23.3886 0.404535 22.9632 0.0877581 22.0002C-0.03664 21.622 -0.0351215 21.5775 0.133588 20.7192C0.229832 20.2303 0.342375 19.7865 0.3839 19.7332C0.443644 19.6564 0.767719 19.7365 1.93857 20.1174ZM14.2798 21.7349C14.3013 21.7853 14.3447 22.8229 14.3765 24.0406L14.4342 26.2545L12.6083 26.338L10.7824 26.4215L10.7012 24.0955L10.62 21.7695L12.4304 21.7063C13.819 21.6578 14.25 21.6645 14.2798 21.7349ZM9.70417 21.8947C9.72562 21.9451 9.76906 22.9827 9.80082 24.2004L9.85851 26.4143L8.06955 26.4966L6.28054 26.5789L6.19931 24.2528L6.11808 21.9267L7.89161 21.8648C9.25062 21.8173 9.67428 21.8243 9.70417 21.8947ZM14.4742 27.2725C14.4963 27.3244 14.5217 27.8472 14.5309 28.4343L14.5476 29.5018L12.7217 29.5852L10.8958 29.6688L10.8545 28.4867L10.8132 27.3046L12.6237 27.2414C14.0382 27.192 14.4429 27.1987 14.4742 27.2725ZM9.96886 28.5164L10.0101 29.6972L8.20197 29.7603L6.39384 29.8235L6.3526 28.6426L6.31137 27.4618L8.1195 27.3987L9.92763 27.3355L9.96886 28.5164ZM14.6347 30.9396L14.6528 31.4562L12.8077 31.5206L10.9627 31.5851L10.9447 31.0685L10.9266 30.5519L12.7717 30.4874L14.6167 30.423L14.6347 30.9396ZM10.0604 31.1363L10.0797 31.6898L8.27155 31.7529L6.46342 31.8161L6.44409 31.2626L6.42477 30.7091L8.23289 30.6459L10.041 30.5828L10.0604 31.1363ZM14.6502 32.5462C14.4725 33.5461 13.7738 34.2209 12.8839 34.252C12.3648 34.2701 11.9989 34.1267 11.5899 33.7454C11.219 33.3996 11.0124 33.009 10.9991 32.6281C10.9937 32.4716 11.0042 32.4703 12.8401 32.4062L14.6865 32.3417L14.6502 32.5462ZM10.1133 32.6534C10.1322 33.1937 9.63083 33.9816 9.1004 34.2453C8.43254 34.5772 7.52225 34.3891 6.95436 33.8017C6.62944 33.4656 6.5131 33.2385 6.50191 32.9183L6.49435 32.7017L8.30248 32.6386C9.52392 32.5959 10.1115 32.6007 10.1133 32.6534Z" fill="#DDDDDD"/>
</svg>
