<svg width="22" height="30" viewBox="0 0 22 30" fill="none" xmlns="http://www.w3.org/2000/svg">
<path d="M18.0191 0.00175774C16.8133 -0.0241289 15.3797 0.236076 13.7557 0.771611C13.5121 0.857044 13.3196 0.992015 13.1461 1.16279C11.4943 2.71335 9.88755 4.35713 8.36882 6.05658L8.25222 6.18559C8.21996 6.22213 8.21611 6.27656 8.23976 6.31875C8.26432 6.36146 8.31254 6.38352 8.36039 6.37287L8.53107 6.3375C10.9788 5.81425 13.4499 5.41257 15.8739 5.14734C16.0334 5.12976 16.1981 5.18441 16.3171 5.293C16.436 5.40267 16.5055 5.55912 16.5022 5.72161C16.4623 8.12737 16.5481 10.545 16.7624 12.9083L16.7769 13.0623C16.7824 13.1094 16.8148 13.1476 16.8623 13.16C16.8707 13.1622 16.8786 13.1644 16.8894 13.1644C16.9252 13.165 16.9611 13.1479 16.9829 13.1166L17.0724 12.9895C18.438 11.0409 19.9249 9.14661 21.4878 7.35509C21.6627 7.15577 21.7087 7.03039 21.7415 6.84948C22.2336 3.70032 21.4742 1.37133 20.7948 0.782171C20.2048 0.270635 19.3487 0.0303211 18.0191 0.00175774ZM14.2696 6.38117L14.1198 6.40194C11.7814 6.72402 9.41401 7.1702 7.0829 7.72735C6.85183 7.79192 6.70348 7.94209 6.67092 7.97703C4.92637 10.0663 3.27399 12.2654 1.75839 14.5187C1.68264 14.6327 1.67518 14.9057 1.67518 14.9057C1.67518 14.9057 2.05543 17.8411 2.61151 20.0035C1.23358 23.9662 0.00438532 29.1878 0.00438532 29.1878C-0.00520301 29.2215 0.00119602 29.2569 0.020996 29.2855C0.0417677 29.3141 0.0746944 29.3322 0.110481 29.3333H0.894909C0.944556 29.3341 0.987804 29.304 1.0052 29.2584L1.0593 29.1108C1.85981 26.9273 2.77224 24.7716 3.78087 22.671C4.01568 22.1815 4.5112 21.1937 4.5112 21.1937C4.59258 21.0333 4.97276 20.3042 5.05841 20.1408L5.07302 20.1117C7.61276 15.3208 10.7087 10.8018 14.2718 6.68079L14.3695 6.56845C14.3998 6.53264 14.406 6.48076 14.3842 6.43944C14.3607 6.39778 14.3151 6.37499 14.2696 6.38117ZM15.3474 7.2842C15.3034 7.26768 15.2528 7.27886 15.2226 7.3154L15.1248 7.42984C10.9703 12.2347 7.47856 17.5677 4.74628 23.2806L4.68171 23.4139C4.66094 23.456 4.66894 23.5068 4.70047 23.5407C4.7221 23.5631 4.75065 23.5757 4.78165 23.5761C4.79549 23.5767 4.81329 23.5739 4.82746 23.5675L4.96478 23.5092C7.29816 22.5425 9.68204 21.705 12.0496 21.0208C12.1913 20.9796 12.3092 20.8813 12.3763 20.7502C13.4142 18.7275 15.8239 14.8119 15.8239 14.8119C15.8859 14.7237 15.8717 14.5913 15.8717 14.5913C15.8717 14.5913 15.4484 9.9081 15.4224 7.53782L15.4202 7.38802C15.4182 7.34103 15.3907 7.29996 15.3474 7.2842ZM9.18649 23.0122L8.99307 23.0787C7.73852 23.4956 5.8828 24.1362 4.21777 24.9014C4.1286 24.9434 4.07004 25.0596 4.07004 25.0596C4.03904 25.131 4.00144 25.2199 3.95768 25.3196L3.9513 25.3321C3.76477 25.7567 3.50594 26.3956 3.39574 26.6556L3.31042 26.8614C3.29711 26.8941 3.3051 26.9306 3.33119 26.9551C3.34664 26.9698 3.36443 26.9771 3.38733 26.978C3.39906 26.978 3.41248 26.9758 3.42484 26.9694L3.62665 26.8739C4.08214 26.6572 4.65953 26.3289 5.26416 26.0416L5.28494 26.0309C6.43473 25.4855 7.73229 24.8699 8.5142 24.4974C8.5142 24.4974 8.63997 24.4295 8.70359 24.3039L9.28824 23.1304C9.30364 23.0998 9.29924 23.063 9.2776 23.0367C9.25377 23.0113 9.21894 23.0014 9.18649 23.0122Z" fill="white"/>
</svg>
