<svg width="43" height="30" viewBox="0 0 43 30" fill="none" xmlns="http://www.w3.org/2000/svg">
<path fill-rule="evenodd" clip-rule="evenodd" d="M20.0976 0.0584046C17.3065 0.407121 15.6943 0.911895 13.8082 2.02777C10.3438 4.07731 8.00477 7.42982 7.12601 11.6053C6.89055 12.7243 6.78456 14.7009 6.94945 14.8996C7.0847 15.0626 7.72208 15.3675 9.12604 15.941C15.0473 18.3597 22.5904 19.7063 30.2691 19.7157C34.8468 19.7213 36.3618 19.4679 38.3042 18.3716C41.1963 16.7392 42.5305 15.0744 42.5305 13.098C42.5305 11.2394 41.0787 9.4242 38.3704 7.89752C37.5939 7.45985 35.9418 6.7394 35.8728 6.80849C35.8575 6.82373 35.992 7.1885 36.1718 7.61926C36.3514 8.04989 36.603 8.74312 36.7308 9.15973L36.9631 9.91717L37.616 10.3117C38.407 10.7897 39.5976 11.8811 39.8345 12.3454C40.1304 12.9255 40.1593 13.3158 39.9398 13.7692C39.7087 14.2466 38.7898 15.1745 38.0719 15.6553C37.5557 16.001 36.2061 16.7129 35.7158 16.8978C35.452 16.9974 35.4501 16.9956 35.502 16.6946C35.6348 15.9235 35.6652 14.2514 35.5659 13.1882C35.2065 9.34458 33.4163 5.82429 30.6419 3.50587C29.0519 2.17703 27.5315 1.31187 25.8104 0.756645C23.9361 0.152039 21.6169 -0.131453 20.0976 0.0584046ZM5.74605 7.09283C3.01254 8.26344 1.11507 9.81203 0.328746 11.5141C0.114169 11.9786 0.0400394 12.2913 0.00743536 12.8695C-0.0711491 14.2642 0.471145 15.4482 1.73149 16.6334C2.98812 17.8149 4.26333 18.5591 6.95212 19.6798L7.83309 20.047L8.06681 20.5892C8.41608 21.3994 9.15402 22.7227 9.57276 23.2895C11.6183 26.0584 14.8847 28.1493 18.2398 28.8375C19.0072 28.995 21.0415 29.1938 21.1565 29.1227C21.1923 29.1006 21.6019 29.0741 22.0667 29.0639C26.4533 28.9675 30.9846 26.3398 33.3421 22.5256C33.5934 22.119 33.799 21.7627 33.799 21.7338C33.799 21.7049 32.5555 21.6974 31.0355 21.7171C26.4394 21.7767 22.7233 21.5052 19.1687 20.85C13.2236 19.7544 7.9322 17.9319 4.82317 15.909C2.77983 14.5795 2.06515 13.506 2.54726 12.49C2.86362 11.8235 3.73486 11.0207 4.92458 10.2999C5.43708 9.98936 5.45509 9.96418 5.65305 9.28475C5.76461 8.90159 6.01931 8.20352 6.21893 7.73357C6.41864 7.26366 6.58205 6.85604 6.58205 6.82789C6.58205 6.74589 6.48264 6.77736 5.74605 7.09283Z" fill="#DDDDDD"/>
</svg>
