<svg width="6" height="6" viewBox="0 0 6 6" fill="none" xmlns="http://www.w3.org/2000/svg">
<path d="M-3.33786e-06 1.1501C0.785122 0.0212111 2.58695 -0.422025 3.91687 0.488638C4.57187 0.940633 5.00405 1.6682 5.15628 2.44655C5.3106 3.21823 5.20477 4.10908 4.68208 4.80798L4.77248 4.63823C4.61597 5.07918 4.26752 5.37686 3.89914 5.52898C3.52868 5.67673 3.06991 5.70321 2.65973 5.49155C2.24735 5.27759 2.02454 4.88295 1.96281 4.51478C1.93414 4.32512 1.943 4.13556 1.98929 3.95247C2.04883 3.77835 2.22973 3.59088 2.58476 3.66366C2.81415 3.93923 2.91998 3.98553 2.95522 4.05173C2.97732 4.10689 3.01257 4.15975 3.0501 4.19948C3.12069 4.28769 3.2089 4.31188 3.23319 4.3075C3.25519 4.30531 3.31921 4.31407 3.3898 4.28101C3.46258 4.25234 3.49782 4.19948 3.50439 4.18405L3.54193 4.08916L3.59708 4.0142C3.86171 3.64155 4.03375 3.14107 4.00946 2.60754C3.98516 2.08058 3.77569 1.54256 3.38532 1.1721C2.60905 0.435671 1.05642 0.332134 0.108119 1.23831L-3.33786e-06 1.1501Z" fill="black"/>
</svg>
