<svg width="9" height="5" viewBox="0 0 9 5" fill="none" xmlns="http://www.w3.org/2000/svg">
<path d="M-6.67572e-06 1.47894C1.21511 0.283902 3.11401 -0.282775 4.9246 0.138357C5.82442 0.345618 6.69994 0.771171 7.36162 1.43925C7.69465 1.76777 7.99889 2.12937 8.2239 2.53948C8.33422 2.74676 8.41575 2.96947 8.47748 3.19427C8.4952 3.43242 8.71573 3.61551 8.20628 4.01234C7.56233 4.01672 7.62844 3.81393 7.47183 3.67275L7.12118 3.23848C6.90285 2.94737 6.67794 2.66074 6.4155 2.40719C5.88614 1.91551 5.30392 1.45028 4.6093 1.17467C3.23309 0.630067 1.49747 0.733687 0.0815315 1.58477L-6.67572e-06 1.47894Z" fill="black"/>
</svg>
