<svg width="39" height="42" viewBox="0 0 39 42" fill="none" xmlns="http://www.w3.org/2000/svg">
<path fill-rule="evenodd" clip-rule="evenodd" d="M18.5408 0.288467L18.2981 0.576844V2.72102V4.86516L17.8059 4.89358L17.3138 4.92186L17.288 6.53908L17.2625 8.15625L16.5849 8.16542C16.2124 8.17052 15.6333 8.18111 15.2981 8.18886L14.6888 8.20314L14.663 6.58592L14.6375 4.96875H12.5771H10.5169L10.5115 6.77342C10.5085 7.76608 10.4873 8.75925 10.4645 8.98061C10.4151 9.45636 10.5318 9.59445 11.4635 10.1633C11.7936 10.3649 12.3908 10.7395 12.7903 10.9958L13.5169 11.4618V17.4027V23.3438H12.5794H11.6419V20.2158C11.6419 17.149 11.6379 17.0828 11.4386 16.8294C11.1176 16.4212 10.7313 16.3124 9.60582 16.3131C8.42961 16.3136 8.01158 16.4074 7.69744 16.7415C7.48546 16.9669 7.46682 17.0703 7.42311 18.2636L7.37626 19.5441L6.34499 19.5243C5.77782 19.5134 5.08173 19.5034 4.79811 19.5022L4.28249 19.4997L4.27846 18.2943C4.27246 16.4998 4.16446 16.3899 2.34779 16.3301C0.911349 16.2827 0.574106 16.3703 0.23832 16.8777L0 17.2379L0.0787501 29.2053L0.157492 41.1727L0.420549 41.3986L0.683606 41.6249H7.15641C14.3215 41.6249 14.0862 41.6446 14.465 41.0232C14.6318 40.7497 14.6413 40.4553 14.643 35.5312C14.6439 32.6696 14.6757 30.2817 14.7136 30.225C14.913 29.9264 15.2108 29.9062 19.4169 29.9062C23.5169 29.9062 23.6474 29.9118 23.8294 30.0938C24.0123 30.2767 24.0169 30.4062 24.0169 35.4156C24.0169 40.2325 24.0276 40.5702 24.1905 40.8766C24.2859 41.0562 24.5031 41.2979 24.673 41.414L24.9821 41.6249H31.3994C38.4576 41.6249 38.2371 41.6425 38.5719 41.054C38.726 40.7823 38.7363 40.0486 38.735 29.1002C38.7333 16.3147 38.7595 16.9165 38.1886 16.5289C37.9756 16.3844 37.7359 16.3594 36.5627 16.3594C35.314 16.3594 35.1624 16.3775 34.9221 16.5553C34.4716 16.8889 34.379 17.1918 34.3451 18.4453L34.3141 19.5938H32.835H31.356L31.3082 18.3439C31.2366 16.4669 31.0725 16.3125 29.1494 16.3125C28.0895 16.3125 27.9529 16.3322 27.6649 16.5262C27.1164 16.8958 27.1135 16.9158 27.112 20.2734L27.1106 23.3438H26.1731H25.2356L25.2365 17.3672L25.2372 11.3906L25.8224 11.0213C26.1441 10.8181 26.7239 10.4527 27.1106 10.2091C28.2437 9.49545 28.1419 9.78422 28.1419 7.28436C28.1419 5.71039 28.1105 5.06861 28.0294 4.98752C27.9492 4.90734 27.369 4.87502 26.0137 4.87502H24.1106V6.51564V8.15625H22.7535H21.3963L21.3707 6.53908L21.345 4.92186L20.7552 4.89384L20.1654 4.86581L20.1927 4.14384L20.22 3.42186L21.7771 3.03714C22.6335 2.82555 23.3823 2.62266 23.4411 2.58628C23.4999 2.54989 23.5481 2.40195 23.5481 2.25752C23.5481 2.02031 23.4756 1.96172 22.8018 1.65366C22.3912 1.46608 22.0306 1.31252 22.0004 1.31252C21.9701 1.31252 21.3529 1.01719 20.6287 0.65625C19.9046 0.295311 19.1933 0 19.0478 0C18.8678 0 18.7062 0.0919671 18.5408 0.288467ZM18.7669 14.4262C18.2285 14.5435 17.844 14.7945 17.5712 15.2064C17.3239 15.5798 17.3124 15.6505 17.2813 17.0046C17.2617 17.8583 17.2896 18.5499 17.3522 18.7588C17.5397 19.3847 18.2859 19.7816 19.273 19.7807C20.0323 19.7801 20.4844 19.644 20.879 19.2974C21.3678 18.8683 21.5165 18.2479 21.4694 16.834C21.4336 15.7564 21.4169 15.675 21.1504 15.2782C20.6704 14.5632 19.7111 14.2203 18.7669 14.4262ZM18.8948 15.7659C18.5783 15.9191 18.4856 16.2537 18.4856 17.243C18.4856 18.3041 18.5162 18.3542 19.2141 18.4368C19.6094 18.4837 19.7116 18.4616 19.8801 18.293C20.0581 18.1151 20.0794 17.9881 20.0794 17.1052C20.0794 16.1804 20.0645 16.1016 19.8492 15.8864C19.6052 15.6423 19.2441 15.5967 18.8948 15.7659ZM6.17313 24.6771C5.66721 24.8111 5.12455 25.3575 4.98621 25.8721C4.91005 26.1555 4.88408 26.9164 4.90611 28.2228C4.93846 30.1365 4.94108 30.1581 5.19029 30.5344C5.35413 30.7821 5.61376 31.0001 5.93523 31.1603C7.04896 31.7153 8.67291 31.278 9.07538 30.3147C9.23193 29.94 9.25821 26.307 9.10829 25.767C8.85252 24.8463 7.47085 24.3333 6.17313 24.6771ZM30.8096 24.6621C30.278 24.7901 29.7808 25.2291 29.6221 25.7103C29.4434 26.252 29.3892 29.5611 29.5506 30.065C29.7125 30.5698 30.0821 31.0289 30.4508 31.1829C30.626 31.2562 31.1316 31.322 31.5869 31.331C32.2577 31.3441 32.4759 31.3114 32.7825 31.1514C33.6887 30.6786 33.8615 30.1811 33.8584 28.0514C33.857 27.1896 33.8142 26.3033 33.7632 26.0818C33.6334 25.5191 33.2638 25.0006 32.853 24.8047C32.4412 24.6083 31.349 24.5321 30.8096 24.6621Z" fill="#DDDDDD"/>
</svg>
