<svg width="22" height="22" viewBox="0 0 22 22" fill="none" xmlns="http://www.w3.org/2000/svg">
<g clip-path="url(#clip0_19_2968)">
<path d="M6.1001 1.14844C6.9509 1.254 7.79507 1.52814 8.58424 1.98377C11.7409 3.80631 12.8226 7.84281 11 10.9995C9.17747 7.84281 5.14097 6.76123 1.98424 8.58377C1.19621 9.03875 0.537494 9.63168 0.0209961 10.3145C0.268155 6.29215 2.67692 2.85442 6.1001 1.14844Z" fill="#FFD600"/>
<path d="M0.0209856 10.3148C0.537483 9.63198 1.1962 9.03903 1.98424 8.58406C5.14096 6.76153 9.17745 7.8431 11 10.9998C7.35492 10.9998 4.4 13.9547 4.4 17.5998C4.4 18.5103 4.58436 19.3777 4.91778 20.1667C1.95361 18.1961 0 14.8261 0 10.9998C0 10.7698 0.00706353 10.5413 0.0209856 10.3148Z" fill="#1BC47D"/>
<path d="M4.91781 20.1665C4.58438 19.3774 4.40002 18.51 4.40002 17.5995C4.40002 13.9544 7.35494 10.9995 11 10.9995C9.17748 14.1563 10.2591 18.1927 13.4157 20.0153C14.205 20.4709 15.0491 20.7451 15.9 20.8507C14.4244 21.5859 12.7606 21.9995 11 21.9995C8.75117 21.9995 6.65995 21.3247 4.91781 20.1665Z" fill="#18A0FB"/>
<path d="M15.8998 20.8507C15.049 20.7451 14.2048 20.4709 13.4157 20.0153C10.2589 18.1927 9.17735 14.1563 10.9999 10.9995C12.8225 14.1563 16.8589 15.2378 20.0157 13.4153C20.8037 12.9604 21.4624 12.3674 21.9789 11.6846C21.7317 15.707 19.323 19.1447 15.8998 20.8507Z" fill="#7B61FF"/>
<path d="M21.979 11.6845C21.4625 12.3673 20.8038 12.9603 20.0157 13.4152C16.859 15.2378 12.8226 14.1562 11 10.9995C14.6451 10.9995 17.6 8.04454 17.6 4.39946C17.6 3.48899 17.4156 2.62158 17.0822 1.83252C20.0464 3.80317 22 7.17317 22 10.9995C22 11.2295 21.993 11.458 21.979 11.6845Z" fill="#F24822"/>
<path d="M17.0822 1.83258C17.4158 2.62163 17.6001 3.48905 17.6001 4.39952C17.6001 8.0446 14.6452 10.9995 11.0001 10.9995C12.8226 7.84278 11.7411 3.80629 8.58431 1.98374C7.79513 1.52811 6.95096 1.25398 6.10016 1.14841C7.57562 0.413098 9.23955 -0.000488281 11.0001 -0.000488281C13.249 -0.000488281 15.3402 0.674354 17.0822 1.83258Z" fill="#F97F0F"/>
</g>
<defs>
<clipPath id="clip0_19_2968">
<rect width="22" height="22" fill="white"/>
</clipPath>
</defs>
</svg>
