<svg width="17" height="17" viewBox="0 0 17 17" fill="none" xmlns="http://www.w3.org/2000/svg">
<g clip-path="url(#clip0_19_2564)">
<mask id="mask0_19_2564" style="mask-type:luminance" maskUnits="userSpaceOnUse" x="2" y="2" width="13" height="13">
<path d="M12.4715 12.9296C14.9377 10.7212 15.1467 6.93172 12.9384 4.46549C10.73 1.99927 6.94047 1.79024 4.47425 3.99862C2.00803 6.20699 1.799 9.9965 4.00737 12.4627C6.21575 14.9289 10.0053 15.138 12.4715 12.9296Z" fill="white"/>
</mask>
<g mask="url(#mask0_19_2564)">
<g filter="url(#filter0_i_19_2564)">
<path d="M12.4708 12.9302C12.3149 13.0698 12.154 13.1996 11.9879 13.3198C11.8243 13.4389 11.6557 13.5482 11.4831 13.6492C11.0699 13.8895 10.6358 14.0758 10.1902 14.2082C9.73119 14.3455 9.25902 14.4255 8.7861 14.4503C8.30309 14.4757 7.81835 14.442 7.3424 14.3504C6.69492 14.2267 6.06469 13.9961 5.48166 13.6599C4.94302 13.3507 4.44391 12.9502 4.00679 12.4621C3.42297 11.8101 3.00875 11.0657 2.75986 10.2828C2.5057 9.48324 2.42445 8.64427 2.51312 7.82097C2.65482 6.50265 3.23247 5.22602 4.23249 4.22701C4.31025 4.14904 4.39103 4.07314 4.47425 3.99862C4.8679 3.64612 5.2952 3.35515 5.74489 3.12506C6.08089 2.95273 6.42939 2.81564 6.78428 2.71091C8.93116 2.08229 11.3454 2.68657 12.9384 4.46549C14.2592 5.94056 14.7157 7.8897 14.3409 9.68924C14.2804 9.97918 14.198 10.266 14.0953 10.546C13.8097 11.3195 13.3603 12.0443 12.7492 12.6643C12.6587 12.756 12.5666 12.8444 12.4708 12.9302Z" fill="url(#paint0_radial_19_2564)"/>
</g>
<path d="M2.78844 10.2737C3.03606 11.0526 3.44817 11.7932 4.0291 12.442C4.46409 12.9278 4.96075 13.3263 5.49662 13.6339C6.07668 13.9683 6.70387 14.1979 7.34806 14.3209C7.82161 14.412 8.30392 14.4456 8.78454 14.4203C9.25508 14.3956 9.72497 14.316 10.1817 14.1794C10.6249 14.0477 11.0568 13.8623 11.4679 13.6232C11.6398 13.5228 11.8076 13.414 11.9702 13.2955L11.9703 13.2954C12.1356 13.1759 12.2957 13.0467 12.4508 12.9078C12.5461 12.8225 12.6378 12.7344 12.7279 12.6432C13.3359 12.0264 13.783 11.3051 14.0672 10.5355C14.1694 10.2569 14.2513 9.97153 14.3116 9.68308C14.6845 7.89244 14.2303 5.95308 12.916 4.4854C11.3311 2.7154 8.92893 2.11409 6.79271 2.73959C6.43955 2.84381 6.09278 2.98024 5.75854 3.15166C5.31113 3.38058 4.88596 3.6701 4.49424 4.02086C4.41137 4.09507 4.33097 4.17063 4.25367 4.24813C3.25867 5.24213 2.68388 6.51237 2.54292 7.8241C2.45466 8.64334 2.53553 9.4781 2.78844 10.2737ZM2.78844 10.2737L2.76143 10.2822" stroke="url(#paint1_linear_19_2564)" stroke-width="0.0599413"/>
</g>
</g>
<defs>
<filter id="filter0_i_19_2564" x="1.27964" y="2.46948" width="13.1876" height="12.6484" filterUnits="userSpaceOnUse" color-interpolation-filters="sRGB">
<feFlood flood-opacity="0" result="BackgroundImageFix"/>
<feBlend mode="normal" in="SourceGraphic" in2="BackgroundImageFix" result="shape"/>
<feColorMatrix in="SourceAlpha" type="matrix" values="0 0 0 0 0 0 0 0 0 0 0 0 0 0 0 0 0 0 127 0" result="hardAlpha"/>
<feOffset dx="-1.19883" dy="0.659354"/>
<feGaussianBlur stdDeviation="1.019"/>
<feComposite in2="hardAlpha" operator="arithmetic" k2="-1" k3="1"/>
<feColorMatrix type="matrix" values="0 0 0 0 1 0 0 0 0 1 0 0 0 0 1 0 0 0 0.65 0"/>
<feBlend mode="normal" in2="shape" result="effect1_innerShadow_19_2564"/>
</filter>
<radialGradient id="paint0_radial_19_2564" cx="0" cy="0" r="1" gradientUnits="userSpaceOnUse" gradientTransform="translate(14.6104 7.08757) rotate(168.851) scale(12.2473 12.2857)">
<stop stop-color="#C5FFFB"/>
<stop offset="0.652128" stop-color="#217183"/>
<stop offset="1" stop-color="#2ACBCB"/>
</radialGradient>
<linearGradient id="paint1_linear_19_2564" x1="14.0791" y1="7.56331" x2="3.99617" y2="7.7712" gradientUnits="userSpaceOnUse">
<stop stop-color="white"/>
<stop offset="1" stop-color="white" stop-opacity="0"/>
</linearGradient>
<clipPath id="clip0_19_2564">
<rect width="12" height="12" fill="white" transform="translate(8.93974) rotate(48.1572)"/>
</clipPath>
</defs>
</svg>
