<svg width="94" height="94" viewBox="0 0 94 94" fill="none" xmlns="http://www.w3.org/2000/svg">
<mask id="mask0_19_1868" style="mask-type:luminance" maskUnits="userSpaceOnUse" x="12" y="12" width="70" height="70">
<path d="M70.2073 13.5988L25.2347 12.0284C19.0253 11.8115 13.8158 16.6695 13.599 22.8789L12.0285 67.8515C11.8116 74.0609 16.6696 79.2704 22.879 79.4872L67.8516 81.0577C74.061 81.2746 79.2705 76.4166 79.4874 70.2072L81.0578 25.2346C81.2747 19.0252 76.4167 13.8157 70.2073 13.5988Z" fill="white"/>
</mask>
<g mask="url(#mask0_19_1868)">
<path fill-rule="evenodd" clip-rule="evenodd" d="M34.2359 53.6426C32.3467 51.6167 29.1729 51.5059 27.147 53.3951L8.5825 70.7068L4.74627 66.593L23.3108 49.2812C27.6087 45.2734 34.3419 45.5084 38.3498 49.8064L70.7619 84.5641L66.648 88.4004L34.2359 53.6426Z" fill="#DDDDDD"/>
</g>
<path d="M70.109 16.4096L25.1365 14.8391C20.4794 14.6765 16.5723 18.32 16.4096 22.977L14.8392 67.9496C14.6765 72.6067 18.32 76.5138 22.9771 76.6764L67.9496 78.2469C72.6067 78.4096 76.5138 74.7661 76.6765 70.109L78.2469 25.1364C78.4096 20.4794 74.7661 16.5722 70.109 16.4096Z" stroke="#DDDDDD" stroke-width="5.625" stroke-linecap="square"/>
<path d="M54.7792 52.4591C55.6957 52.4911 56.4704 51.8433 56.631 50.8938C58.1879 42.4418 59.3877 41.2995 67.5928 40.6565C68.5388 40.5749 69.2919 39.8117 69.3239 38.896C69.3563 37.9675 68.67 37.1795 67.7329 37.0067C59.6507 35.5911 58.6797 34.564 57.4993 26.0292C57.3666 25.0822 56.6646 24.3828 55.7607 24.3512C54.8314 24.3188 54.0695 24.9671 53.8835 25.9157C52.3525 34.3557 51.1527 35.4982 42.9603 36.1416C41.9884 36.235 41.2489 36.9732 41.216 37.9144C41.184 38.8301 41.8448 39.6172 42.8074 39.791C50.9015 41.2324 51.8602 42.2464 53.0152 50.7803C53.1728 51.7408 53.8881 52.428 54.7792 52.4591Z" fill="#DDDDDD"/>
</svg>
