<svg width="15" height="15" viewBox="0 0 15 15" fill="none" xmlns="http://www.w3.org/2000/svg">
<g clip-path="url(#clip0_19_2528)">
<mask id="mask0_19_2528" style="mask-type:luminance" maskUnits="userSpaceOnUse" x="1" y="1" width="13" height="13">
<path d="M5.84154 13.0529C9.06773 13.8095 12.2964 11.8075 13.0529 8.58128C13.8095 5.35509 11.8074 2.12644 8.58126 1.36989C5.35507 0.613332 2.12642 2.61537 1.36987 5.84156C0.613315 9.06774 2.61535 12.2964 5.84154 13.0529Z" fill="white"/>
</mask>
<g mask="url(#mask0_19_2528)">
<path d="M9.43905 12.7826C9.24459 12.8603 9.04865 12.9272 8.85123 12.9833C8.6566 13.0391 8.46051 13.0841 8.26357 13.1199C7.79259 13.2041 7.32044 13.2304 6.85604 13.2021C6.37731 13.1737 5.90581 13.087 5.45262 12.9481C4.98968 12.8063 4.54538 12.6083 4.12924 12.359C3.56282 12.0206 3.04929 11.5874 2.61631 11.0714C2.21584 10.5959 1.88389 10.048 1.64028 9.43902C1.31492 8.62564 1.18072 7.7836 1.21526 6.96201C1.25047 6.12293 1.46185 5.30612 1.82766 4.56232C2.41309 3.37122 3.39423 2.36884 4.67731 1.77243C4.77717 1.72579 4.87918 1.68211 4.98299 1.64058C5.47407 1.44414 5.97572 1.31709 6.47751 1.25496C6.85258 1.20817 7.22734 1.19879 7.59698 1.22204C9.83147 1.36732 11.8945 2.7637 12.7823 4.98296C13.5184 6.82315 13.2791 8.81262 12.3093 10.3764C12.1529 10.6282 11.9771 10.8696 11.7845 11.0977C11.2506 11.7271 10.5794 12.2547 9.79204 12.628C9.67553 12.6832 9.55852 12.7348 9.43905 12.7826Z" fill="url(#paint0_radial_19_2528)"/>
</g>
</g>
<defs>
<radialGradient id="paint0_radial_19_2528" cx="0" cy="0" r="1" gradientUnits="userSpaceOnUse" gradientTransform="translate(13.3742 8.65666) rotate(-166.802) scale(12.2625 12.3009)">
<stop stop-color="#A9A9A9"/>
<stop offset="0.697537" stop-color="#4B4B4B"/>
<stop offset="1" stop-color="#313131"/>
</radialGradient>
<clipPath id="clip0_19_2528">
<rect width="12" height="12" fill="white" transform="translate(14.4228 2.73975) rotate(103.198)"/>
</clipPath>
</defs>
</svg>
