<svg width="28" height="27" viewBox="0 0 28 27" fill="none" xmlns="http://www.w3.org/2000/svg">
<path d="M19.544 13.4401C19.544 16.6875 16.9113 19.3201 13.664 19.3201C10.4165 19.3201 7.78394 16.6875 7.78394 13.4401C7.78394 10.1926 10.4165 7.56006 13.664 7.56006C16.9113 7.56006 19.544 10.1926 19.544 13.4401Z" stroke="white" stroke-width="1.68" stroke-linecap="round" stroke-linejoin="round"/>
<path d="M16.464 14.56C16.464 14.8692 16.2132 15.12 15.904 15.12C15.5947 15.12 15.344 14.8692 15.344 14.56C15.344 14.2508 15.5947 14 15.904 14C16.2132 14 16.464 14.2508 16.464 14.56Z" stroke="white" stroke-width="1.12" stroke-linecap="round" stroke-linejoin="round"/>
<path d="M11.1331 7.87143C8.55516 5.92 6.4829 4.97234 5.84132 5.61391C4.85819 6.59705 7.60691 10.9398 11.9807 15.3137C16.3547 19.6875 20.6974 22.4363 21.6805 21.4532C22.3375 20.7961 21.3278 18.6386 19.2802 15.9742" stroke="white" stroke-width="1.68" stroke-linecap="round" stroke-linejoin="round"/>
</svg>
