<svg width="44" height="44" viewBox="0 0 44 44" fill="none" xmlns="http://www.w3.org/2000/svg">
<g clip-path="url(#clip0_19_3210)">
<mask id="mask0_19_3210" style="mask-type:luminance" maskUnits="userSpaceOnUse" x="0" y="0" width="44" height="44">
<path d="M44 0H0V44H44V0Z" fill="white"/>
</mask>
<g mask="url(#mask0_19_3210)">
<path fill-rule="evenodd" clip-rule="evenodd" d="M50.5999 -13.2002L42.0439 -4.6442L50.5999 3.9118L59.1559 -4.6442L50.5999 -13.2002ZM13.055 21.6114L12.6661 22.0004L13.055 22.3892L21.6111 30.9452L21.9999 31.3341L22.3889 30.9452L30.9449 22.3892L31.3337 22.0004L30.9449 21.6114L22.3889 13.0554L21.9999 12.6665L21.6111 13.0554L13.055 21.6114ZM21.9999 29.7785L14.2218 22.0004L21.9999 14.2221L29.7781 22.0004L21.9999 29.7785Z" fill="white"/>
</g>
</g>
<defs>
<clipPath id="clip0_19_3210">
<rect width="44" height="44" fill="white"/>
</clipPath>
</defs>
</svg>
