<svg width="44" height="44" viewBox="0 0 44 44" fill="none" xmlns="http://www.w3.org/2000/svg">
<g clip-path="url(#clip0_19_3277)">
<mask id="mask0_19_3277" style="mask-type:luminance" maskUnits="userSpaceOnUse" x="0" y="0" width="44" height="44">
<path d="M44 0H0V44H44V0Z" fill="white"/>
</mask>
<g mask="url(#mask0_19_3277)">
<mask id="mask1_19_3277" style="mask-type:luminance" maskUnits="userSpaceOnUse" x="0" y="0" width="44" height="44">
<path d="M44 0H0V44H44V0Z" fill="white"/>
</mask>
<g mask="url(#mask1_19_3277)">
<path fill-rule="evenodd" clip-rule="evenodd" d="M24.3327 7.35278L24.3212 13.8354L24.3098 20.3181L23.7765 18.8131L23.7754 18.8102L23.0863 33.2422C23.7639 35.1556 24.1269 36.1771 24.1309 36.1812C24.1364 36.1867 24.5225 36.21 24.9891 36.2331C26.4029 36.3033 28.1549 36.4536 29.484 36.6186C29.7917 36.6569 30.0566 36.6765 30.0726 36.6622C30.0885 36.6479 30.0971 30.0474 30.0918 21.9945L30.0821 7.35278H24.3327ZM13.9335 7.3335V21.9901C13.9335 30.0512 13.9414 36.6545 13.9511 36.6643C13.9607 36.6738 14.4599 36.6267 15.0604 36.5594C15.6609 36.4923 16.4909 36.4085 16.9047 36.3737C17.5394 36.3201 19.4344 36.1982 19.6539 36.1969C19.7177 36.1964 19.7217 35.8671 19.7311 29.9889L19.7408 23.7816L20.1993 25.0789C20.2703 25.2793 20.2924 25.342 20.3616 25.5372L21.0505 11.1088C20.9044 10.6961 20.981 10.9128 20.8137 10.4397C20.2508 8.84803 19.7731 7.49796 19.7522 7.43961L19.714 7.3335H13.9335Z" fill="#E4E4E4" stroke="black" stroke-width="0.0308695"/>
<path fill-rule="evenodd" clip-rule="evenodd" d="M13.9335 7.3335V15.5606L19.7291 30.9344C19.7298 30.582 19.7303 30.3917 19.7311 29.9889L19.7408 23.7816L20.1993 25.0789C22.7517 32.3009 24.1228 36.1731 24.1309 36.1812C24.1364 36.1867 24.5225 36.21 24.9891 36.2331C26.4029 36.3033 28.1549 36.4536 29.484 36.6186C29.7917 36.6569 30.0566 36.6765 30.0726 36.6622C30.0836 36.6523 30.0907 33.416 30.0925 28.8504L24.3241 12.266L24.3212 13.8354L24.3098 20.3181L23.7765 18.8131C23.2553 17.3426 22.9073 16.3593 20.8137 10.4397C20.2508 8.84803 19.7731 7.49796 19.7522 7.43961L19.714 7.3335H13.9335Z" fill="url(#paint0_radial_19_3277)"/>
<path fill-rule="evenodd" clip-rule="evenodd" d="M13.9335 7.3335L19.7408 23.7889V23.7814L20.1993 25.0787C22.7515 32.3009 24.1228 36.1731 24.1309 36.1812C24.1362 36.1865 24.5223 36.2098 24.9891 36.2331C26.4028 36.3031 28.1549 36.4534 29.4839 36.6186C29.79 36.6567 30.0535 36.6762 30.0718 36.6622L24.3096 20.315V20.3179L23.7763 18.8131C23.2553 17.3426 22.9073 16.3593 20.8137 10.4397C20.2506 8.84803 19.7729 7.49796 19.752 7.43961L19.7138 7.3335H13.9335Z" fill="white"/>
<path fill-rule="evenodd" clip-rule="evenodd" d="M24.3327 7.35278L24.3212 13.8354L24.3098 20.3181L23.7765 18.8131L23.7754 18.8102L23.0863 33.2422C23.7639 35.1556 24.1269 36.1771 24.1309 36.1812C24.1364 36.1867 24.5225 36.21 24.9891 36.2331C26.4029 36.3033 28.1549 36.4536 29.484 36.6186C29.7917 36.6569 30.0566 36.6765 30.0726 36.6622C30.0885 36.6479 30.0971 30.0474 30.0918 21.9945L30.0821 7.35278H24.3327ZM13.9335 7.3335V21.9901C13.9335 30.0512 13.9414 36.6545 13.9511 36.6643C13.9607 36.6738 14.4599 36.6267 15.0604 36.5594C15.6609 36.4923 16.4909 36.4085 16.9047 36.3737C17.5394 36.3201 19.4344 36.1982 19.6539 36.1969C19.7177 36.1964 19.7217 35.8671 19.7311 29.9889L19.7408 23.7816L20.1993 25.0789C20.2703 25.2793 20.2924 25.342 20.3616 25.5372L21.0505 11.1088C20.9044 10.6961 20.981 10.9128 20.8137 10.4397C20.2508 8.84803 19.7731 7.49796 19.7522 7.43961L19.714 7.3335H13.9335Z" fill="#B1060F" stroke="black" stroke-width="0.0308695"/>
<path fill-rule="evenodd" clip-rule="evenodd" d="M13.9335 7.3335V15.5606L19.7291 30.9344C19.7298 30.582 19.7303 30.3917 19.7311 29.9889L19.7408 23.7816L20.1993 25.0789C22.7517 32.3009 24.1228 36.1731 24.1309 36.1812C24.1364 36.1867 24.5225 36.21 24.9891 36.2331C26.4029 36.3033 28.1549 36.4536 29.484 36.6186C29.7917 36.6569 30.0566 36.6765 30.0726 36.6622C30.0836 36.6523 30.0907 33.416 30.0925 28.8504L24.3241 12.266L24.3212 13.8354L24.3098 20.3181L23.7765 18.8131C23.2553 17.3426 22.9073 16.3593 20.8137 10.4397C20.2508 8.84803 19.7731 7.49796 19.7522 7.43961L19.714 7.3335H13.9335Z" fill="url(#paint1_radial_19_3277)"/>
<path fill-rule="evenodd" clip-rule="evenodd" d="M13.9335 7.3335L19.7408 23.7889V23.7814L20.1993 25.0787C22.7515 32.3009 24.1228 36.1731 24.1309 36.1812C24.1362 36.1865 24.5223 36.2098 24.9891 36.2331C26.4028 36.3031 28.1549 36.4534 29.4839 36.6186C29.79 36.6567 30.0535 36.6762 30.0718 36.6622L24.3096 20.315V20.3179L23.7763 18.8131C23.2553 17.3426 22.9073 16.3593 20.8137 10.4397C20.2506 8.84803 19.7729 7.49796 19.752 7.43961L19.7138 7.3335H13.9335Z" fill="#E50914"/>
</g>
</g>
</g>
<defs>
<radialGradient id="paint0_radial_19_3277" cx="0" cy="0" r="1" gradientUnits="userSpaceOnUse" gradientTransform="translate(21.7446 21.8297) rotate(-19.0977) scale(3.66252 134.155)">
<stop/>
<stop offset="1" stop-opacity="0"/>
</radialGradient>
<radialGradient id="paint1_radial_19_3277" cx="0" cy="0" r="1" gradientUnits="userSpaceOnUse" gradientTransform="translate(21.7446 21.8297) rotate(-19.0977) scale(3.66252 134.155)">
<stop/>
<stop offset="1" stop-opacity="0"/>
</radialGradient>
<clipPath id="clip0_19_3277">
<rect width="44" height="44" fill="white"/>
</clipPath>
</defs>
</svg>
