<svg width="44" height="44" viewBox="0 0 44 44" fill="none" xmlns="http://www.w3.org/2000/svg">
<path d="M36.1581 29.5623C31.0478 27.0884 30.2333 23.2691 30.197 22.9858C30.1532 22.6426 30.1035 22.3729 30.4821 22.0239C30.8471 21.6865 32.4668 20.6841 32.9162 20.3704C33.6591 19.851 33.9861 19.3325 33.745 18.6951C33.5764 18.2541 33.1657 18.088 32.7332 18.088C32.5968 18.0884 32.4608 18.1037 32.3277 18.1335C31.5115 18.3106 30.7189 18.7195 30.2602 18.83C30.2052 18.8441 30.1486 18.8518 30.0918 18.8527C29.8472 18.8527 29.7544 18.744 29.7781 18.4498C29.8353 17.5577 29.9568 15.8166 29.816 14.1902C29.623 11.9525 28.9012 10.8438 28.0454 9.86319C27.6314 9.38766 25.709 7.34473 21.9992 7.34473C18.2894 7.34473 16.3696 9.38766 15.9581 9.85729C15.0998 10.8378 14.3789 11.9466 14.1876 14.1843C14.0468 15.8107 14.1732 17.5509 14.2255 18.4437C14.2424 18.7237 14.1564 18.8469 13.9118 18.8469C13.8549 18.8458 13.7983 18.8383 13.7432 18.8241C13.2854 18.7136 12.4928 18.3047 11.6767 18.1276C11.5436 18.0978 11.4076 18.0825 11.2711 18.0821C10.8369 18.0821 10.428 18.2507 10.2594 18.6892C10.0182 19.3267 10.3437 19.8451 11.089 20.3645C11.5384 20.6782 13.1581 21.6797 13.5232 22.0178C13.9009 22.3669 13.852 22.6367 13.8082 22.9799C13.7719 23.2674 12.9566 27.0868 7.84716 29.5563C7.54783 29.7015 7.03859 30.0084 7.93652 30.5041C9.34626 31.2831 10.2847 31.1997 11.014 31.6692C11.6328 32.0681 11.2669 32.9282 11.7172 33.2384C12.2703 33.6202 13.9051 33.2114 16.0172 33.9086C17.7878 34.4922 18.8635 36.1405 22.0035 36.1405C25.1432 36.1405 26.2504 34.4845 27.9897 33.9086C30.0976 33.2114 31.7357 33.6202 32.2897 33.2384C32.7391 32.9282 32.3741 32.0681 32.993 31.6692C33.7223 31.1997 34.6599 31.2831 36.0704 30.5041C36.9666 30.0143 36.4575 29.7074 36.1581 29.5623Z" fill="white"/>
<path d="M38.3819 29.2716C38.1528 28.6475 37.7159 28.3136 37.2185 28.0372C37.1248 27.9824 37.0388 27.9385 36.9655 27.9048C36.8172 27.828 36.6654 27.7537 36.5145 27.6755C34.9639 26.8534 33.7531 25.8163 32.9135 24.587C32.675 24.2409 32.4682 23.874 32.2955 23.4909C32.2238 23.2861 32.2271 23.1697 32.2786 23.0635C32.3296 22.9816 32.397 22.9112 32.4768 22.8569C32.7432 22.6807 33.018 22.502 33.2042 22.3813C33.5364 22.1663 33.7995 21.996 33.9691 21.8755C34.6056 21.4302 35.0508 20.9572 35.3291 20.4287C35.5232 20.0635 35.6363 19.6607 35.6609 19.2478C35.6855 18.8348 35.6209 18.4215 35.4715 18.0358C35.0499 16.9262 34.0019 16.2374 32.7322 16.2374C32.4643 16.2371 32.1972 16.2654 31.9354 16.3217C31.8654 16.3369 31.7955 16.3529 31.7271 16.3706C31.7389 15.6118 31.722 14.8108 31.6547 14.0225C31.4151 11.2511 30.4447 9.79832 29.4329 8.63986C28.785 7.91389 28.022 7.29973 27.1742 6.82204C25.6388 5.94517 23.8977 5.5 21.9998 5.5C20.102 5.5 18.3693 5.94517 16.8322 6.82204C15.9825 7.29988 15.2178 7.91527 14.5692 8.64321C13.5575 9.8017 12.587 11.257 12.3476 14.0258C12.2801 14.8142 12.2633 15.6194 12.2742 16.374C12.2059 16.3562 12.1368 16.3402 12.0668 16.3251C11.805 16.2688 11.5379 16.2405 11.2701 16.2407C9.99944 16.2407 8.94973 16.9296 8.52984 18.0392C8.37977 18.425 8.31452 18.8386 8.33852 19.252C8.36252 19.6652 8.47523 20.0686 8.66898 20.4345C8.94805 20.9633 9.39323 21.4362 10.0298 21.8814C10.1984 21.9995 10.4623 22.1698 10.7945 22.3872C10.9741 22.5036 11.2363 22.6739 11.4935 22.8442C11.5835 22.9024 11.6599 22.9792 11.7178 23.0694C11.7717 23.1798 11.7734 23.2987 11.6933 23.5178C11.5229 23.8929 11.3195 24.2523 11.0854 24.5912C10.2642 25.7926 9.08885 26.8112 7.58806 27.6265C6.79298 28.048 5.96672 28.3296 5.61765 29.2782C5.35458 29.9941 5.52659 30.8084 6.1952 31.4948C6.44058 31.751 6.7252 31.9664 7.03834 32.133C7.6899 32.4911 8.38276 32.7683 9.1015 32.9586C9.24983 32.9967 9.39063 33.0598 9.51801 33.1448C9.76168 33.3582 9.7271 33.6794 10.0517 34.1499C10.2147 34.393 10.4217 34.6034 10.6622 34.7705C11.3434 35.2409 12.109 35.2704 12.9201 35.3016C13.6528 35.3294 14.4833 35.3615 15.4318 35.6743C15.8247 35.8041 16.2328 36.0554 16.7058 36.3488C17.8415 37.0469 19.3963 38.0023 21.9982 38.0023C24.6 38.0023 26.1657 37.0418 27.3099 36.3413C27.7796 36.0529 28.1851 35.8041 28.567 35.6776C29.5156 35.3639 30.3461 35.3327 31.0787 35.305C31.8899 35.2737 32.6553 35.2442 33.3366 34.7738C33.6215 34.5752 33.8587 34.3162 34.0314 34.0149C34.265 33.6178 34.2591 33.3405 34.4782 33.1465C34.5978 33.0655 34.7301 33.0051 34.8695 32.9677C35.598 32.7771 36.3004 32.4973 36.9606 32.1348C37.2931 31.9563 37.5927 31.7218 37.8459 31.4417L37.8543 31.4316C38.4815 30.7604 38.6392 29.9695 38.3819 29.2716ZM36.0694 30.5142C34.6588 31.2934 33.7212 31.2097 32.9918 31.6794C32.3721 32.0782 32.7389 32.9382 32.2887 33.2486C31.7356 33.6305 30.1008 33.2216 27.9886 33.9189C26.2467 34.4947 25.1356 36.1506 22.0024 36.1506C18.8692 36.1506 17.7841 34.498 16.0135 33.9146C13.9057 33.2174 12.2675 33.6263 11.7135 33.2444C11.2642 32.934 11.6292 32.074 11.0104 31.6752C10.2802 31.2055 9.34263 31.2891 7.93291 30.5142C7.03496 30.0185 7.54423 29.7115 7.84354 29.5665C12.953 27.0928 13.7683 23.2734 13.8045 22.99C13.8484 22.647 13.8973 22.3771 13.5196 22.028C13.1545 21.6907 11.5348 20.6882 11.0854 20.3748C10.3418 19.8554 10.0146 19.3367 10.2558 18.6993C10.4244 18.2584 10.8358 18.0923 11.2675 18.0923C11.404 18.0927 11.5399 18.108 11.6731 18.1378C12.4892 18.3149 13.2818 18.7238 13.7396 18.8342C13.7947 18.8483 13.8513 18.856 13.9082 18.8569C14.1528 18.8569 14.2388 18.7339 14.2219 18.454C14.1696 17.5611 14.0431 15.8209 14.1839 14.1945C14.377 11.9568 15.0979 10.848 15.9545 9.86746C16.366 9.39614 18.2993 7.35322 21.9965 7.35322C25.6936 7.35322 27.632 9.38771 28.0434 9.85734C28.9009 10.8379 29.6226 11.9466 29.814 14.1843C29.9548 15.8107 29.8335 17.5518 29.7761 18.4439C29.7567 18.7381 29.8452 18.8469 30.0898 18.8469C30.1466 18.8459 30.2033 18.8384 30.2584 18.8241C30.7171 18.7138 31.5097 18.3048 32.3257 18.1277C32.4588 18.0978 32.5948 18.0826 32.7312 18.0822C33.1656 18.0822 33.5744 18.2508 33.7431 18.6892C33.9841 19.3266 33.6587 19.8451 32.9142 20.3645C32.4649 20.6782 30.8453 21.6799 30.4801 22.018C30.1015 22.367 30.1514 22.6367 30.1952 22.9799C30.2315 23.2674 31.0459 27.087 36.1561 29.5565C36.458 29.7073 36.9672 30.0142 36.0694 30.5142Z" fill="black"/>
</svg>
