<svg width="16" height="16" viewBox="0 0 16 16" fill="none" xmlns="http://www.w3.org/2000/svg">
<g clip-path="url(#clip0_19_3599)">
<path d="M11.8229 0.16748H4.35626C2.2944 0.16748 0.622925 1.83895 0.622925 3.90081V11.3675C0.622925 13.4293 2.2944 15.1008 4.35626 15.1008H11.8229C13.8848 15.1008 15.5563 13.4293 15.5563 11.3675V3.90081C15.5563 1.83895 13.8848 0.16748 11.8229 0.16748Z" fill="#A9A9A9"/>
<path fill-rule="evenodd" clip-rule="evenodd" d="M4.35638 4.05436C4.35638 3.71071 4.63496 3.43213 4.9786 3.43213C5.32225 3.43213 5.60082 3.71071 5.60082 4.05436V4.67658H4.35638V4.05436ZM8.0896 4.67793C8.0896 5.36522 7.53244 5.92238 6.84516 5.92238C6.15787 5.92238 5.60071 5.36522 5.60071 4.67793H4.35626C4.35626 6.0525 5.47058 7.16682 6.84516 7.16682C8.21973 7.16682 9.33404 6.0525 9.33404 4.67793H8.0896ZM8.71322 3.43213C8.36957 3.43213 8.09099 3.71071 8.09099 4.05436V4.67658H9.33544V4.05436C9.33544 3.71071 9.05686 3.43213 8.71322 3.43213ZM11.8206 4.05436V11.2099C11.8206 11.5535 11.542 11.8322 11.1983 11.8322C10.8547 11.8322 10.5761 11.5535 10.5761 11.2099V4.05436C10.5761 3.71071 10.8547 3.43213 11.1983 3.43213C11.542 3.43213 11.8206 3.71071 11.8206 4.05436ZM8.09114 11.2098C8.09114 11.5533 8.36972 11.8319 8.71336 11.8319C9.05701 11.8319 9.33559 11.5533 9.33559 11.2098V10.5875H8.09114V11.2098ZM4.97875 11.8319C4.6351 11.8319 4.35652 11.5533 4.35652 11.2098V10.5875H5.60097V11.2098C5.60097 11.5533 5.32238 11.8319 4.97875 11.8319ZM6.84545 9.34255C7.53273 9.34255 8.08989 9.8997 8.08989 10.587H9.33433C9.33433 9.21242 8.22002 8.0981 6.84545 8.0981C5.47086 8.0981 4.35652 9.21294 4.35652 10.5875H5.60097C5.60097 9.90022 6.15816 9.34255 6.84545 9.34255Z" fill="#2B2B2B"/>
</g>
<defs>
<clipPath id="clip0_19_3599">
<rect width="16" height="16" fill="white"/>
</clipPath>
</defs>
</svg>
