<svg width="18" height="18" viewBox="0 0 18 18" fill="none" xmlns="http://www.w3.org/2000/svg">
<g clip-path="url(#clip0_19_3537)">
<path d="M13.5 0H4.5C2.01472 0 0 2.01472 0 4.5V13.5C0 15.9853 2.01472 18 4.5 18H13.5C15.9853 18 18 15.9853 18 13.5V4.5C18 2.01472 15.9853 0 13.5 0Z" fill="#FFC414"/>
<path fill-rule="evenodd" clip-rule="evenodd" d="M4.5 4.68606C4.5 4.27183 4.8358 3.93604 5.24999 3.93604C5.66421 3.93604 6.00001 4.27183 6.00001 4.68606V5.43605H4.5V4.68606ZM9.00006 5.43624C9.00003 6.26462 8.32847 6.93615 7.50005 6.93615C6.67164 6.93615 6.00001 6.26446 6.00001 5.43605H4.5C4.5 7.09288 5.84322 8.43616 7.50005 8.43616C9.15692 8.43616 10.5001 7.09301 10.5001 5.43617L10.4998 4.68625C10.4998 4.27202 10.1641 3.93623 9.74986 3.93623C9.33564 3.93623 8.99987 4.27202 8.99987 4.68625L9.00006 5.43624ZM12.0002 4.68612C12.0002 4.27193 12.336 3.93613 12.7503 3.93613C13.1645 3.93613 13.5003 4.27193 13.5003 4.68612V13.3111C13.5003 13.7253 13.1645 14.0611 12.7503 14.0611C12.336 14.0611 12.0002 13.7253 12.0002 13.3111V4.68612ZM5.25018 14.0616C4.83599 14.0616 4.50019 13.7258 4.50019 13.3116V12.5616H6.0002V13.3116C6.0002 13.7258 5.66441 14.0616 5.25018 14.0616ZM7.49999 11.0616C8.32844 11.0616 9 11.7332 9 12.5616L9.00006 13.3114C9.00006 13.7256 9.33583 14.0614 9.75005 14.0614C10.1643 14.0614 10.5 13.7256 10.5 13.3114V12.5614C10.4999 10.9046 9.15679 9.56161 7.49999 9.56161C5.84315 9.56161 4.50019 10.9048 4.50019 12.5616H6.0002C6.0002 11.7332 6.67157 11.0616 7.49999 11.0616Z" fill="white"/>
</g>
<defs>
<clipPath id="clip0_19_3537">
<rect width="18" height="18" fill="white"/>
</clipPath>
</defs>
</svg>
