<svg width="24" height="24" viewBox="0 0 24 24" fill="none" xmlns="http://www.w3.org/2000/svg">
<path d="M5.51052 5.56189C5.54584 5.05687 5.98388 4.67609 6.4889 4.7114L9.68942 4.93521C10.1944 4.97052 10.5752 5.40856 10.5399 5.91358L10.3161 9.1141C10.2808 9.61913 9.84275 9.99991 9.33773 9.96459L6.13721 9.74079C5.63219 9.70548 5.25141 9.26744 5.28672 8.76241L5.51052 5.56189Z" stroke="white" stroke-width="1.375" stroke-linecap="round" stroke-linejoin="round"/>
<path d="M4.93502 13.7914C4.97034 13.2863 5.40838 12.9056 5.9134 12.9409L9.11392 13.1647C9.61894 13.2 9.99973 13.638 9.96441 14.1431L9.74061 17.3436C9.70529 17.8486 9.26725 18.2294 8.76223 18.1941L5.56171 17.9703C5.05669 17.935 4.67591 17.4969 4.71122 16.9919L4.93502 13.7914Z" stroke="white" stroke-width="1.375" stroke-linecap="round" stroke-linejoin="round"/>
<path d="M13.7404 6.13709C13.7758 5.63207 14.2138 5.25128 14.7188 5.2866L17.9193 5.5104C18.4244 5.54572 18.8051 5.98376 18.7698 6.48878L18.546 9.6893C18.5107 10.1943 18.0727 10.5751 17.5677 10.5398L14.3671 10.316C13.8621 10.2807 13.4813 9.84263 13.5166 9.33761L13.7404 6.13709Z" stroke="white" stroke-width="1.375" stroke-linecap="round" stroke-linejoin="round"/>
<path d="M13.1649 14.3671C13.2003 13.862 13.6383 13.4813 14.1433 13.5166L17.3438 13.7404C17.8489 13.7757 18.2296 14.2137 18.1943 14.7188L17.9705 17.9193C17.9352 18.4243 17.4972 18.8051 16.9922 18.7698L13.7916 18.546C13.2866 18.5106 12.9058 18.0726 12.9411 17.5676L13.1649 14.3671Z" stroke="white" stroke-width="1.375" stroke-linecap="round" stroke-linejoin="round"/>
</svg>
