<svg width="18" height="10" viewBox="0 0 18 10" fill="none" xmlns="http://www.w3.org/2000/svg">
<path d="M-5.72205e-06 5.01605C1.83488 2.98535 4.24979 1.46181 6.90733 0.639361C8.24163 0.240333 9.62441 0.00875838 11.0402 0C12.4473 0 13.9073 0.242524 15.2195 0.952474C15.8701 1.32074 16.4611 1.77931 16.9552 2.40115C17.4249 3.02946 17.7315 3.75714 17.877 4.51776C18.1505 5.9973 17.7271 7.83833 16.2472 8.79529C14.7917 9.6948 12.8399 9.46551 11.66 8.23965C11.0756 7.62229 10.7712 6.81089 10.7513 6.01492C10.7426 5.26743 10.8197 4.28848 11.757 4.0129C11.9423 4.87935 11.7239 5.30716 11.8453 5.90909C11.9533 6.46473 12.2113 6.97626 12.5863 7.33118C13.3251 8.05218 14.6681 8.22641 15.5239 7.65097C16.4192 7.12181 16.8052 5.88042 16.6155 4.72504C16.5339 4.14522 16.3266 3.57853 16.0046 3.10005C15.676 2.637 15.1975 2.21368 14.6792 1.88962C12.5135 0.597551 9.63765 0.685655 7.09042 1.29207C4.50128 1.90724 2.04883 3.22131 0.103634 5.10874L-5.72205e-06 5.01605Z" fill="black"/>
</svg>
