<svg width="42" height="41" viewBox="0 0 42 41" fill="none" xmlns="http://www.w3.org/2000/svg">
<path fill-rule="evenodd" clip-rule="evenodd" d="M17.333 0.130559C16.9846 0.282156 16.6784 0.673125 16.2732 1.48334C16.1071 1.81541 15.5025 2.94403 14.9298 3.99137C14.357 5.03871 13.7091 6.22873 13.49 6.63587C12.2857 8.87362 12.0891 9.18034 11.8233 9.23516C11.6922 9.26216 11.0737 9.34616 10.4487 9.42174C9.73015 9.5088 9.17846 9.6277 8.94792 9.74528C8.42688 10.0111 8.3597 10.1574 6.10833 15.9278C5.76947 16.7963 5.45494 17.5906 5.40933 17.6927C5.29612 17.9462 2.0163 26.2257 1.08564 28.6074C0.895965 29.0927 0.538615 30.0227 0.291524 30.6738L-0.157786 31.8578L-0.185006 35.3648L-0.212128 38.872L0.0200966 39.3267C0.160271 39.6015 0.396492 39.8775 0.6159 40.0227L0.979565 40.2635L20.5991 40.2945C34.6461 40.3162 40.3264 40.2958 40.5977 40.2232C41.0436 40.1026 41.4856 39.7548 41.7081 39.3484C41.8491 39.0906 41.8708 38.6448 41.8971 35.4265L41.9268 31.7955L41.605 30.9677C41.4275 30.5126 41.1574 29.7848 41.0041 29.3505C40.8508 28.9162 40.5089 27.9757 40.244 27.2605C39.6775 25.7302 38.4097 22.3207 37.9648 21.1297C37.7929 20.6699 37.4233 19.6667 37.1434 18.9003C36.8634 18.134 36.3649 16.7755 36.0358 15.8814C35.7066 14.9873 35.2354 13.6915 34.9885 13.0018C34.3823 11.308 33.9618 10.9177 32.9214 11.083C32.5393 11.1437 32.367 11.3104 31.4171 12.5382C31.085 12.9675 30.6252 13.5562 30.3953 13.8465C30.1654 14.1368 29.4165 15.1105 28.7312 16.0103C28.0459 16.9102 27.4577 17.6463 27.4242 17.6463C27.3907 17.6463 26.7629 16.4237 26.0291 14.9292C24.8088 12.444 24.2744 11.3375 23.0122 8.68236C22.7694 8.17147 22.3618 7.31454 22.1064 6.77809C21.8512 6.24164 21.5263 5.55193 21.3846 5.24538C19.3059 0.748202 19.1636 0.472864 18.7791 0.20606C18.4301 -0.0360709 17.7923 -0.0694479 17.333 0.130559ZM21.1218 21.7135C20.1095 23.4136 18.6868 25.7479 17.4579 27.7249C17.1348 28.2446 14.9297 31.8502 13.6663 33.9245C13.5337 34.1421 13.0199 34.9837 12.5244 35.7947C12.0289 36.6057 11.639 37.2847 11.6578 37.3035C11.6963 37.342 37.377 37.3556 37.4144 37.3172C37.4275 37.3037 36.9163 36.3521 36.2784 35.2026C35.6403 34.0531 34.6559 32.2661 34.0908 31.2315C33.2534 29.6985 33.027 29.3509 32.8672 29.3524C32.7594 29.3534 32.3899 29.3948 32.0462 29.4446C30.86 29.6161 28.811 29.8227 28.7387 29.7781C28.6989 29.7535 28.4914 29.4403 28.2778 29.0819C28.0642 28.7238 27.5398 27.8957 27.1125 27.2418C26.6852 26.5879 25.8828 25.3423 25.3294 24.4738C24.0818 22.516 22.5517 20.161 22.3893 19.9486C22.2817 19.808 22.1333 20.0145 21.1218 21.7135ZM8.70451 28.6306C8.40663 29.2565 7.31831 31.4728 6.28622 33.5558L4.40963 37.3429L6.23004 37.3178L8.05031 37.2927L9.88222 34.3666L11.7141 31.4405L11.4275 30.9296C11.1129 30.369 9.30704 27.4927 9.26959 27.4927C9.25676 27.4927 9.00253 28.0047 8.70451 28.6306Z" fill="#DDDDDD"/>
</svg>
