<svg width="20" height="20" viewBox="0 0 20 20" fill="none" xmlns="http://www.w3.org/2000/svg">
<path fill-rule="evenodd" clip-rule="evenodd" d="M18.75 10C18.75 14.8325 14.8325 18.75 10 18.75C5.1675 18.75 1.25 14.8325 1.25 10C1.25 5.1675 5.1675 1.25 10 1.25C14.8325 1.25 18.75 5.1675 18.75 10ZM20 10C20 15.5228 15.5228 20 10 20C4.4772 20 0 15.5228 0 10C0 4.4772 4.4772 0 10 0C15.5228 0 20 4.4772 20 10ZM10 15.6248C8.1845 15.6248 6.5698 14.7646 5.5414 13.4296L4.5505 14.1917C5.8075 15.8234 7.7811 16.8748 10 16.8748C12.2189 16.8748 14.1925 15.8234 15.4495 14.1917L14.4586 13.4296C13.4302 14.7646 11.8155 15.6248 10 15.6248Z" fill="white"/>
</svg>
