<svg width="15" height="15" viewBox="0 0 15 15" fill="none" xmlns="http://www.w3.org/2000/svg">
<path fill-rule="evenodd" clip-rule="evenodd" d="M2.25 3.6C2.99556 3.6 3.6 2.99556 3.6 2.25C3.6 1.50444 2.99556 0.9 2.25 0.9C1.50444 0.9 0.9 1.50444 0.9 2.25C0.9 2.99556 1.50444 3.6 2.25 3.6ZM2.7 4.5V4.455C3.58164 4.27599 4.27599 3.58164 4.455 2.7H4.5H9.9H9.945C10.1239 3.58164 10.8184 4.27599 11.7 4.455V4.5V9.9V9.945C10.8184 10.1239 10.1239 10.8184 9.945 11.7H9.9H4.5H4.455C4.27599 10.8184 3.58164 10.1239 2.7 9.945V9.9V4.5ZM1.8 9.945V9.9V4.5V4.455C0.77301 4.24656 0 3.33855 0 2.25C0 1.00737 1.00737 0 2.25 0C3.33855 0 4.24656 0.77301 4.455 1.8H4.5H9.9H9.945C10.1534 0.77301 11.0615 0 12.15 0C13.3926 0 14.4 1.00737 14.4 2.25C14.4 3.33855 13.627 4.24656 12.6 4.455V4.5V9.9V9.945C13.627 10.1534 14.4 11.0615 14.4 12.15C14.4 13.3926 13.3926 14.4 12.15 14.4C11.0615 14.4 10.1534 13.627 9.945 12.6H9.9H4.5H4.455C4.24656 13.627 3.33855 14.4 2.25 14.4C1.00737 14.4 0 13.3926 0 12.15C0 11.0615 0.77301 10.1534 1.8 9.945ZM13.5 2.25C13.5 2.99556 12.8956 3.6 12.15 3.6C11.4044 3.6 10.8 2.99556 10.8 2.25C10.8 1.50444 11.4044 0.9 12.15 0.9C12.8956 0.9 13.5 1.50444 13.5 2.25ZM12.15 13.5C12.8956 13.5 13.5 12.8956 13.5 12.15C13.5 11.4044 12.8956 10.8 12.15 10.8C11.4044 10.8 10.8 11.4044 10.8 12.15C10.8 12.8956 11.4044 13.5 12.15 13.5ZM3.6 12.15C3.6 12.8956 2.99556 13.5 2.25 13.5C1.50444 13.5 0.9 12.8956 0.9 12.15C0.9 11.4044 1.50444 10.8 2.25 10.8C2.99556 10.8 3.6 11.4044 3.6 12.15Z" fill="white"/>
</svg>
