<svg width="16" height="16" viewBox="0 0 16 16" fill="none" xmlns="http://www.w3.org/2000/svg">
<path fill-rule="evenodd" clip-rule="evenodd" d="M15 8C15 11.866 11.866 15 8 15C7.1457 15 6.3272 14.847 5.5703 14.5668C7.6435 13.1213 9 10.719 9 8C9 5.2809 7.6435 2.8787 5.5704 1.4332C6.3272 1.153 7.1457 1 8 1C11.866 1 15 4.134 15 8ZM4.5 0.8042C5.5572 0.2891 6.7449 0 8 0C12.4183 0 16 3.5817 16 8C16 12.4183 12.4183 16 8 16C3.5817 16 0 12.4183 0 8C0 4.8368 1.8358 2.1025 4.5 0.8042Z" fill="white"/>
</svg>
