<svg width="12" height="12" viewBox="0 0 12 12" fill="none" xmlns="http://www.w3.org/2000/svg">
<path fill-rule="evenodd" clip-rule="evenodd" d="M6 12C9.31368 12 12 9.31368 12 6C12 2.68629 9.31368 0 6 0C2.68629 0 0 2.68629 0 6C0 9.31368 2.68629 12 6 12ZM6.59814 10.082C8.59284 9.79224 10.125 8.07504 10.125 6C10.125 3.92496 8.59284 2.20778 6.59814 1.91804C6.42024 1.89221 6.33126 1.87929 6.23928 1.91499C6.16548 1.94365 6.08754 2.01109 6.04854 2.08003C6 2.16592 6 2.26895 6 2.475V9.525C6 9.73104 6 9.83406 6.04854 9.91998C6.08754 9.98892 6.16548 10.0564 6.23928 10.085C6.33126 10.1207 6.42024 10.1078 6.59814 10.082Z" fill="white"/>
</svg>
