<svg width="5" height="9" viewBox="0 0 5 9" fill="none" xmlns="http://www.w3.org/2000/svg">
<path d="M2.426 8.45864C3.27729 7.04531 3.38094 5.31011 2.83621 3.93202C2.56053 3.23969 2.0952 2.65538 1.60339 2.12623C1.34982 1.86389 1.06308 1.63889 0.771972 1.42066L0.337494 1.07011C0.198507 0.913506 -0.00439501 0.979715 8.82149e-05 0.33368C0.39703 -0.175662 0.580122 0.0448624 0.818266 0.0624834C1.04536 0.124209 1.26599 0.205745 1.47327 0.315954C1.88346 0.540857 2.24737 0.845211 2.57378 1.17813C3.24201 1.8396 3.66764 2.71492 3.87494 3.61453C4.29618 5.4247 3.72939 7.32307 2.53406 8.53799L2.426 8.45864Z" fill="black"/>
</svg>
