<svg width="6" height="6" viewBox="0 0 6 6" fill="none" xmlns="http://www.w3.org/2000/svg">
<path d="M5.11317 1.23827C4.16435 0.332088 2.61182 0.435729 1.83608 1.17216C1.44508 1.54033 1.2355 2.07834 1.21152 2.60749C1.18754 3.14103 1.35646 3.64161 1.62338 4.01426L1.67863 4.08922L1.71618 4.184C1.72139 4.19725 1.75789 4.2524 1.83087 4.28097C1.90177 4.31413 1.96329 4.30526 1.98727 4.30745C2.01229 4.31183 2.09987 4.28764 2.17077 4.19943C2.20831 4.15752 2.24376 4.10684 2.26566 4.05169C2.30111 3.98777 2.40641 3.93929 2.6358 3.66361C2.99135 3.59313 3.17173 3.7783 3.23116 3.95253C3.27808 4.13552 3.28642 4.32727 3.25827 4.51474C3.19675 4.88509 2.97363 5.27765 2.56073 5.4915C2.14888 5.70317 1.69219 5.67887 1.32205 5.52894C0.950858 5.37681 0.604696 5.07913 0.448296 4.63819L0.538998 4.80793C0.0187087 4.10904 -0.0897145 3.21829 0.0645995 2.44651C0.216829 1.66826 0.649529 0.940587 1.30432 0.488592C2.63372 -0.421966 4.43544 0.0211652 5.22057 1.15006L5.11317 1.23827Z" fill="black"/>
</svg>
