<svg width="7" height="4" viewBox="0 0 7 4" fill="none" xmlns="http://www.w3.org/2000/svg">
<path d="M0.000164986 2.76313C0.536094 3.72655 1.40463 4.33025 2.2763 4.5221C3.14901 4.71186 3.95916 4.38968 4.49196 3.7328C5.03519 3.09782 5.19993 2.23762 4.75679 1.53695C4.30532 0.838361 3.36797 0.237797 2.28255 0.502634C3.12711 -0.322113 4.71926 -0.0864705 5.58363 0.877994C6.05178 1.34719 6.30098 2.07497 6.27179 2.76104C6.23217 3.45337 5.94543 4.09044 5.53149 4.60135C5.0967 5.09765 4.5347 5.48761 3.88408 5.66904C3.22199 5.83378 2.52966 5.78164 1.94472 5.52306C0.775897 5.03614 -0.0133896 3.88921 0.000164986 2.76313Z" fill="black"/>
</svg>
