<svg width="30" height="29" viewBox="0 0 30 29" fill="none" xmlns="http://www.w3.org/2000/svg">
<path d="M28.9131 22.3604C23.7699 19.8707 22.9502 16.0268 22.9137 15.7415C22.8695 15.3963 22.8195 15.1246 23.2006 14.7733C23.568 14.434 25.1981 13.4251 25.6503 13.1094C26.398 12.5867 26.7272 12.0648 26.4845 11.4233C26.3147 10.9794 25.9015 10.8123 25.4663 10.8123C25.329 10.8127 25.192 10.828 25.0582 10.8581C24.2367 11.0363 23.439 11.4479 22.9773 11.559C22.922 11.5733 22.865 11.581 22.8078 11.5819C22.5615 11.5819 22.4682 11.4724 22.4921 11.1763C22.5496 10.2786 22.6719 8.5263 22.5302 6.88943C22.3359 4.63736 21.6095 3.5215 20.7482 2.53464C20.3315 2.05605 18.3968 0 14.6632 0C10.9294 0 8.99719 2.05605 8.5831 2.5287C7.71925 3.51556 6.99373 4.63142 6.8011 6.88349C6.65938 8.52036 6.78667 10.2718 6.83928 11.1705C6.85626 11.4521 6.76969 11.576 6.52362 11.576C6.46635 11.5751 6.40939 11.5674 6.35389 11.5531C5.89312 11.442 5.09547 11.0304 4.27405 10.8522C4.14007 10.8221 4.00321 10.8068 3.86589 10.8064C3.42888 10.8064 3.01732 10.9761 2.8476 11.4174C2.60491 12.0589 2.93247 12.5807 3.6826 13.1034C4.13488 13.4191 5.76499 14.4272 6.13243 14.7675C6.51259 15.1187 6.46336 15.3903 6.41923 15.7357C6.38275 16.025 5.56219 19.8689 0.41985 22.3544C0.118597 22.5003 -0.39393 22.8092 0.509793 23.3083C1.92861 24.0922 2.87307 24.0082 3.60708 24.4808C4.22992 24.8823 3.86164 25.7479 4.31479 26.0601C4.87144 26.4445 6.51682 26.0329 8.6425 26.7347C10.4245 27.3218 11.5073 28.9808 14.6674 28.9808C17.8275 28.9808 18.9416 27.3143 20.6923 26.7347C22.8136 26.0329 24.4623 26.4445 25.0199 26.0601C25.4721 25.7479 25.1047 24.8823 25.7275 24.4808C26.4616 24.0082 27.4052 24.0922 28.8249 23.3083C29.7269 22.8151 29.2143 22.5063 28.9131 22.3604Z" fill="white"/>
</svg>
