<svg width="13" height="28" viewBox="0 0 13 28" fill="none" xmlns="http://www.w3.org/2000/svg">
<path d="M-1.90735e-06 5.73129C0.0485868 3.72708 1.288 1.88594 2.99057 0.845259C4.68656 -0.226287 7.08156 -0.310116 8.8437 0.772482C10.6301 1.77354 11.8806 3.66306 12.0526 5.7511C12.1783 7.89211 11.1726 9.68903 10.3853 11.303C9.53618 12.906 8.804 14.5266 9.09512 16.1427C9.373 17.7831 10.5683 19.2273 11.3887 20.9449C11.7989 21.8026 12.1408 22.7463 12.1628 23.7561C12.1783 24.7638 11.8497 25.7759 11.155 26.5211C10.8043 26.8872 10.3478 27.1605 9.85599 27.2796C9.34213 27.3898 8.81503 27.295 8.38939 27.0569C7.5359 26.6358 6.90077 25.5443 7.37487 24.6757C7.03527 25.5884 7.74982 26.4704 8.52171 26.779C9.32668 27.1561 10.2177 26.7989 10.7205 26.1397C11.2388 25.4958 11.4681 24.6138 11.3976 23.7959C11.3248 22.9603 10.9808 22.1488 10.5485 21.3838C9.68397 19.8601 8.39821 18.3939 7.93948 16.372C7.50061 14.2906 8.38279 12.3173 9.17011 10.701C9.98832 9.06729 10.8131 7.44887 10.7007 5.85036C10.586 4.25842 9.56045 2.74812 8.18208 1.89481C5.39443 -0.0322457 1.09386 2.32251 0.714537 5.77977L-1.90735e-06 5.73129Z" fill="black"/>
</svg>
