<svg width="46" height="43" viewBox="0 0 46 43" fill="none" xmlns="http://www.w3.org/2000/svg">
<path fill-rule="evenodd" clip-rule="evenodd" d="M23.2664 0.0549937C23.1788 0.114809 23.1358 0.450715 23.119 1.20793C23.0987 2.1234 23.0515 2.40887 22.79 3.19992C22.622 3.70778 22.2947 4.53042 22.0625 5.02804C20.7814 7.77437 20.2307 10.3518 20.3921 12.8469L20.4574 13.8547H22.092H23.7266L23.6529 13.5032C23.6124 13.3098 23.5847 12.6032 23.5914 11.9328C23.6109 9.99548 23.9174 8.8929 25.1682 6.26095C26.1536 4.18731 26.2864 3.78287 26.291 2.83911C26.2968 1.65447 25.7898 0.789809 24.8076 0.309244C24.2803 0.0513379 23.4683 -0.0826292 23.2664 0.0549937ZM5.20247 14.0104C4.0845 14.25 2.94488 15.1017 2.39802 16.1065C2.03644 16.7709 1.911 17.4851 1.59994 20.6516C1.44291 22.25 1.25138 24.1063 1.17432 24.7766C0.638537 29.4363 0.000848423 35.8333 4.13692e-06 36.5574C-0.00252443 38.8886 1.15416 40.7444 3.2613 41.7902C4.99238 42.649 7.1433 42.5127 8.78674 41.44C9.05644 41.2643 9.56271 40.8319 9.91174 40.4796C17.0699 33.2553 17.1411 33.191 18.7404 32.5083C19.7233 32.0888 20.5138 31.8878 21.722 31.7505C23.8292 31.5108 26.3284 32.2162 28.1454 33.5634C28.7754 34.0307 32.3056 37.5255 34.6441 39.9971C36.0291 41.461 37.0939 42.085 38.5354 42.277C41.4486 42.6645 44.0106 41.0076 44.872 38.178C45.082 37.4872 45.0807 35.8701 44.8686 33.9545C44.7254 32.663 44.4674 30.1395 44.0166 25.6203C43.7084 22.5305 43.4453 20.1369 43.2186 18.3547C43.0587 17.0999 42.9893 16.8121 42.7103 16.2453C42.3627 15.5402 41.7143 14.8179 41.1066 14.4592C40.29 13.9776 39.8742 13.9378 35.9807 13.9677L32.39 13.9953L31.8124 14.2977C30.6542 14.904 28.7522 15.5842 27.1531 15.9642C22.6285 17.0392 18.4382 16.5888 13.7409 14.5226L12.4356 13.9485L8.91282 13.9593C6.9753 13.9653 5.30558 13.9883 5.20247 14.0104ZM10.3011 19.0466C9.81574 19.22 9.41888 19.5262 9.18132 19.9106C9.00432 20.1969 8.96832 20.4212 8.92752 21.4891L8.88 22.7338L7.66161 22.788C6.62927 22.8339 6.37714 22.8762 6.01041 23.0649C5.02032 23.5744 4.70447 24.7973 5.31844 25.7441C5.72352 26.3688 6.03985 26.4837 7.56964 26.5611L8.90558 26.6287L8.90661 27.5777C8.90811 28.9458 8.96747 29.1978 9.38682 29.6172C9.8805 30.1109 10.3284 30.2844 10.992 30.2389C11.3994 30.2111 11.628 30.1343 11.925 29.9255C12.5838 29.4625 12.6912 29.1807 12.7341 27.8029L12.7715 26.6047H13.8684C15.1367 26.6047 15.7768 26.4539 16.1466 26.0679C17.0421 25.1328 16.7883 23.624 15.6359 23.0331C15.3445 22.8837 15.082 22.8547 14.0187 22.8547H12.7494L12.7488 21.7532C12.7481 20.3835 12.6489 20.0108 12.1524 19.5142C11.6005 18.9625 10.9771 18.805 10.3011 19.0466ZM35.273 20.052C34.8658 20.2535 34.3836 20.7756 34.2336 21.1772C33.8992 22.0731 34.0465 23.1022 34.5993 23.7301C35.5595 24.8209 37.0953 24.8565 38.0973 23.811C39.2161 22.6436 38.814 20.5973 37.3451 19.9836C36.8586 19.7803 35.7477 19.8169 35.273 20.052ZM21.2337 20.0312C20.5566 20.1064 20.2982 20.2389 20.0571 20.6342C19.6671 21.2739 19.9356 22.1561 20.6262 22.503C20.9007 22.641 21.22 22.6669 22.64 22.6668C24.1484 22.6666 24.3594 22.6471 24.6276 22.4835C25.4594 21.9763 25.4352 20.5518 24.5876 20.1335C24.2965 19.9899 22.1846 19.9254 21.2337 20.0312ZM30.0812 23.5582C29.2506 23.8248 28.5931 24.7632 28.5931 25.682C28.5931 26.4426 29.1033 27.3 29.7982 27.7073C30.3679 28.0412 31.3494 28.0638 31.9301 27.7564C33.4979 26.9268 33.6132 24.675 32.1347 23.7609C31.5972 23.4285 30.7466 23.3446 30.0812 23.5582ZM20.5532 26.0417C19.9067 26.4359 19.6851 27.2777 20.0643 27.8994C20.3739 28.4073 20.686 28.4797 22.5666 28.4795C24.3954 28.4794 24.6861 28.4117 25.063 27.8973C25.4529 27.3653 25.2293 26.4258 24.6234 26.0513C24.3306 25.8703 24.1685 25.8547 22.582 25.8551C21.0279 25.8554 20.8287 25.8737 20.5532 26.0417ZM35.6079 27.111C34.747 27.4185 34.1512 28.1818 34.0566 29.0987C33.9851 29.7908 34.168 30.3652 34.6254 30.8848C35.1246 31.452 35.5984 31.6625 36.381 31.6652C37.5769 31.6692 38.4714 30.9341 38.7183 29.7444C39.0719 28.0413 37.2714 26.5169 35.6079 27.111Z" fill="#DDDDDD"/>
</svg>
