<svg width="30" height="17" viewBox="0 0 30 17" fill="none" xmlns="http://www.w3.org/2000/svg">
<path d="M28.199 3.95402C26.8968 1.51532 24.3635 0 21.5932 0H0.710307C0.307799 0 0 0.331484 0 0.733993C0 0.923394 0.0710233 1.11281 0.213088 1.23119L4.75904 5.80076C5.16155 6.20318 5.70612 6.44004 6.27436 6.44004H21.0014C22.0431 6.44004 22.9192 7.26871 22.9192 8.31041C22.9192 9.35229 22.0904 10.2283 21.0487 10.2283H10.8913C10.4888 10.2283 10.181 10.5597 10.181 10.9623C10.181 11.1517 10.2521 11.3411 10.3941 11.4595L14.9164 16.0291C15.319 16.4317 15.8635 16.6684 16.4318 16.6684H21.025C27.0153 16.6684 31.5375 10.2757 28.199 3.95402Z" fill="#FF3109"/>
</svg>
