<svg width="34" height="35" viewBox="0 0 34 35" fill="none" xmlns="http://www.w3.org/2000/svg">
<path fill-rule="evenodd" clip-rule="evenodd" d="M27.6428 12.2111C27.5993 12.6541 27.2629 12.9778 26.8391 12.9926C26.427 13.007 26.0751 12.7132 25.9713 12.2754C25.1633 8.3777 24.6884 7.94106 20.9085 7.53744C20.4589 7.4884 20.1287 7.14677 20.1139 6.7235C20.0987 6.28847 20.416 5.92424 20.8613 5.84983C24.6194 5.28892 25.1359 4.72349 25.57 0.782415C25.6252 0.339034 25.9558 0.0155351 26.3854 0.000531502C26.8034 -0.0140638 27.1497 0.285798 27.2414 0.718153C28.0612 4.61545 28.5422 5.05775 32.3159 5.44983C32.7538 5.49928 33.0957 5.84049 33.1107 6.26964C33.1254 6.69291 32.8026 7.06911 32.3689 7.13724C28.6049 7.69836 28.0884 8.26378 27.6428 12.2111ZM13.7176 9.17921C12.8636 8.83415 11.9033 8.86769 11.0755 9.27147C10.4689 9.56733 10.0636 10.0753 9.74754 10.5574C9.4352 11.0339 9.09954 11.6653 8.70747 12.4028L8.67916 12.4561L7.41067 14.8418L7.38233 14.8951C6.99023 15.6324 6.65447 16.2638 6.4341 16.7892C6.21106 17.3208 6.01655 17.9408 6.11049 18.6091C6.23868 19.5213 6.74788 20.3362 7.51148 20.8512C8.07102 21.2286 8.7135 21.3256 9.28921 21.3582C9.85787 21.3904 10.5724 21.3654 11.407 21.3363L11.4676 21.3342L14.1679 21.2399L14.2283 21.2377C15.0629 21.2086 15.7776 21.1836 16.3426 21.1119C16.9146 21.0392 17.5488 20.8977 18.0806 20.4821C18.8064 19.9151 19.2575 19.0667 19.3218 18.1478C19.369 17.4745 19.1317 16.8696 18.872 16.3549C18.6155 15.8461 18.2366 15.2397 17.794 14.5315L17.762 14.4803L16.3302 12.1889L16.2982 12.1377C15.8557 11.4294 15.4768 10.8229 15.132 10.3694C14.7831 9.91045 14.3433 9.43203 13.7176 9.17921ZM11.9222 11.9828C12.1132 11.6911 12.2082 11.6153 12.2217 11.6052C12.3837 11.5284 12.5701 11.5219 12.7369 11.5872C12.7512 11.5963 12.8512 11.6653 13.0621 11.9429C13.3259 12.2898 13.6417 12.7929 14.1252 13.5667L15.5571 15.8581C16.0406 16.6318 16.3543 17.1364 16.5505 17.5254C16.7074 17.8368 16.7256 17.9568 16.7276 17.9737C16.7131 18.1523 16.6255 18.317 16.4855 18.4288C16.4706 18.4365 16.3608 18.4887 16.0149 18.5327C15.5826 18.5876 14.9889 18.6096 14.0771 18.6414L11.3768 18.7357C10.4651 18.7676 9.87128 18.787 9.43621 18.7624C9.08808 18.7427 8.97492 18.6982 8.95947 18.6916C8.812 18.5899 8.71313 18.4316 8.68624 18.2545C8.68709 18.2375 8.69681 18.1165 8.83164 17.7949C9.00024 17.3932 9.27796 16.868 9.70628 16.0624L10.9749 13.6767C11.4032 12.8711 11.6832 12.3471 11.9222 11.9828ZM4.24143 22.8873L4.28832 22.8856L7.14658 22.7858L7.19346 22.7842C7.69892 22.7665 8.1539 22.7507 8.53343 22.7684C8.9399 22.7872 9.3732 22.8471 9.80283 23.0475C10.4249 23.3376 10.939 23.8171 11.2718 24.4174C11.5017 24.832 11.5917 25.26 11.6388 25.6642C11.683 26.0416 11.6988 26.4965 11.7165 27.002L11.7181 27.0489L11.818 29.9071L11.8196 29.954C11.8372 30.4596 11.8531 30.9144 11.8354 31.294C11.8166 31.7005 11.7567 32.1338 11.5562 32.5634C11.2662 33.1854 10.7867 33.6996 10.1864 34.0324C9.77183 34.2622 9.34376 34.3522 8.93959 34.3994C8.56223 34.4435 8.10736 34.4594 7.60189 34.4771L7.5549 34.4787L4.69664 34.5785L4.64979 34.5802C4.14432 34.5978 3.68933 34.6137 3.30979 34.596C2.90332 34.5771 2.47006 34.5172 2.04043 34.3168C1.41839 34.0267 0.904164 33.5473 0.571428 32.947C0.341603 32.5324 0.251612 32.1043 0.20434 31.7001C0.160203 31.3227 0.144345 30.8679 0.126722 30.3625L0.12508 30.3155L0.0252672 27.4572L0.0236294 27.4103C0.00595469 26.9049 -0.00995944 26.4499 0.00774567 26.0704C0.0267072 25.6639 0.0866185 25.2306 0.286962 24.801C0.577014 24.1789 1.05655 23.6648 1.65683 23.332C2.07143 23.1021 2.49946 23.0121 2.90362 22.965C3.28099 22.9208 3.73597 22.9049 4.24143 22.8873ZM2.9273 25.6015C2.92063 25.6042 2.91785 25.6057 2.91734 25.606C2.79728 25.6725 2.70137 25.7754 2.64336 25.8998C2.6431 25.9003 2.64176 25.9032 2.63959 25.9101C2.63733 25.9172 2.6336 25.9303 2.62937 25.9517C2.62045 25.9965 2.61058 26.0702 2.60492 26.1915C2.59277 26.4521 2.60388 26.7994 2.62368 27.3665L2.7235 30.2247C2.7433 30.7918 2.75644 31.1391 2.78674 31.3982C2.80085 31.5188 2.81583 31.5916 2.82786 31.6357C2.83357 31.6567 2.83821 31.6696 2.84096 31.6765C2.8436 31.6831 2.84514 31.686 2.84543 31.6865C2.91199 31.8065 3.01483 31.9025 3.13924 31.9604C3.14042 31.9609 3.14391 31.9625 3.14949 31.9642C3.15662 31.9665 3.16977 31.9702 3.1911 31.9745C3.23593 31.9833 3.30959 31.9932 3.43096 31.9989C3.69149 32.011 4.03875 31.9999 4.6059 31.9801L7.46416 31.8803C8.03132 31.8605 8.37852 31.8473 8.63757 31.8171C8.75825 31.803 8.83104 31.7879 8.87513 31.776C8.89611 31.7702 8.90898 31.7656 8.91592 31.7629C8.92032 31.7612 8.92304 31.7599 8.92452 31.7591L8.9259 31.7584C9.04595 31.6919 9.14186 31.589 9.19987 31.4646C9.20011 31.464 9.20146 31.4611 9.20364 31.4543C9.2059 31.4472 9.20962 31.434 9.21387 31.4127C9.22279 31.3679 9.23265 31.2942 9.23831 31.1729C9.25047 30.9123 9.23934 30.565 9.21954 29.9979L9.11972 27.1396C9.09992 26.5725 9.08679 26.2253 9.05649 25.9662C9.04238 25.8456 9.0274 25.7727 9.01537 25.7287C9.00965 25.7077 9.00502 25.6948 9.00227 25.6879C9.0013 25.6854 9.00049 25.6835 8.99983 25.6821C8.99866 25.6794 8.99798 25.6783 8.9978 25.6779C8.93124 25.5578 8.8284 25.4619 8.704 25.4039C8.70347 25.4037 8.70057 25.4024 8.69373 25.4001C8.68661 25.3979 8.67345 25.3942 8.65212 25.3899C8.6073 25.381 8.53364 25.3711 8.41228 25.3655C8.15175 25.3534 7.80447 25.3644 7.23732 25.3843L4.37906 25.4841C3.8119 25.5039 3.46471 25.517 3.20566 25.5473C3.08498 25.5614 3.0122 25.5764 2.96809 25.5884C2.94711 25.5942 2.93425 25.5988 2.9273 25.6015ZM16.9649 28.2965C16.9022 26.5027 18.3057 24.9977 20.0995 24.9351C21.8933 24.8725 23.3983 26.2759 23.4609 28.0697C23.5236 29.8635 22.1201 31.3685 20.3263 31.4311C18.5325 31.4938 17.0275 30.0904 16.9649 28.2965ZM20.0087 22.3367C16.7798 22.4494 14.2537 25.1584 14.3665 28.3873C14.4792 31.6162 17.1881 34.1423 20.4171 34.0296C23.646 33.9168 26.1721 31.2079 26.0593 27.979C25.9466 24.75 23.2377 22.2239 20.0087 22.3367Z" fill="#DDDDDD"/>
</svg>
