<svg width="12" height="13" viewBox="0 0 12 13" fill="none" xmlns="http://www.w3.org/2000/svg">
<path fill-rule="evenodd" clip-rule="evenodd" d="M1.85185 6.52781V0H2.77778V6.52781C3.83437 6.7423 4.62963 7.67644 4.62963 8.79633C4.62963 9.91622 3.83437 10.8504 2.77778 11.0649V12.963H1.85185V11.0649C0.795259 10.8504 0 9.91622 0 8.79633C0 7.67644 0.795259 6.7423 1.85185 6.52781ZM3.7037 8.79633C3.7037 9.56337 3.08189 10.1852 2.31481 10.1852C1.54778 10.1852 0.925926 9.56337 0.925926 8.79633C0.925926 8.02926 1.54778 7.40744 2.31481 7.40744C3.08189 7.40744 3.7037 8.02926 3.7037 8.79633ZM8.33337 12.963H9.2593V6.43518C10.3159 6.2207 11.1111 5.28656 11.1111 4.16667C11.1111 3.04678 10.3159 2.11263 9.2593 1.89819V0H8.33337V1.89819C7.27674 2.11263 6.48148 3.04678 6.48148 4.16667C6.48148 5.28656 7.27674 6.2207 8.33337 6.43518V12.963ZM10.1852 4.16667C10.1852 3.39963 9.56337 2.77778 8.79633 2.77778C8.02926 2.77778 7.40741 3.39963 7.40741 4.16667C7.40741 4.93374 8.02926 5.55559 8.79633 5.55559C9.56337 5.55559 10.1852 4.93374 10.1852 4.16667Z" fill="white"/>
</svg>
