<svg width="40" height="43" viewBox="0 0 40 43" fill="none" xmlns="http://www.w3.org/2000/svg">
<path fill-rule="evenodd" clip-rule="evenodd" d="M18.6619 0.10178C17.8314 0.3406 17.1695 0.732507 16.5426 1.35636C15.6823 2.21281 15.3003 3.01687 14.6623 5.31453C14.3793 6.33333 14.0189 7.60594 13.8613 8.14239C13.7036 8.67884 13.3685 9.84925 13.1165 10.7433C12.8645 11.6374 12.448 13.1004 12.191 13.9944C11.6954 15.7184 11.6553 15.9421 11.8399 15.9505C12.3785 15.9752 28.0289 15.9269 28.0553 15.9004C28.0744 15.8814 27.8973 15.1835 27.6619 14.3496C27.4265 13.5157 27.0869 12.3109 26.9072 11.6722C26.3758 9.7844 26.1196 8.89919 25.791 7.81729C25.6203 7.25527 25.2844 6.08487 25.0445 5.21635C24.3195 2.59014 23.9065 1.81189 22.7764 0.942344C21.91 0.275672 21.252 0.0470652 20.0839 0.00684305C19.4367 -0.0153573 18.9583 0.0165036 18.6619 0.10178ZM9.49272 23.1207C9.23105 24.1346 8.56224 26.4672 7.75482 29.1821C7.26865 30.817 6.71577 32.7018 6.52608 33.3706C6.14084 34.7292 5.99073 34.9977 5.45364 35.2889C5.12641 35.4663 4.93261 35.491 3.82807 35.4955C2.68068 35.5003 2.53057 35.521 2.06312 35.7399C1.17167 36.1574 0.390834 37.1121 0.120893 38.1147C-0.378394 39.969 0.71501 41.9548 2.54989 42.5259C3.07518 42.6894 3.67116 42.6971 15.0529 42.686C21.6262 42.6797 29.3451 42.6482 32.2061 42.6164C37.3098 42.5595 37.4151 42.5544 37.7844 42.3569C38.8762 41.7722 39.7391 40.5187 39.844 39.3643C39.9816 37.8447 39.0036 36.2659 37.5555 35.6702C37.1082 35.4861 36.8723 35.4563 35.8484 35.4544C34.0772 35.4511 33.7828 35.2394 33.3272 33.6409C33.1962 33.1811 32.9896 32.4704 32.868 32.0617C32.3822 30.4287 31.6979 28.0962 31.3689 26.9528C31.1778 26.2886 30.8274 25.0763 30.5902 24.2589L30.1589 22.7727L19.8768 22.7491L9.59463 22.7254L9.49272 23.1207Z" fill="#DDDDDD"/>
</svg>
