<svg width="16" height="16" viewBox="0 0 16 16" fill="none" xmlns="http://www.w3.org/2000/svg">
<path fill-rule="evenodd" clip-rule="evenodd" d="M15 8C15 11.866 11.866 15 8 15C4.134 15 1 11.866 1 8C1 4.134 4.134 1 8 1C11.866 1 15 4.134 15 8ZM16 8C16 12.4183 12.4183 16 8 16C3.5817 16 0 12.4183 0 8C0 3.5817 3.5817 0 8 0C12.4183 0 16 3.5817 16 8ZM8 12.4998C6.5476 12.4998 5.2559 11.8117 4.4331 10.7437L3.6404 11.3534C4.646 12.6588 6.2249 13.4998 8 13.4998C9.7751 13.4998 11.354 12.6588 12.3596 11.3534L11.5669 10.7437C10.7441 11.8117 9.4524 12.4998 8 12.4998Z" fill="white"/>
</svg>
