<svg width="34" height="40" viewBox="0 0 34 40" fill="none" xmlns="http://www.w3.org/2000/svg">
<path fill-rule="evenodd" clip-rule="evenodd" d="M17.2006 38.9151C17.3337 38.6344 17.6485 37.9718 17.9004 37.4421C19.3086 34.4798 19.7015 33.663 21.0278 30.9411C21.501 29.9699 22.0961 28.742 22.3503 28.2123C23.1124 26.624 23.8466 25.1148 26.6653 19.3436C27.1289 18.3946 28.0113 16.5707 28.6264 15.2905C29.2415 14.0104 29.9031 12.665 30.0968 12.3006L30.4488 11.6381L30.2313 11.5256C29.9232 11.3663 28.172 10.6668 27.1274 10.2859C25.1123 9.55107 22.6363 8.97827 20.4257 8.73555C19.1894 8.59974 14.6351 8.59847 13.5235 8.73355C11.4811 8.98171 9.17479 9.49905 7.31205 10.1268C6.46774 10.4114 3.5797 11.5234 3.51388 11.5893C3.50088 11.6023 3.56365 11.7541 3.65337 11.9268C3.7431 12.0995 4.13606 12.9089 4.52661 13.7255C4.91715 14.5422 5.55297 15.8604 5.93957 16.655C6.32608 17.4496 6.94015 18.7136 7.3042 19.464C8.28563 21.4874 9.24222 23.4577 10.0318 25.0822C10.418 25.8768 10.9059 26.888 11.116 27.3294C11.3262 27.7708 11.8312 28.8182 12.2385 29.6569C12.6457 30.4956 13.1153 31.4708 13.282 31.8239C13.4487 32.1771 14.0436 33.405 14.6039 34.5528C15.1644 35.7005 15.8963 37.2354 16.2304 37.9638C16.5645 38.6922 16.8651 39.319 16.8983 39.3563C16.9315 39.3937 17.0675 39.1954 17.2006 38.9151ZM15.3293 31.3237C15.7974 31.2065 16.1651 30.6479 16.2942 29.8576C16.4133 29.1284 17.3359 28.6563 18.4328 28.7634C18.7122 28.7905 19.1838 28.8361 19.4805 28.8643C20.1916 28.9321 20.448 28.8243 20.6709 28.3637C20.8072 28.0821 20.831 27.931 20.7881 27.6187C20.6826 26.8516 20.2203 26.6513 18.5144 26.6337C16.8908 26.617 16.0115 26.897 15.2101 27.6857C14.4791 28.4052 14.0121 29.5542 14.1074 30.3991C14.1523 30.7979 14.39 31.1042 14.785 31.2725C15.0548 31.3874 15.0693 31.3888 15.3293 31.3237ZM14.4271 21.626C16.0332 21.2369 17.2154 19.7463 17.2154 18.1106C17.2154 17.0756 16.9159 16.3393 16.171 15.543C15.6209 14.9549 15.0691 14.6543 14.2117 14.4754C13.2184 14.2684 12.0993 14.5613 11.2876 15.2409C8.95457 17.1942 9.80734 20.8597 12.7726 21.6243C13.3622 21.7763 13.8052 21.7768 14.4271 21.626ZM23.2153 17.9051C24.0742 17.5048 24.5083 16.8974 24.5808 15.9946C24.6752 14.8186 23.7596 13.7622 22.5111 13.6067C21.6605 13.5007 20.7067 14.0547 20.3136 14.8832C20.1206 15.29 20.0582 16.0416 20.1811 16.4804C20.3224 16.9852 20.7954 17.5634 21.2685 17.8098C21.8133 18.0935 22.7161 18.1377 23.2153 17.9051ZM31.6621 9.2362C32.8116 8.88523 33.7674 7.76651 33.9117 6.60299C34.1205 4.91949 32.9804 3.45443 31.1132 3.0066C30.7892 2.92889 30.0488 2.66884 29.4678 2.42871C24.6838 0.451315 19.0217 -0.372161 13.8445 0.15657C10.11 0.537985 7.1253 1.27958 4.26745 2.5361C3.91669 2.69029 3.28725 2.90545 2.86859 3.0142C2.44998 3.12296 1.9292 3.30908 1.71118 3.42772C1.13218 3.74281 0.57055 4.33625 0.266294 4.95431C0.027984 5.43836 8.50159e-05 5.56686 8.72954e-08 6.17924C-0.000254698 7.44739 0.557217 8.37872 1.65029 8.93606C2.67703 9.45965 3.11437 9.43319 4.81536 8.74463C8.97992 7.05889 13.7021 6.24361 18.2331 6.42804C22.0786 6.58452 25.3224 7.29282 29.5682 8.90307C30.6574 9.31607 31.1459 9.39378 31.6621 9.2362Z" fill="#DDDDDD"/>
</svg>
