<svg width="13" height="11" viewBox="0 0 13 11" fill="none" xmlns="http://www.w3.org/2000/svg">
<path d="M0.714539 21.5465C1.09396 25.004 5.39443 27.3583 8.18209 25.4315C9.56046 24.5786 10.586 23.0678 10.7007 21.4756C10.8131 19.8772 9.98834 18.2569 9.17013 16.6252C8.3828 15.009 7.50061 13.0353 7.93949 10.9541C8.40042 8.93239 9.68399 7.46641 10.5485 5.94308C10.9808 5.17776 11.3248 4.36657 11.3976 3.53036C11.4704 2.71291 11.241 1.83081 10.7205 1.18645C10.2177 0.527482 9.3267 0.169841 8.52173 0.547285C7.74983 0.855914 7.03527 1.73801 7.37497 2.65034C6.90077 1.7818 7.53592 0.690132 8.38941 0.268896C8.81505 0.0311685 9.34436 -0.0657966 9.856 0.0468111C10.3478 0.165675 10.8043 0.438842 11.155 0.804817C11.8475 1.55241 12.1761 2.56276 12.1629 3.56997C12.1408 4.58031 11.8012 5.52392 11.3887 6.38099C10.5683 8.0993 9.37301 9.5434 9.09513 11.1835C8.80402 12.7996 9.53621 14.4199 10.3853 16.0236C11.1726 17.6376 12.1783 19.4341 12.0526 21.5747C11.8806 23.6632 10.6301 25.5525 8.84371 26.5534C7.08157 27.6367 4.68657 27.5523 2.99057 26.4815C1.288 25.4398 0.0485878 23.5995 0 21.5945L0.714539 21.5465Z" fill="black"/>
</svg>
