<svg width="45" height="46" viewBox="0 0 45 46" fill="none" xmlns="http://www.w3.org/2000/svg">
<path fill-rule="evenodd" clip-rule="evenodd" d="M20.1198 0.144582C19.494 0.3678 19.1304 0.695082 18.6248 1.49027C18.3529 1.91777 18.004 2.46649 17.8493 2.70977C17.6946 2.95297 17.3399 3.53128 17.0609 3.99491C16.782 4.45858 16.2651 5.30514 15.9124 5.87608C15.5598 6.44703 15.2712 6.93658 15.2712 6.96405C15.2712 6.99144 15.5633 7.03841 15.9204 7.06828C16.8982 7.15031 17.5603 7.56911 17.8898 8.31414L18.0732 8.72861H20.6974H23.3218L23.5856 8.23961C23.9564 7.55205 24.4433 7.23555 25.326 7.10844C26.0024 7.01103 26.7855 7.09841 27.7165 7.37523C28.0312 7.46878 27.9915 7.31561 27.3684 6.03131C26.6123 4.4732 26.5617 4.27331 26.85 3.98497C27.295 3.54003 27.5266 3.75358 28.1659 5.19864C28.4134 5.75797 28.6815 6.24088 28.7619 6.27161C28.8423 6.30247 29.3403 6.17523 29.8687 5.98897L30.8295 5.65023L31.4232 6.36911C32.011 7.08097 33.0065 8.3102 35.1897 11.0195C36.9098 13.1542 37.1671 13.4161 37.544 13.4161C37.777 13.4161 37.9005 13.3551 38.0118 13.1853C38.2496 12.8224 38.2796 12.8861 35.4309 7.69738C34.3913 5.8037 33.5213 4.17611 32.2739 1.79111C31.7779 0.842738 31.2766 0.346427 30.6172 0.150582C29.9536 -0.0464833 20.6701 -0.0518233 20.1198 0.144582ZM14.6448 8.17511C13.2221 8.34088 12.2686 8.81428 11.1826 9.89428C10.259 10.8128 9.74696 11.7759 9.49466 13.0692L9.33382 13.8942L8.62282 14.5763C5.93949 17.1505 4.36029 18.6232 4.25735 18.6474C3.84708 18.7437 3.68538 17.8486 4.03329 17.4065C4.27016 17.1053 4.1994 16.9991 3.68435 16.8829C2.91202 16.7087 1.85516 17.174 1.29455 17.9351C0.799462 18.607 0.377868 19.6006 0.175462 20.5726C-0.00847642 21.4554 -0.0154106 21.7493 0.0117736 27.4632C0.0396179 33.3091 0.044495 33.4471 0.249618 34.1817C0.877929 36.4319 2.22408 37.7369 3.59058 37.4204C4.14335 37.2923 4.34782 37.0091 4.75432 35.8079C5.39538 33.9143 6.00446 33.2732 7.51723 32.8997C7.96663 32.7887 8.35282 32.7164 8.37532 32.739C8.39791 32.7616 8.31652 33.2431 8.19455 33.809C7.85576 35.3807 6.8649 39.7571 6.54999 41.0724C5.60838 45.0063 5.62608 44.9052 5.84863 45.0676C6.11058 45.2592 35.5845 45.2618 35.8465 45.0706C36.0406 44.9283 36.1209 45.3282 34.5816 38.7755C34.2183 37.2286 33.7763 35.3302 33.5996 34.5567C33.4229 33.7833 33.2506 33.0556 33.2169 32.9396C33.145 32.6922 33.1641 32.6899 33.8161 32.8634C34.4008 33.0191 34.5525 33.1152 35.2399 33.7655C36.0015 34.4861 36.6054 34.7404 37.5459 34.7366C38.9804 34.7306 39.7902 34.084 41.0661 31.9256C42.4932 29.5111 43.6015 27.5348 43.7905 27.0663C44.0271 26.4803 44.1205 24.9673 43.9696 24.1604C43.7232 22.8424 42.8691 21.5774 40.1639 18.5255C39.2688 17.5155 39.0418 17.3167 38.5073 17.0741C38.0358 16.8601 37.8226 16.844 37.4026 16.9904L37.0999 17.096L37.4355 17.4397C37.8111 17.8244 37.8697 18.1729 37.5997 18.4172C37.3098 18.6796 37.093 18.5921 36.4105 17.9375C36.0489 17.5906 34.9203 16.53 33.9027 15.5807C32.2603 14.0485 32.0524 13.8217 32.0524 13.5613C32.0524 13.1278 31.8001 12.2274 31.4995 11.588C30.7311 9.95394 29.2932 8.77631 27.4942 8.30767C26.7979 8.12638 25.3099 8.12128 24.885 8.29875C24.2553 8.56194 24.1998 9.06928 24.7441 9.58717L25.1234 9.94794L25.7568 9.88905C27.7049 9.70794 29.6941 11.1119 30.0825 12.9416C30.2281 13.6282 30.1639 14.7821 29.9463 15.3849L29.7941 15.8067L30.5249 16.5048C31.2556 17.203 35.6431 21.4304 36.6754 22.4309L37.2225 22.9613L37.0785 23.2398C36.9366 23.514 36.7591 23.6349 36.4983 23.6349C36.4255 23.6349 35.7929 23.0616 35.0925 22.3608C34.3923 21.6601 33.7956 21.1105 33.7668 21.1394C33.7378 21.1682 33.6796 22.1052 33.6374 23.2216C33.5293 26.0797 33.1515 28.0941 32.2718 30.5021C32.0881 31.0048 31.889 31.4161 31.8294 31.4161C31.6838 31.4161 31.0212 30.9614 31.0212 30.8614C31.0212 30.8179 31.1722 30.3658 31.3567 29.857C32.0561 27.9287 32.6149 24.7394 32.6149 22.677V21.7554L31.0446 21.7811L29.4743 21.8067L29.4487 23.5386C29.4335 24.5615 29.3836 25.3099 29.3268 25.3667C29.274 25.4197 28.9691 25.4841 28.6494 25.5099L28.068 25.5567V27.4625V29.3681L27.805 29.5953C27.5775 29.7917 27.4476 29.8224 26.844 29.8224H26.1462V31.2214V32.6204L25.8758 32.8908C25.7271 33.0395 25.3263 33.343 24.9852 33.5652L24.3649 33.9694V35.17C24.3649 36.3119 24.3536 36.384 24.1319 36.6475C24.0037 36.7998 23.6043 37.0994 23.2441 37.3134C22.4254 37.7997 22.1608 38.1435 21.9704 38.9681C21.8877 39.3262 21.7325 39.7129 21.6255 39.8275C21.2103 40.2721 20.1978 40.3481 19.6902 39.9728C19.4573 39.8006 19.385 39.6334 19.1209 38.6567C18.975 38.1176 18.5625 37.6725 17.7903 37.2216C16.9312 36.7197 16.8649 36.5741 16.8649 35.187V34.0736L15.9978 33.4246L15.1305 32.7755L15.1048 31.2989L15.0789 29.8224L14.4016 29.821C14.0291 29.8201 13.6779 29.7885 13.6212 29.7506C13.3491 29.569 13.3024 29.2262 13.3024 27.412V25.5518L12.9244 25.5879C12.4933 25.6289 12.039 25.4721 11.9275 25.2434C11.8858 25.1579 11.83 24.3497 11.8035 23.4474L11.7555 21.8067H10.356H8.95655L8.97793 22.9317C9.02491 25.4016 9.45155 27.8418 10.1775 29.7926C10.4805 30.6071 10.4905 30.6708 10.3618 30.9788C10.197 31.3734 9.89285 31.4987 9.64488 31.2743C9.26366 30.9294 8.39623 27.9013 8.10091 25.8849C8.02158 25.3435 7.92943 24.0251 7.89596 22.9552C7.86249 21.8853 7.81205 21.0099 7.78376 21.0099C7.75552 21.0099 7.13666 21.6005 6.40852 22.3224C5.68046 23.0442 5.01991 23.6349 4.94058 23.6349C4.72291 23.6349 4.30243 23.2688 4.30243 23.0792C4.30243 22.9841 5.23955 22.0099 6.4821 20.8135C8.96135 18.4262 11.1822 16.2945 11.5075 15.9897C11.7129 15.7973 11.7183 15.7676 11.585 15.5605C11.4149 15.2962 11.2395 14.3969 11.241 13.7973C11.2441 12.5894 12.0108 11.2289 13.0705 10.5512C13.9004 10.0203 14.6246 9.82567 15.5743 9.87825L16.393 9.92364L16.7227 9.52125C17.1199 9.0365 17.1291 8.91097 16.7946 8.53764C16.4013 8.09878 15.9514 8.02288 14.6448 8.17511ZM17.5518 10.1229L17.3479 10.3817L17.9437 10.9145L18.5394 11.4474H20.6626H22.7858L23.3388 10.9552C23.643 10.6845 23.8914 10.4208 23.8908 10.3692C23.8904 10.3177 23.8108 10.1805 23.7139 10.0646C23.5383 9.854 23.5335 9.85361 20.6468 9.85875L17.7555 9.86403L17.5518 10.1229ZM14.721 10.9814C13.7654 11.1796 12.9281 11.8514 12.5253 12.7434C12.2454 13.363 12.2425 14.5142 12.5193 15.1151C12.8054 15.7364 13.332 16.277 13.9436 16.5774C14.407 16.8049 14.5814 16.8376 15.318 16.8347C16.0436 16.832 16.2284 16.7969 16.6365 16.5842C17.5786 16.0934 18.171 15.1677 18.2501 14.063C18.313 13.1841 18.1033 12.6117 17.4663 11.9237C16.7097 11.1065 15.7338 10.7715 14.721 10.9814ZM25.4284 10.977C24.5512 11.1628 23.8081 11.713 23.3772 12.4956C23.1301 12.9441 23.1028 13.0791 23.1045 13.838C23.1068 14.8789 23.2923 15.3366 23.9898 16.0233C24.5922 16.6162 25.2499 16.8849 26.0993 16.8849C28.1495 16.8849 29.5868 14.9797 29.0164 13.0178C28.8233 12.3535 28.1193 11.5549 27.4296 11.2179C26.8834 10.951 26.034 10.8488 25.4284 10.977ZM14.9894 11.8216C14.1363 12.0614 13.1149 13.1461 13.1149 13.8125C13.1149 14.1766 13.3695 14.4474 13.7121 14.4474C14.0315 14.4474 14.2295 14.2809 14.7403 13.5827C14.8807 13.3908 15.1841 13.104 15.4146 12.9454C15.8219 12.6652 15.903 12.4873 15.7755 12.1547C15.6879 11.9267 15.2603 11.7455 14.9894 11.8216ZM25.1899 12.0586C24.8021 12.2729 24.0991 13.1914 24.0264 13.5791C23.9328 14.0782 24.1353 14.3925 24.5739 14.4293C24.9023 14.4569 24.9389 14.4288 25.3987 13.7965C25.6635 13.4326 25.914 13.1349 25.9555 13.1349C25.997 13.1349 26.1013 12.9869 26.1871 12.806C26.3201 12.5258 26.325 12.4391 26.2206 12.2201C26.0738 11.9124 25.5916 11.8368 25.1899 12.0586ZM19.2555 13.8384V14.8225H20.6629L22.0703 14.8224L22.0692 13.838L22.068 12.8537L20.6618 12.854L19.2555 12.8543V13.8384ZM18.6545 16.1682C18.3505 16.6602 17.6181 17.2942 17.0352 17.5699C15.8493 18.1309 14.7586 18.1388 13.6125 17.5945L12.9274 17.2691V20.827V24.3849H13.2026C13.5643 24.3849 13.9063 24.52 14.1424 24.7561C14.3221 24.9358 14.3337 25.0601 14.3337 26.8224V28.6974H14.9251C15.5399 28.6974 15.6975 28.7683 15.9606 29.1636C16.0863 29.3523 16.1149 29.65 16.1149 30.7677V32.1401L16.8214 32.6813C17.2246 32.9901 17.6271 33.3916 17.7589 33.6165C17.9668 33.9712 17.9899 34.1147 17.9899 35.0482V36.0857L18.4876 36.3666C19.4343 36.9009 20.0336 37.7297 20.2803 38.8458C20.4054 39.4118 20.8739 39.0476 21.0341 38.2599C21.1714 37.5846 21.6429 37.0464 22.7178 36.338L23.2868 35.963L23.3337 34.838C23.3613 34.1771 23.4304 33.6257 23.5014 33.5013C23.6362 33.2652 24.4396 32.6042 24.8493 32.3924L25.1149 32.2551V30.8951C25.1149 29.522 25.2101 29.0155 25.5038 28.826C25.5735 28.781 25.9259 28.7231 26.2868 28.6974L26.943 28.6505L26.9899 26.8224C27.0205 25.6293 27.0768 24.9244 27.152 24.7931C27.2855 24.5602 27.7252 24.3849 28.1758 24.3849H28.4899V20.8208V17.2567L28.0228 17.4934C26.2469 18.3934 24.4901 18.0761 23.029 16.5915L22.3962 15.9486V17.3543C22.3962 18.6349 22.3795 18.7766 22.2087 18.9474C21.999 19.1571 21.6481 19.1931 21.4774 19.0224C21.3991 18.9441 21.3649 18.4452 21.3649 17.3817V15.8536H20.8493H20.3337V17.3515C20.3337 18.8445 20.3329 18.8498 20.1 19.0024C19.7921 19.2041 19.4172 19.1084 19.2991 18.798C19.2494 18.6672 19.2087 17.9512 19.2087 17.2069C19.2087 15.9353 19.1978 15.8536 19.0289 15.8536C18.9258 15.8536 18.7658 15.9881 18.6545 16.1682ZM18.0513 18.8376C17.8296 19.0826 17.8593 19.4928 18.1395 20.0549C18.4138 20.6055 18.9561 21.0935 19.638 21.4034C20.009 21.572 20.2564 21.6111 20.9024 21.603C21.8276 21.5915 22.419 21.3557 23.0133 20.7615C23.8595 19.9154 23.9532 18.5916 23.1603 18.6845C22.9626 18.7076 22.884 18.8016 22.7441 19.1817C22.5183 19.7955 22.0978 20.2194 21.5263 20.4092C20.48 20.7567 19.1624 20.2027 18.9611 19.3306C18.817 18.7064 18.3829 18.4711 18.0513 18.8376ZM25.6774 21.1036C25.5072 21.2739 25.4899 21.4161 25.4899 22.6505C25.4899 23.9036 25.5052 24.0251 25.6856 24.2055C25.8292 24.3491 25.9475 24.3851 26.1309 24.341C26.5706 24.2351 26.6149 24.0786 26.6149 22.6326C26.6149 21.4161 26.5975 21.2737 26.4274 21.1036C26.3243 21.0005 26.1555 20.9161 26.0524 20.9161C25.9493 20.9161 25.7805 21.0005 25.6774 21.1036ZM14.7622 21.9071C14.6416 22.0278 14.6149 22.3052 14.6149 23.4377C14.6149 24.7624 14.6241 24.8295 14.8319 25.0248C15.1005 25.2771 15.2195 25.2803 15.4587 25.0411C15.629 24.8708 15.6462 24.7286 15.6462 23.4881C15.6462 22.7261 15.6033 22.0424 15.5491 21.9412C15.4296 21.718 14.9713 21.6982 14.7622 21.9071ZM19.0591 22.6135C18.9003 22.7891 18.8805 22.9657 18.8805 24.2155C18.8805 25.5786 18.8871 25.6255 19.1019 25.7994C19.3833 26.0274 19.5369 26.0254 19.7712 25.7911C19.9424 25.6199 19.9587 25.4786 19.9587 24.165C19.9587 22.8904 19.9392 22.7087 19.7872 22.5713C19.554 22.3601 19.2738 22.3764 19.0591 22.6135ZM21.529 23.6424C21.3786 23.7299 21.3649 23.9681 21.3649 26.4936C21.3649 29.2349 21.366 29.25 21.5733 29.3951C21.8487 29.5881 21.983 29.5793 22.2087 29.3536C22.3875 29.1747 22.3962 29.0411 22.3962 26.4506C22.3962 23.8619 22.3878 23.7307 22.2149 23.6381C21.9883 23.5169 21.7418 23.5184 21.529 23.6424ZM23.4701 25.9275C23.2439 26.1536 23.2399 26.1849 23.2399 27.7411C23.2399 29.1561 23.2582 29.3411 23.4114 29.4797C23.6378 29.6846 24.0165 29.6769 24.2098 29.4634C24.3414 29.318 24.3648 29.0516 24.3635 27.7056C24.3627 26.8331 24.3311 26.0728 24.2932 26.0161C24.2235 25.9118 23.8631 25.6974 23.7574 25.6974C23.7259 25.6974 23.5966 25.801 23.4701 25.9275ZM17.0712 25.9036C16.9921 25.9826 16.9587 26.5107 16.9587 27.6795C16.9587 29.2922 16.965 29.3474 17.1671 29.4889C17.4323 29.6747 17.6559 29.6742 17.8426 29.4876C17.9652 29.365 17.9899 29.0673 17.9899 27.713C17.9899 26.3587 17.9652 26.061 17.8426 25.9384C17.6683 25.7641 17.2305 25.7444 17.0712 25.9036ZM19.1149 30.7312C18.7687 30.8549 18.7399 31.0352 18.7399 33.079C18.7399 35.0647 18.7417 35.0827 18.964 35.305C19.2226 35.5636 19.5123 35.5342 19.7272 35.2274C19.8378 35.0694 19.8649 34.6396 19.8649 33.0427V31.0547L19.6179 30.8605C19.3579 30.656 19.339 30.6511 19.1149 30.7312ZM21.5201 30.9314C21.3858 31.0796 21.3649 31.3745 21.3649 33.1199C21.3649 34.955 21.3804 35.151 21.5364 35.2922C21.7642 35.4984 21.9806 35.488 22.2087 35.2599C22.3842 35.0844 22.3962 34.9474 22.3962 33.1245C22.3962 31.5132 22.371 31.1406 22.2502 30.9683C22.0732 30.7155 21.731 30.6982 21.5201 30.9314ZM13.4971 32.6276C13.281 32.8439 13.2449 32.9706 13.121 33.9474C12.961 35.2085 12.8368 35.7918 12.5891 36.4451C12.0098 37.9726 11.9599 38.362 12.3135 38.5936C12.7094 38.853 12.9078 38.6969 13.316 37.8056C14.1337 36.0201 14.2405 35.9161 15.2565 35.9161C15.9988 35.9161 16.3024 35.7434 16.3024 35.3213C16.3024 34.9351 15.981 34.7477 15.2887 34.7301C14.4521 34.7087 14.3337 34.5661 14.3337 33.5799C14.3337 32.8171 14.2468 32.6037 13.8931 32.4989C13.7515 32.4569 13.6275 32.4972 13.4971 32.6276ZM29.1595 38.3706C29.1151 38.4901 29.028 38.8034 28.9657 39.0667L28.8528 39.5454L28.3394 39.6685C27.3208 39.9129 27.3095 40.1525 28.2954 40.6069L28.9587 40.9126V41.3089C28.9587 41.8739 29.0572 42.2913 29.1906 42.2913C29.2537 42.2913 29.4952 42.0985 29.7273 41.8632L30.149 41.4354L30.7645 41.7736C31.103 41.9596 31.4044 42.0723 31.4343 42.0243C31.464 41.9759 31.3407 41.612 31.1601 41.2157C30.9795 40.8194 30.8604 40.4457 30.8955 40.3854C30.9306 40.3249 31.1208 40.0798 31.3184 39.8406C31.9218 39.1097 31.779 38.9055 30.8349 39.1502C30.5134 39.2335 30.2335 39.2846 30.2128 39.2639C30.192 39.2432 30.0596 38.9983 29.9185 38.7196C29.625 38.1405 29.3004 37.9912 29.1595 38.3706ZM16.1515 40.5593C16.002 40.7874 16.0073 40.8139 16.2936 41.2745C16.5638 41.7089 16.5778 41.7672 16.4467 41.912C16.2532 42.1259 16.2645 42.4152 16.4739 42.6046C16.6893 42.7996 16.8515 42.8009 17.0628 42.6098C17.2146 42.4726 17.2463 42.4726 17.4425 42.6098C18.0457 43.0323 18.7176 42.3582 18.1791 41.8709C17.9949 41.7042 17.9956 41.6999 18.2729 41.3843C18.6042 41.0069 18.6157 40.8969 18.3581 40.5694C18.1345 40.2851 17.7679 40.2444 17.4483 40.4684C17.2597 40.6004 17.2201 40.6004 17.0315 40.4684C16.7112 40.2439 16.3325 40.2831 16.1515 40.5593Z" fill="#DDDDDD"/>
</svg>
