<svg width="30" height="30" viewBox="0 0 30 30" fill="none" xmlns="http://www.w3.org/2000/svg">
<path fill-rule="evenodd" clip-rule="evenodd" d="M25.1167 0.504167C23.5125 1.63913e-07 22.0458 0 19.1125 0H10.2208C7.2875 0 5.82083 1.63913e-07 4.21667 0.504167C3.36507 0.815687 2.59167 1.30928 1.95048 1.95048C1.30928 2.59169 0.815687 3.36507 0.504167 4.21667C1.63913e-07 5.8025 0 7.27833 0 10.2209V19.1079C0 22.0458 1.63913e-07 23.5125 0.504167 25.1167C0.815687 25.9683 1.30928 26.7417 1.95048 27.3829C2.59167 28.0242 3.36507 28.5177 4.21667 28.8292C5.8025 29.3333 7.27833 29.3333 10.2208 29.3333H19.1125C22.0458 29.3333 23.5125 29.3333 25.1167 28.82C25.9683 28.5085 26.7417 28.015 27.3829 27.3737C28.024 26.7326 28.5177 25.9591 28.8292 25.1075C29.3333 23.5217 29.3333 22.0458 29.3333 19.1033V10.2254C29.3333 7.2875 29.3333 5.82083 28.8292 4.21667C28.5177 3.36507 28.024 2.59169 27.3829 1.95048C26.7417 1.30928 25.9683 0.815687 25.1167 0.504167ZM20.2902 10.9082C20.0748 11.1373 19.6944 11.1373 19.4652 10.9082L19.4744 10.9174C18.5073 10.0466 17.0269 9.40947 15.4869 9.40947C14.2769 9.40947 13.0715 9.84947 13.0715 10.9586C13.0715 12.014 14.177 12.4188 15.525 12.9124C15.6347 12.9525 15.7458 12.9932 15.8582 13.0348C18.4707 13.9377 20.6248 15.0469 20.6248 17.6777C20.6248 20.5331 18.4615 22.4904 14.9103 22.7287L14.5895 24.2825C14.5618 24.4198 14.4874 24.5436 14.3787 24.6321C14.2699 24.7207 14.1339 24.7689 13.9937 24.7683L11.7707 24.75C11.3903 24.7454 11.1107 24.3925 11.1886 24.0121L11.5278 22.3758C10.1381 21.9952 8.91896 21.3077 7.95646 20.359C7.84003 20.2422 7.77465 20.084 7.77465 19.919C7.77465 19.7542 7.84003 19.596 7.95646 19.479L9.19396 18.2415C9.24931 18.1861 9.31504 18.1421 9.38738 18.1122C9.45974 18.0822 9.53731 18.0668 9.61563 18.0668C9.69397 18.0668 9.77152 18.0822 9.84388 18.1122C9.91622 18.1421 9.98195 18.1861 10.0373 18.2415C11.229 19.4377 12.769 19.9282 14.2357 19.9282C15.849 19.9282 16.9398 19.259 16.9398 18.1177C16.9398 17.1151 16.0446 16.7792 14.3456 16.1416C14.1652 16.0737 13.9757 16.0026 13.7773 15.9269C11.5911 15.1432 9.52396 14.0019 9.52396 11.3436C9.52396 8.27281 12.0265 6.77406 14.9782 6.62281L15.299 5.07364C15.3263 4.9377 15.3995 4.81525 15.5063 4.72681C15.613 4.63837 15.7471 4.58929 15.8856 4.58781H18.104C18.4844 4.58781 18.7686 4.94531 18.6906 5.32572L18.3286 7.06739C19.4614 7.44496 20.5082 8.04313 21.4086 8.82739C21.6652 9.07489 21.679 9.48739 21.4361 9.71656L20.2902 10.9082Z" fill="#00D233"/>
</svg>
