<svg width="15" height="18" viewBox="0 0 15 18" fill="none" xmlns="http://www.w3.org/2000/svg">
<path fill-rule="evenodd" clip-rule="evenodd" d="M2.5 8.8125V0H3.75V8.8125C5.1764 9.1021 6.25 10.3632 6.25 11.875C6.25 13.3868 5.1764 14.6479 3.75 14.9375V17.5H2.5V14.9375C1.0736 14.6479 0 13.3868 0 11.875C0 10.3632 1.0736 9.1021 2.5 8.8125ZM5 11.875C5 12.9105 4.1605 13.75 3.125 13.75C2.0895 13.75 1.25 12.9105 1.25 11.875C1.25 10.8395 2.0895 10 3.125 10C4.1605 10 5 10.8395 5 11.875ZM11.25 17.5H12.5V8.6875C13.9264 8.3979 15 7.1368 15 5.625C15 4.1132 13.9264 2.8521 12.5 2.5625V0H11.25V2.5625C9.8236 2.8521 8.75 4.1132 8.75 5.625C8.75 7.1368 9.8236 8.3979 11.25 8.6875V17.5ZM13.75 5.625C13.75 4.5895 12.9105 3.75 11.875 3.75C10.8395 3.75 10 4.5895 10 5.625C10 6.6605 10.8395 7.5 11.875 7.5C12.9105 7.5 13.75 6.6605 13.75 5.625Z" fill="white"/>
</svg>
