<svg width="29" height="39" viewBox="0 0 29 39" fill="none" xmlns="http://www.w3.org/2000/svg">
<path fill-rule="evenodd" clip-rule="evenodd" d="M12.9357 0.108553C12.7343 0.183757 12.4626 0.323761 12.3319 0.419433C11.999 0.663391 11.513 1.40715 11.3868 1.86602C11.3081 2.15215 11.2976 5.26618 11.3461 13.8867C11.3822 20.2858 11.3762 25.5213 11.3329 25.5213C11.2895 25.5213 10.8369 25.4099 10.3272 25.2736C9.50459 25.0539 9.22314 25.0252 7.82131 25.0182C6.45082 25.0114 6.14002 25.0384 5.46841 25.2219C1.94273 26.1859 -0.352215 29.1962 0.0444442 32.3366C0.175489 33.3744 0.403649 33.9678 1.05361 34.9611C2.17471 36.6745 3.99154 37.8059 6.25697 38.2008C10.5298 38.9461 14.6864 36.6719 15.6624 33.055C15.8425 32.3874 15.8599 32.0347 15.8945 28.3467C15.915 26.1542 15.9357 20.7594 15.9405 16.3586C15.949 8.61203 15.9549 8.35006 16.1277 8.13783C16.2969 7.92975 16.3577 7.91935 17.312 7.93447C17.8653 7.94321 18.6342 8.0129 19.0208 8.08925C21.2085 8.52153 23.5672 10.0466 24.528 11.6502C25.5781 13.4029 25.3487 15.6693 23.9264 17.5945C23.4772 18.2026 23.4542 18.5496 23.8378 18.9332C24.1893 19.2846 24.5421 19.2852 25.0257 18.9349C25.8591 18.3311 27.191 16.5337 27.8887 15.0711C28.6179 13.5425 28.7224 13.051 28.7181 11.1697C28.7145 9.63482 28.7059 9.56582 28.4121 8.70808C27.616 6.3846 25.8786 4.44271 23.1018 2.77255C22.1162 2.17979 20.0496 1.30116 18.6253 0.869512C16.2376 0.145709 13.7327 -0.189292 12.9357 0.108553Z" fill="#DDDDDD"/>
</svg>
