<svg width="30" height="43" viewBox="0 0 30 43" fill="none" xmlns="http://www.w3.org/2000/svg">
<path fill-rule="evenodd" clip-rule="evenodd" d="M13.0101 0.0963046C9.71307 0.434705 6.65856 1.90252 4.29649 4.28357C2.14459 6.45244 0.808815 9.08803 0.205815 12.3539C-0.0700989 13.8481 -0.0682558 17.4525 0.209287 19.2376C0.37763 20.3207 1.0696 23.2865 1.42386 24.4437C1.69086 25.316 2.16486 26.4283 2.407 26.7508C2.76276 27.2247 2.79653 27.3334 3.01266 28.7009C3.2305 30.0798 3.50166 30.9294 4.11807 32.1637L4.56456 33.0577L4.5673 35.4609C4.56893 36.7827 4.62284 38.0923 4.68717 38.3714C5.12252 40.2596 6.72126 41.8633 8.67649 42.3724C9.67999 42.6339 19.344 42.6339 20.3611 42.3724C22.0073 41.9494 23.2355 40.9483 23.9769 39.4259L24.3994 38.5582L24.4808 34.8561C24.5256 32.8199 24.6151 30.8936 24.6796 30.5754C24.7441 30.2573 24.8 29.5977 24.8038 29.1099C24.8127 27.9631 24.8588 27.8567 25.3462 27.8567C25.6499 27.8567 25.8655 27.7428 26.2775 27.365C27.6197 26.1342 28.5058 23.8676 29.0966 20.1537C29.9199 14.9799 28.974 10.049 26.4376 6.29083C25.5527 4.97991 23.9035 3.37701 22.452 2.41744C20.7972 1.32347 18.4493 0.438986 16.423 0.146169C15.1819 -0.0331539 14.384 -0.0447211 13.0101 0.0963046ZM17.2132 5.24841C17.1745 5.34921 17.3121 6.03261 17.5189 6.76701C17.9515 8.30237 18.0562 9.786 17.7535 10.0892C17.5323 10.3108 17.3747 10.2094 17.0394 9.62992C16.6508 8.95834 15.8578 7.84491 15.7669 7.84329C15.7243 7.84247 15.655 7.99809 15.6132 8.18897C15.5713 8.37986 15.5109 8.53607 15.4792 8.53607C15.4474 8.53607 15.187 8.30177 14.9007 8.01544C14.6144 7.72911 14.3322 7.49481 14.2735 7.49481C14.2149 7.49481 14.167 7.73421 14.167 8.02689C14.167 8.56856 13.9253 9.2301 13.6413 9.46586C13.3585 9.70037 13.0658 9.47434 12.6996 8.73853L12.3397 8.01544L12.1122 8.5377C11.8529 9.13303 11.5847 9.40084 11.3416 9.3075C11.1848 9.24733 10.4648 7.2351 10.4648 6.85714C10.4648 6.6054 10.3701 6.63986 9.81743 7.09281C9.41727 7.42067 9.16527 7.81693 8.53292 9.11233C8.1001 9.99866 7.71297 10.7262 7.6726 10.729C7.63223 10.7319 7.50207 10.5911 7.3834 10.416C7.05426 9.93073 7.08109 8.17509 7.435 7.04871C7.58204 6.58076 7.67715 6.17246 7.64625 6.14169C7.53134 6.02683 6.51799 7.08424 6.03212 7.82593C4.86199 9.61247 4.29983 11.3128 3.86577 14.3785C3.79369 14.8876 3.63507 15.6675 3.51323 16.1116C3.30027 16.8887 3.23106 17.4444 3.34746 17.4444C3.37802 17.4444 3.66087 17.2492 3.97626 17.0105C4.29152 16.772 4.83794 16.402 5.19032 16.1884C5.77909 15.8316 5.92776 15.7953 7.02002 15.7408C8.38146 15.6729 8.94825 15.7888 9.61403 16.2711C9.93357 16.5025 10.1148 16.7467 10.2148 17.081L10.3583 17.5594L11.1924 17.5308C11.6513 17.5151 12.196 17.5454 12.4027 17.5981C12.7755 17.6934 12.7787 17.6906 12.7787 17.2743C12.7787 16.4706 13.1908 15.9696 14.1008 15.6671C15.1702 15.3117 16.5745 15.5025 18.1277 16.214C18.9494 16.5904 19.4511 17.0341 20.3159 18.1486L20.6224 18.5434L21.2415 18.2207C21.5819 18.0432 22.119 17.6703 22.435 17.3921L23.0092 16.8861L22.6092 16.095C22.2192 15.324 22.2073 15.2591 22.1343 13.5108C22.089 12.4263 21.9838 11.4433 21.8678 11.0235C21.6251 10.1437 21.0087 8.71123 20.5105 7.86874C20.018 7.03611 18.6493 5.63194 18.0184 5.31219C17.4361 5.01703 17.3059 5.00674 17.2132 5.24841ZM26.4589 17.5311C26.3334 17.6425 26.1417 18.0773 26.0331 18.4974C25.9243 18.9176 25.7316 19.4321 25.6045 19.6409L25.3738 20.0205L25.7553 20.4143C26.0599 20.7284 26.1347 20.8977 26.1254 21.2518C26.109 21.8781 25.6213 22.8529 25.0312 23.4388C24.5423 23.9243 24.5264 23.9636 24.4459 24.885C24.3811 25.6265 24.3997 25.8885 24.5317 26.0924C24.7481 26.4265 24.8742 26.42 25.3594 26.0498C26.2756 25.351 27.1797 23.1948 27.5214 20.8937C27.8236 18.8585 27.7634 18.1333 27.2468 17.589C26.9497 17.2759 26.7624 17.2622 26.4589 17.5311ZM15.1495 18.321C14.8318 18.4849 14.3969 18.8029 14.1829 19.0277C13.8478 19.3796 13.8029 19.4931 13.8601 19.8452C14.005 20.7387 15.0883 21.3749 16.4674 21.3768C17.6223 21.3783 18.1754 21.192 18.7657 20.6023C19.3876 19.9814 19.4156 19.6283 18.864 19.3665C18.2985 19.0982 18.01 19.1337 17.5622 19.5268C16.6038 20.3682 15.2692 19.4824 15.838 18.3824C16.0732 17.9276 15.9354 17.9154 15.1495 18.321ZM5.84907 18.4976C5.50557 18.6841 4.89207 19.074 4.4854 19.3641L3.74624 19.8916L4.11507 20.3166C4.55307 20.8213 4.8799 21.0123 5.66072 21.2203C6.78285 21.5192 7.93986 21.3075 8.57419 20.6872C8.99496 20.2758 9.15927 19.6756 8.91722 19.4337C8.77746 19.2938 8.68214 19.3134 8.2402 19.5724C7.54939 19.9772 7.03772 19.9641 6.43296 19.5261C6.16896 19.3348 5.95283 19.1299 5.95283 19.0707C5.95283 19.0114 6.14813 18.7779 6.38672 18.5518C6.91137 18.0544 6.70394 18.0336 5.84907 18.4976ZM22.6021 18.8872C22.246 19.2236 21.8542 19.456 21.4031 19.5982C20.9594 19.7381 20.7031 19.8886 20.6443 20.0441C20.136 21.386 19.8091 21.7671 18.7369 22.2683C18.0974 22.5671 17.9332 22.5927 16.6544 22.5927C14.9254 22.5927 14.2174 22.3519 13.2925 21.4496C12.6717 20.844 12.4336 20.3222 12.4323 19.5642C12.4313 19.0046 11.9568 18.6789 11.2417 18.7468C10.4554 18.8216 10.3664 18.9656 10.1752 20.4714C10.0848 21.1821 9.43266 21.9378 8.58923 22.3091C7.67642 22.7112 5.9347 22.7651 4.92122 22.4229C4.08627 22.141 3.26462 21.6203 2.98767 21.1975C2.74287 20.824 2.64152 20.8413 2.55533 21.2718C2.44493 21.824 2.79713 23.2806 3.3604 24.6012C3.64154 25.2606 4.05597 26.5621 4.2811 27.4935C4.50636 28.425 4.77289 29.5255 4.87356 29.9391C5.09787 30.8613 5.86596 32.3548 6.36439 32.8379L6.73377 33.1959L6.80942 32.6918C6.85099 32.4145 6.82943 31.6894 6.76154 31.0806C6.55536 29.2316 6.77252 28.7418 8.06457 28.1416C8.46212 27.957 8.8063 27.794 8.8294 27.7795C8.85267 27.7649 8.7532 27.5083 8.60835 27.2093C8.2837 26.5386 8.19417 25.7139 8.38167 25.1225C8.63796 24.3143 9.10407 23.348 9.20706 23.4117C9.26247 23.4459 9.30794 23.8588 9.30794 24.3292C9.30794 25.5143 9.49592 26.2781 9.92594 26.8402C10.54 27.6431 11.1706 27.6674 12.0205 26.921C12.215 26.7503 12.5945 26.5446 12.8637 26.4639C13.4434 26.2902 13.6574 26.0752 14.0486 25.2732C14.2829 24.7932 14.397 24.6751 14.6261 24.6751C14.8588 24.6751 14.9374 24.7606 15.051 25.1379C15.3208 26.0332 15.232 26.5613 14.7163 27.1277L14.4848 27.3821L14.7597 27.4386C14.911 27.4696 15.4009 27.5236 15.8484 27.5585C16.898 27.6407 17.6913 27.9151 17.9965 28.3015C18.2139 28.5768 18.2347 28.7288 18.1969 29.7664C18.1644 30.6573 18.1017 31.0146 17.9251 31.3161C17.6878 31.7211 17.35 32.0038 17.2375 31.8912C17.2021 31.8558 17.1184 31.3904 17.0515 30.8568C16.9846 30.3234 16.9096 29.8665 16.8848 29.8417C16.86 29.817 15.8177 29.769 14.5686 29.7351L12.2975 29.6735L12.0535 29.3436C11.7443 28.9252 11.6218 28.9258 11.6218 29.3456C11.6218 29.6387 11.564 29.6929 11.1301 29.808C10.8596 29.8798 10.2004 29.9903 9.66494 30.0536C8.52713 30.1882 8.22332 30.3527 8.02977 30.9393C7.70269 31.9302 8.22726 34.7213 8.99324 36.0666C9.88789 37.6377 10.5745 38.0418 12.4917 38.1251C15.1969 38.2425 16.1259 37.6437 17.4733 34.9139C17.7715 34.3094 18.3481 33.3139 18.7543 32.7016C19.644 31.3609 20.0419 30.424 20.1763 29.3532C20.2883 28.4612 20.3834 28.2781 21.4441 26.9124C23.3052 24.516 23.7991 22.6785 23.3667 19.7582C23.2583 19.0265 23.161 18.4186 23.1505 18.4075C23.1399 18.3964 22.8931 18.6122 22.6021 18.8872ZM13.8778 30.4146C12.6507 30.6821 11.6482 30.7275 10.0465 30.5883C8.92647 30.491 8.86519 30.4976 8.6221 30.7407C8.18882 31.1739 8.34653 31.3599 9.37609 31.6302C10.8934 32.0286 12.0625 32.0778 13.4153 31.8004C15.4154 31.3903 16.2495 30.9904 16.2495 30.4418C16.2495 30.1876 16.2075 30.1711 15.5842 30.1791C15.2183 30.1838 14.4505 30.2899 13.8778 30.4146ZM13.5307 33.3008C13.2762 33.3534 12.4288 33.3996 11.6477 33.4032L10.2276 33.4099L10.3972 33.738C10.9243 34.7571 12.6199 35.3339 13.5782 34.8198C13.984 34.6023 14.554 33.8913 14.6854 33.4388C14.7535 33.2044 14.7228 33.1798 14.3772 33.1918C14.1662 33.1991 13.7852 33.2482 13.5307 33.3008Z" fill="#DDDDDD"/>
</svg>
