<svg width="14" height="42" viewBox="0 0 14 42" fill="none" xmlns="http://www.w3.org/2000/svg">
<path fill-rule="evenodd" clip-rule="evenodd" d="M8.601 0.265146C6.53867 1.03165 4.35844 2.63507 3.38456 4.10138L3.04689 4.6098L3.02014 8.06344L2.99344 11.517H6.60609H10.2188V5.90657C10.2188 0.590274 10.2098 0.287929 10.0473 0.140929C9.80567 -0.0776942 9.43877 -0.0461939 8.601 0.265146ZM1.78127 18.0795V23.0483H6.60939H11.4375V18.0795V13.1108H6.60939H1.78127V18.0795ZM0.00647245 30.8998C0.0100296 34.2901 0.0442719 37.6797 0.0825005 38.4323C0.147558 39.7143 0.168772 39.8271 0.418115 40.2213C0.564472 40.4528 0.824272 40.7378 0.995358 40.8552C1.67053 41.3176 1.71047 41.3211 6.73174 41.3253C11.1878 41.3292 11.4695 41.3198 11.8411 41.1496C12.3373 40.9225 12.6883 40.5561 12.9259 40.0169C13.106 39.6085 13.112 39.3623 13.1184 32.1655L13.1248 24.7358H6.56242H0L0.00647245 30.8998Z" fill="#DDDDDD"/>
</svg>
