<svg width="42" height="42" viewBox="0 0 42 42" fill="none" xmlns="http://www.w3.org/2000/svg">
<path fill-rule="evenodd" clip-rule="evenodd" d="M19.5356 0.0439826C15.9346 0.472209 13.2642 1.52278 10.5716 3.57084C8.88835 4.85118 7.64529 6.1849 6.46496 7.97702C4.78048 10.5344 3.89022 13.1169 3.73081 15.9079L3.67144 16.9472L3.06076 17.2638C1.2914 18.1811 0.115777 20.0591 0.00979009 22.1375C-0.0799454 23.8964 0.444425 25.2533 1.69762 26.5059C2.5365 27.3443 3.39313 27.8279 4.51784 28.0979C5.14971 28.2495 5.16606 28.2608 5.21973 28.5857C5.25001 28.7688 5.27528 29.0907 5.27583 29.3011C5.27753 29.938 5.54692 31.284 5.8499 32.1696C6.81401 34.9881 8.7351 37.3229 11.3855 38.8976C12.7511 39.7089 15.087 40.4682 17.2598 40.8066C18.5781 41.0126 22.0107 41.0958 23.437 40.9569C27.7796 40.5344 31.0546 39.1133 33.4022 36.6333C35.3715 34.5529 36.428 32.1155 36.6311 29.1845L36.6964 28.243L37.1728 28.147C38.942 27.7911 40.4669 26.6501 41.2317 25.11C42.6929 22.1666 41.5837 18.7028 38.6878 17.1665L38.2829 16.9518L38.1756 15.6432C37.9955 13.4437 37.4506 11.614 36.3348 9.46131C33.5721 4.13137 28.5266 0.695614 22.5545 0.0776101C21.7141 -0.0094289 20.1327 -0.0269837 19.5356 0.0439826ZM23.0523 5.75295C22.8918 5.79817 22.373 6.08969 21.8995 6.40066C20.9231 7.0417 20.989 7.04191 20.042 6.39641C19.2588 5.86246 18.9793 5.74225 18.5216 5.74225C18.1853 5.74225 18.0375 5.79919 17.7752 6.02939C17.2951 6.45093 17.2463 6.76024 17.2781 9.17727C17.3043 11.1537 17.3197 11.3209 17.498 11.5646C17.9807 12.2241 18.8475 12.301 19.4452 11.7374L19.7678 11.4331V10.4532C19.7678 9.76612 19.8016 9.46208 19.8809 9.43571C19.943 9.41498 20.1943 9.48271 20.4392 9.58616C20.8801 9.77241 20.8899 9.77253 21.4023 9.59834C22.1681 9.33808 22.2192 9.39753 22.2759 10.6138C22.318 11.5185 22.3424 11.6272 22.5401 11.7872C23.2533 12.3646 24.2782 12.1144 24.5919 11.2864C24.6517 11.1285 24.691 10.1709 24.691 8.86978C24.691 6.9453 24.6725 6.68007 24.5179 6.39102C24.2396 5.87036 23.6093 5.59596 23.0523 5.75295ZM19.8607 16.0189C17.0788 16.1969 16.1188 16.3268 14.055 16.8043C12.869 17.0788 8.97408 18.329 8.43237 18.609L8.15648 18.7517V23.8021C8.15648 26.6942 8.19856 29.2634 8.25495 29.8143C8.55301 32.7249 10.3974 35.2821 13.219 36.6971C15.5415 37.8615 18.9258 38.4032 22.3934 38.1651C26.7055 37.8691 29.2738 36.8731 31.3445 34.6936C32.2376 33.7535 32.6166 33.1846 33.0988 32.06C33.6731 30.7206 33.688 30.5311 33.7111 24.3326C33.7297 19.3377 33.7162 18.7162 33.5873 18.644C33.3718 18.5234 30.8976 17.6457 30.0377 17.3847C28.9073 17.0417 26.7975 16.5446 25.8057 16.3877C24.0762 16.114 21.1814 15.9344 19.8607 16.0189ZM25.3246 18.2313C24.7382 18.3825 24.2903 18.744 24.027 19.2786C23.8222 19.6945 23.8066 19.8456 23.7774 21.6899C23.7424 23.903 23.8202 24.4878 24.2234 25.0444C24.9604 26.0618 26.6843 26.0976 27.4368 25.111C27.8892 24.5178 27.9337 24.2453 27.9376 22.0446C27.9396 20.8769 27.8989 19.8488 27.8426 19.646C27.7884 19.4509 27.5929 19.1239 27.4083 18.9195C26.8178 18.2659 26.1043 18.0302 25.3246 18.2313ZM15.3118 18.293C14.8614 18.4727 14.4496 18.8719 14.2317 19.3399C14.019 19.7968 14.0103 19.8973 14.0095 21.9409C14.0085 24.2568 14.0575 24.5765 14.4952 25.1074C14.9383 25.6451 15.4033 25.8316 16.2004 25.7913C16.7698 25.7626 16.9389 25.7133 17.272 25.4792C17.5106 25.3115 17.7618 25.0182 17.9049 24.7403C18.1341 24.2954 18.1433 24.2109 18.1744 22.2796C18.2124 19.9144 18.1416 19.4583 17.6521 18.9166C17.1812 18.3954 16.7297 18.1884 16.0791 18.1955C15.7833 18.1987 15.438 18.2425 15.3118 18.293ZM4.63368 19.5574C3.14709 20.3181 2.47798 21.8433 2.94968 23.3963C3.12374 23.9695 3.23364 24.1498 3.68155 24.5973C4.15762 25.0729 5.00741 25.5498 5.14088 25.4162C5.16606 25.3912 5.17553 24.0046 5.16207 22.3351L5.13752 19.2996L4.63368 19.5574ZM36.6739 22.3715V25.4386L36.9293 25.3794C37.6384 25.2151 38.4816 24.467 38.8432 23.6815C39.1554 23.0029 39.1248 21.8532 38.7741 21.0927C38.4694 20.4317 37.9397 19.8956 37.2426 19.5424C36.9843 19.4114 36.7507 19.3043 36.7234 19.3043C36.6962 19.3043 36.6739 20.6846 36.6739 22.3715ZM19.4025 25.8515C18.6751 26.0274 17.2887 26.7577 16.5924 27.3321C16.0461 27.7827 15.251 28.6385 14.5166 29.5664C14.2735 29.8735 14.2092 29.9083 14.0464 29.8212C13.9426 29.7657 13.6759 29.3823 13.4536 28.9692C13.0034 28.1329 12.6644 27.8516 12.0271 27.7855C11.561 27.7372 10.9153 28.0374 10.6236 28.438C10.3323 28.8379 10.3578 29.8651 10.6757 30.5441C11.3227 31.9261 12.8503 33.1236 14.6902 33.6912C15.0397 33.799 15.8057 33.9372 16.3924 33.9984C17.6892 34.1335 19.1088 34.0052 20.2279 33.6517L20.961 33.4201L21.6416 33.6474C24.0502 34.4512 27.3932 34.0386 29.3725 32.6932C30.4417 31.9664 31.4391 30.529 31.5378 29.5728C31.6565 28.4221 30.7034 27.557 29.6341 27.8449C29.0985 27.9891 28.8403 28.2338 28.523 28.8979C28.2019 29.5704 28.0054 29.8009 27.7538 29.8009C27.6444 29.8009 27.2896 29.4478 26.809 28.8605C25.5347 27.3036 24.0716 26.2756 22.5909 25.8969C21.7495 25.6818 20.1964 25.6596 19.4025 25.8515Z" fill="#DDDDDD"/>
</svg>
