<svg width="7" height="4" viewBox="0 0 7 4" fill="none" xmlns="http://www.w3.org/2000/svg">
<path d="M6.2741 2.76218C6.28733 3.88826 5.4978 5.03519 4.32898 5.52212C3.74675 5.7807 3.05422 5.83387 2.39035 5.66809C1.73754 5.48771 1.17523 5.0967 0.742941 4.60143C0.330567 4.08949 0.0416451 3.45034 0.00191975 2.7601C-0.0245638 2.07611 0.222444 1.34625 0.689974 0.877046C1.55455 -0.0842899 3.1468 -0.323061 3.99147 0.501687C2.90647 0.237893 1.96911 0.837413 1.51701 1.536C1.07159 2.23771 1.23696 3.09687 1.78164 3.73185C2.31757 4.38873 3.1248 4.71092 3.99814 4.52115C4.86926 4.3293 5.73598 3.7256 6.2741 2.76218Z" fill="black"/>
</svg>
