<svg width="6" height="7" viewBox="0 0 6 7" fill="none" xmlns="http://www.w3.org/2000/svg">
<path d="M3.0019 0.000163395C2.03743 0.535947 1.43373 1.40465 1.24188 2.27559C1.05212 3.14872 1.3743 3.95793 2.03118 4.49146C2.66616 5.03385 3.52636 5.19922 4.22807 4.75609C4.92666 4.30409 5.52619 3.36705 5.26239 2.28216C6.08714 3.12672 5.85045 4.71855 4.88703 5.58292C4.41783 6.05035 3.69005 6.29944 3.00398 6.27087C2.31165 6.23114 1.67354 5.94452 1.16264 5.52995C0.666329 5.09558 0.275328 4.53338 0.0949469 3.88296C-0.070837 3.2215 -0.0176611 2.52917 0.239877 1.94486C0.727844 0.778471 1.87478 -0.013068 3.0019 0.000163395Z" fill="black"/>
</svg>
