<svg width="13" height="11" viewBox="0 0 13 11" fill="none" xmlns="http://www.w3.org/2000/svg">
<path d="M12.1631 21.594C12.1141 23.598 10.8754 25.4393 9.17273 26.4799C7.47631 27.5518 5.0813 27.6352 3.3192 26.5529C1.53311 25.5519 0.28193 23.6626 0.109891 21.5742C-0.0152292 19.4336 0.989899 17.636 1.77711 16.022C2.62688 14.4194 3.35882 12.7991 3.06792 11.183C2.78953 9.54184 1.59464 8.09774 0.774061 6.38048C0.364294 5.52237 0.022295 4.57875 0.00039959 3.56946C-0.013155 2.5612 0.313202 1.54981 1.00762 0.804303C1.35899 0.438328 1.81464 0.165153 2.30678 0.0452466C2.82081 -0.0642331 3.3484 0.030654 3.7738 0.268381C4.6267 0.691703 5.26169 1.78128 4.78832 2.64982C5.12719 1.73645 4.41296 0.854349 3.64139 0.545721C2.83645 0.169319 1.94498 0.525925 1.44242 1.18593C0.924212 1.82925 0.694823 2.71133 0.765724 3.52982C0.837668 4.365 1.18174 5.1762 1.61445 5.94151C2.47882 7.46484 3.76442 8.93084 4.22319 10.9536C4.66215 13.0348 3.78007 15.0075 2.99286 16.6246C2.17437 18.2575 1.34962 19.8767 1.46222 21.4751C1.57692 23.0673 2.6029 24.577 3.9813 25.431C6.76834 27.3578 11.0693 25.0024 11.4489 21.545L12.1631 21.594Z" fill="black"/>
</svg>
