<svg width="16" height="16" viewBox="0 0 16 16" fill="none" xmlns="http://www.w3.org/2000/svg">
<path fill-rule="evenodd" clip-rule="evenodd" d="M2.5 4C3.3284 4 4 3.3284 4 2.5C4 1.6716 3.3284 1 2.5 1C1.6716 1 1 1.6716 1 2.5C1 3.3284 1.6716 4 2.5 4ZM3 5V4.95C3.9796 4.7511 4.7511 3.9796 4.95 3H5H11H11.05C11.2488 3.9796 12.0204 4.7511 13 4.95V5V11V11.05C12.0204 11.2488 11.2488 12.0204 11.05 13H11H5H4.95C4.7511 12.0204 3.9796 11.2488 3 11.05V11V5ZM2 11.05V11V5V4.95C0.8589 4.7184 0 3.7095 0 2.5C0 1.1193 1.1193 0 2.5 0C3.7095 0 4.7184 0.8589 4.95 2H5H11H11.05C11.2816 0.8589 12.2905 0 13.5 0C14.8807 0 16 1.1193 16 2.5C16 3.7095 15.1411 4.7184 14 4.95V5V11V11.05C15.1411 11.2816 16 12.2905 16 13.5C16 14.8807 14.8807 16 13.5 16C12.2905 16 11.2816 15.1411 11.05 14H11H5H4.95C4.7184 15.1411 3.7095 16 2.5 16C1.1193 16 0 14.8807 0 13.5C0 12.2905 0.8589 11.2816 2 11.05ZM15 2.5C15 3.3284 14.3284 4 13.5 4C12.6716 4 12 3.3284 12 2.5C12 1.6716 12.6716 1 13.5 1C14.3284 1 15 1.6716 15 2.5ZM13.5 15C14.3284 15 15 14.3284 15 13.5C15 12.6716 14.3284 12 13.5 12C12.6716 12 12 12.6716 12 13.5C12 14.3284 12.6716 15 13.5 15ZM4 13.5C4 14.3284 3.3284 15 2.5 15C1.6716 15 1 14.3284 1 13.5C1 12.6716 1.6716 12 2.5 12C3.3284 12 4 12.6716 4 13.5Z" fill="white"/>
</svg>
