<svg width="10" height="18" viewBox="0 0 10 18" fill="none" xmlns="http://www.w3.org/2000/svg">
<path d="M5.01729 17.9499C2.98618 16.1154 1.45972 13.701 0.639141 11.0442C0.2398 9.71022 0.00833797 8.32776 -2.86102e-06 6.91223C-2.86102e-06 5.50553 0.241889 4.04809 0.951943 2.73398C1.32105 2.08354 1.77982 1.49263 2.40333 0.998744C3.03206 0.529107 3.75984 0.222636 4.52099 0.0771221C6.00053 -0.194085 7.84187 0.227057 8.79904 1.70652C9.69885 3.16175 9.46946 5.11305 8.24329 6.29268C7.62603 6.87699 6.81171 7.18124 6.01824 7.20105C5.27065 7.20991 4.2916 7.13276 4.01529 6.19566C4.88279 6.01044 5.3082 6.22873 5.9119 6.10745C6.46764 5.99942 6.97958 5.74145 7.33513 5.36662C8.05561 4.62799 8.22973 3.2852 7.65418 2.42971C7.12555 1.53453 5.88374 1.14868 4.72847 1.3383C4.1477 1.41989 3.58155 1.62715 3.10296 1.94906C2.63898 2.27758 2.21565 2.75605 1.89138 3.27419C0.599524 5.43939 0.688152 8.31451 1.29394 10.8612C1.90911 13.4497 3.22391 15.9016 5.11218 17.8484L5.01729 17.9499Z" fill="black"/>
</svg>
