<svg width="15" height="15" viewBox="0 0 15 15" fill="none" xmlns="http://www.w3.org/2000/svg">
<path fill-rule="evenodd" clip-rule="evenodd" d="M10.1292 5.68962C10.1292 8.14162 8.14162 10.1292 5.68962 10.1292C3.23775 10.1292 1.25 8.14162 1.25 5.68962C1.25 3.23775 3.23775 1.25 5.68962 1.25C8.14162 1.25 10.1292 3.23775 10.1292 5.68962ZM9.2465 10.1308C8.27237 10.912 7.03562 11.3792 5.68962 11.3792C2.54737 11.3792 0 8.832 0 5.68962C0 2.54737 2.54737 0 5.68962 0C8.832 0 11.3792 2.54737 11.3792 5.68962C11.3792 7.03575 10.9119 8.27262 10.1305 9.24687L14.1919 13.3084L13.308 14.1922L9.2465 10.1308Z" fill="white"/>
</svg>
