<svg width="6" height="6" viewBox="0 0 6 6" fill="none" xmlns="http://www.w3.org/2000/svg">
<path d="M1.15045 5.22007C0.0212412 4.43515 -0.421901 2.63374 0.488345 1.30424C0.940861 0.649342 1.66865 0.217158 2.44647 0.0650328C3.21909 -0.0892815 4.10951 0.0165494 4.80914 0.539133L4.63919 0.448733C5.08024 0.605237 5.37845 0.953592 5.52963 1.32186C5.67769 1.69232 5.7048 2.15088 5.49314 2.56096C5.27835 2.97334 4.88422 3.19595 4.51616 3.25767C4.3264 3.28634 4.13662 3.27759 3.95312 3.23129C3.77899 3.17176 3.59132 2.99096 3.6643 2.63593C3.93957 2.40884 3.98648 2.30082 4.05009 2.26558C4.10535 2.24347 4.15852 2.20823 4.19814 2.17069C4.28677 2.10021 4.31075 2.012 4.30658 1.98771C4.30345 1.96571 4.31284 1.90169 4.27947 1.8312C4.25132 1.76061 4.19814 1.72308 4.1825 1.71651L4.08762 1.67908L4.01255 1.62392C3.64032 1.35929 3.13985 1.18736 2.606 1.21165C2.07841 1.23584 1.5404 1.44531 1.17234 1.83558C0.435175 2.61174 0.331955 4.16395 1.23803 5.11205L1.15045 5.22007Z" fill="black"/>
</svg>
